<?xml version="1.0" encoding="utf-8" standalone="no"?>
<!DOCTYPE svg PUBLIC "-//W3C//DTD SVG 1.1//EN"
  "http://www.w3.org/Graphics/SVG/1.1/DTD/svg11.dtd">
<!-- Created with matplotlib (https://matplotlib.org/) -->
<svg height="360pt" version="1.1" viewBox="0 0 720 360" width="720pt" xmlns="http://www.w3.org/2000/svg" xmlns:xlink="http://www.w3.org/1999/xlink">
 <metadata>
  <rdf:RDF xmlns:cc="http://creativecommons.org/ns#" xmlns:dc="http://purl.org/dc/elements/1.1/" xmlns:rdf="http://www.w3.org/1999/02/22-rdf-syntax-ns#">
   <cc:Work>
    <dc:type rdf:resource="http://purl.org/dc/dcmitype/StillImage"/>
    <dc:date>2022-03-16T16:10:03.734349</dc:date>
    <dc:format>image/svg+xml</dc:format>
    <dc:creator>
     <cc:Agent>
      <dc:title>Matplotlib v3.3.4, https://matplotlib.org/</dc:title>
     </cc:Agent>
    </dc:creator>
   </cc:Work>
  </rdf:RDF>
 </metadata>
 <defs>
  <style type="text/css">*{stroke-linecap:butt;stroke-linejoin:round;}</style>
 </defs>
 <g id="figure_1">
  <g id="patch_1">
   <path d="M 0 360 
L 720 360 
L 720 0 
L 0 0 
z
" style="fill:#ffffff;"/>
  </g>
  <g id="axes_1">
   <g id="patch_2">
    <path d="M 90 320.4 
L 211.304348 320.4 
L 211.304348 43.2 
L 90 43.2 
z
" style="fill:#ffffff;"/>
   </g>
   <g id="matplotlib.axis_1">
    <g id="xtick_1">
     <g id="line2d_1">
      <path clip-path="url(#p820c12987c)" d="M 123.083004 320.4 
L 123.083004 43.2 
" style="fill:none;stroke:#cccccc;stroke-linecap:round;stroke-width:0.8;"/>
     </g>
     <g id="line2d_2"/>
     <g id="text_1">
      <!-- $\mathdefault{10^{3}}$ -->
      <g style="fill:#262626;" transform="translate(115.233004 334.2125)scale(0.1 -0.1)">
       <defs>
        <path d="M 37.25 0 
L 28.46875 0 
L 28.46875 56 
Q 25.296875 52.984375 20.140625 49.953125 
Q 14.984375 46.921875 10.890625 45.40625 
L 10.890625 53.90625 
Q 18.265625 57.375 23.78125 62.296875 
Q 29.296875 67.234375 31.59375 71.875 
L 37.25 71.875 
z
" id="ArialMT-49"/>
        <path d="M 4.15625 35.296875 
Q 4.15625 48 6.765625 55.734375 
Q 9.375 63.484375 14.515625 67.671875 
Q 19.671875 71.875 27.484375 71.875 
Q 33.25 71.875 37.59375 69.546875 
Q 41.9375 67.234375 44.765625 62.859375 
Q 47.609375 58.5 49.21875 52.21875 
Q 50.828125 45.953125 50.828125 35.296875 
Q 50.828125 22.703125 48.234375 14.96875 
Q 45.65625 7.234375 40.5 3 
Q 35.359375 -1.21875 27.484375 -1.21875 
Q 17.140625 -1.21875 11.234375 6.203125 
Q 4.15625 15.140625 4.15625 35.296875 
z
M 13.1875 35.296875 
Q 13.1875 17.671875 17.3125 11.828125 
Q 21.4375 6 27.484375 6 
Q 33.546875 6 37.671875 11.859375 
Q 41.796875 17.71875 41.796875 35.296875 
Q 41.796875 52.984375 37.671875 58.78125 
Q 33.546875 64.59375 27.390625 64.59375 
Q 21.34375 64.59375 17.71875 59.46875 
Q 13.1875 52.9375 13.1875 35.296875 
z
" id="ArialMT-48"/>
        <path d="M 4.203125 18.890625 
L 12.984375 20.0625 
Q 14.5 12.59375 18.140625 9.296875 
Q 21.78125 6 27 6 
Q 33.203125 6 37.46875 10.296875 
Q 41.75 14.59375 41.75 20.953125 
Q 41.75 27 37.796875 30.921875 
Q 33.84375 34.859375 27.734375 34.859375 
Q 25.25 34.859375 21.53125 33.890625 
L 22.515625 41.609375 
Q 23.390625 41.5 23.921875 41.5 
Q 29.546875 41.5 34.03125 44.421875 
Q 38.53125 47.359375 38.53125 53.46875 
Q 38.53125 58.296875 35.25 61.46875 
Q 31.984375 64.65625 26.8125 64.65625 
Q 21.6875 64.65625 18.265625 61.421875 
Q 14.84375 58.203125 13.875 51.765625 
L 5.078125 53.328125 
Q 6.6875 62.15625 12.390625 67.015625 
Q 18.109375 71.875 26.609375 71.875 
Q 32.46875 71.875 37.390625 69.359375 
Q 42.328125 66.84375 44.9375 62.5 
Q 47.5625 58.15625 47.5625 53.265625 
Q 47.5625 48.640625 45.0625 44.828125 
Q 42.578125 41.015625 37.703125 38.765625 
Q 44.046875 37.3125 47.5625 32.6875 
Q 51.078125 28.078125 51.078125 21.140625 
Q 51.078125 11.765625 44.234375 5.25 
Q 37.40625 -1.265625 26.953125 -1.265625 
Q 17.53125 -1.265625 11.296875 4.34375 
Q 5.078125 9.96875 4.203125 18.890625 
z
" id="ArialMT-51"/>
       </defs>
       <use transform="translate(0 0.99375)" xlink:href="#ArialMT-49"/>
       <use transform="translate(55.615234 0.99375)" xlink:href="#ArialMT-48"/>
       <use transform="translate(112.972813 70.6875)scale(0.7)" xlink:href="#ArialMT-51"/>
      </g>
     </g>
    </g>
    <g id="xtick_2">
     <g id="line2d_3">
      <path clip-path="url(#p820c12987c)" d="M 178.221344 320.4 
L 178.221344 43.2 
" style="fill:none;stroke:#cccccc;stroke-linecap:round;stroke-width:0.8;"/>
     </g>
     <g id="line2d_4"/>
     <g id="text_2">
      <!-- $\mathdefault{10^{5}}$ -->
      <g style="fill:#262626;" transform="translate(170.371344 334.1125)scale(0.1 -0.1)">
       <defs>
        <path d="M 4.15625 18.75 
L 13.375 19.53125 
Q 14.40625 12.796875 18.140625 9.390625 
Q 21.875 6 27.15625 6 
Q 33.5 6 37.890625 10.78125 
Q 42.28125 15.578125 42.28125 23.484375 
Q 42.28125 31 38.0625 35.34375 
Q 33.84375 39.703125 27 39.703125 
Q 22.75 39.703125 19.328125 37.765625 
Q 15.921875 35.84375 13.96875 32.765625 
L 5.71875 33.84375 
L 12.640625 70.609375 
L 48.25 70.609375 
L 48.25 62.203125 
L 19.671875 62.203125 
L 15.828125 42.96875 
Q 22.265625 47.46875 29.34375 47.46875 
Q 38.71875 47.46875 45.15625 40.96875 
Q 51.609375 34.46875 51.609375 24.265625 
Q 51.609375 14.546875 45.953125 7.46875 
Q 39.0625 -1.21875 27.15625 -1.21875 
Q 17.390625 -1.21875 11.203125 4.25 
Q 5.03125 9.71875 4.15625 18.75 
z
" id="ArialMT-53"/>
       </defs>
       <use transform="translate(0 0.879688)" xlink:href="#ArialMT-49"/>
       <use transform="translate(55.615234 0.879688)" xlink:href="#ArialMT-48"/>
       <use transform="translate(112.972813 70.573438)scale(0.7)" xlink:href="#ArialMT-53"/>
      </g>
     </g>
    </g>
   </g>
   <g id="matplotlib.axis_2">
    <g id="ytick_1">
     <g id="line2d_5">
      <path clip-path="url(#p820c12987c)" d="M 90 294.924708 
L 211.304348 294.924708 
" style="fill:none;stroke:#cccccc;stroke-linecap:round;stroke-width:0.8;"/>
     </g>
     <g id="line2d_6"/>
     <g id="text_3">
      <!-- $\mathdefault{10^{0}}$ -->
      <g style="fill:#262626;" transform="translate(70.8 300.080958)scale(0.1 -0.1)">
       <use transform="translate(0 0.99375)" xlink:href="#ArialMT-49"/>
       <use transform="translate(55.615234 0.99375)" xlink:href="#ArialMT-48"/>
       <use transform="translate(112.972813 70.6875)scale(0.7)" xlink:href="#ArialMT-48"/>
      </g>
     </g>
    </g>
    <g id="ytick_2">
     <g id="line2d_7">
      <path clip-path="url(#p820c12987c)" d="M 90 223.315164 
L 211.304348 223.315164 
" style="fill:none;stroke:#cccccc;stroke-linecap:round;stroke-width:0.8;"/>
     </g>
     <g id="line2d_8"/>
     <g id="text_4">
      <!-- $\mathdefault{10^{1}}$ -->
      <g style="fill:#262626;" transform="translate(70.8 228.471414)scale(0.1 -0.1)">
       <use transform="translate(0 0.99375)" xlink:href="#ArialMT-49"/>
       <use transform="translate(55.615234 0.99375)" xlink:href="#ArialMT-48"/>
       <use transform="translate(112.972813 70.6875)scale(0.7)" xlink:href="#ArialMT-49"/>
      </g>
     </g>
    </g>
    <g id="ytick_3">
     <g id="line2d_9">
      <path clip-path="url(#p820c12987c)" d="M 90 151.70562 
L 211.304348 151.70562 
" style="fill:none;stroke:#cccccc;stroke-linecap:round;stroke-width:0.8;"/>
     </g>
     <g id="line2d_10"/>
     <g id="text_5">
      <!-- $\mathdefault{10^{2}}$ -->
      <g style="fill:#262626;" transform="translate(70.8 156.86187)scale(0.1 -0.1)">
       <defs>
        <path d="M 50.34375 8.453125 
L 50.34375 0 
L 3.03125 0 
Q 2.9375 3.171875 4.046875 6.109375 
Q 5.859375 10.9375 9.828125 15.625 
Q 13.8125 20.3125 21.34375 26.46875 
Q 33.015625 36.03125 37.109375 41.625 
Q 41.21875 47.21875 41.21875 52.203125 
Q 41.21875 57.421875 37.46875 61 
Q 33.734375 64.59375 27.734375 64.59375 
Q 21.390625 64.59375 17.578125 60.78125 
Q 13.765625 56.984375 13.71875 50.25 
L 4.6875 51.171875 
Q 5.609375 61.28125 11.65625 66.578125 
Q 17.71875 71.875 27.9375 71.875 
Q 38.234375 71.875 44.234375 66.15625 
Q 50.25 60.453125 50.25 52 
Q 50.25 47.703125 48.484375 43.546875 
Q 46.734375 39.40625 42.65625 34.8125 
Q 38.578125 30.21875 29.109375 22.21875 
Q 21.1875 15.578125 18.9375 13.203125 
Q 16.703125 10.84375 15.234375 8.453125 
z
" id="ArialMT-50"/>
       </defs>
       <use transform="translate(0 0.99375)" xlink:href="#ArialMT-49"/>
       <use transform="translate(55.615234 0.99375)" xlink:href="#ArialMT-48"/>
       <use transform="translate(112.972813 70.6875)scale(0.7)" xlink:href="#ArialMT-50"/>
      </g>
     </g>
    </g>
    <g id="ytick_4">
     <g id="line2d_11">
      <path clip-path="url(#p820c12987c)" d="M 90 80.096076 
L 211.304348 80.096076 
" style="fill:none;stroke:#cccccc;stroke-linecap:round;stroke-width:0.8;"/>
     </g>
     <g id="line2d_12"/>
     <g id="text_6">
      <!-- $\mathdefault{10^{3}}$ -->
      <g style="fill:#262626;" transform="translate(70.8 85.252326)scale(0.1 -0.1)">
       <use transform="translate(0 0.99375)" xlink:href="#ArialMT-49"/>
       <use transform="translate(55.615234 0.99375)" xlink:href="#ArialMT-48"/>
       <use transform="translate(112.972813 70.6875)scale(0.7)" xlink:href="#ArialMT-51"/>
      </g>
     </g>
    </g>
    <g id="ytick_5">
     <g id="line2d_13"/>
    </g>
    <g id="ytick_6">
     <g id="line2d_14"/>
    </g>
    <g id="ytick_7">
     <g id="line2d_15"/>
    </g>
    <g id="ytick_8">
     <g id="line2d_16"/>
    </g>
    <g id="ytick_9">
     <g id="line2d_17"/>
    </g>
    <g id="ytick_10">
     <g id="line2d_18"/>
    </g>
    <g id="ytick_11">
     <g id="line2d_19"/>
    </g>
    <g id="ytick_12">
     <g id="line2d_20"/>
    </g>
    <g id="ytick_13">
     <g id="line2d_21"/>
    </g>
    <g id="ytick_14">
     <g id="line2d_22"/>
    </g>
    <g id="ytick_15">
     <g id="line2d_23"/>
    </g>
    <g id="ytick_16">
     <g id="line2d_24"/>
    </g>
    <g id="ytick_17">
     <g id="line2d_25"/>
    </g>
    <g id="ytick_18">
     <g id="line2d_26"/>
    </g>
    <g id="ytick_19">
     <g id="line2d_27"/>
    </g>
    <g id="ytick_20">
     <g id="line2d_28"/>
    </g>
    <g id="ytick_21">
     <g id="line2d_29"/>
    </g>
    <g id="ytick_22">
     <g id="line2d_30"/>
    </g>
    <g id="ytick_23">
     <g id="line2d_31"/>
    </g>
    <g id="ytick_24">
     <g id="line2d_32"/>
    </g>
    <g id="ytick_25">
     <g id="line2d_33"/>
    </g>
    <g id="ytick_26">
     <g id="line2d_34"/>
    </g>
    <g id="ytick_27">
     <g id="line2d_35"/>
    </g>
    <g id="ytick_28">
     <g id="line2d_36"/>
    </g>
    <g id="ytick_29">
     <g id="line2d_37"/>
    </g>
    <g id="ytick_30">
     <g id="line2d_38"/>
    </g>
    <g id="ytick_31">
     <g id="line2d_39"/>
    </g>
    <g id="ytick_32">
     <g id="line2d_40"/>
    </g>
    <g id="ytick_33">
     <g id="line2d_41"/>
    </g>
    <g id="ytick_34">
     <g id="line2d_42"/>
    </g>
    <g id="ytick_35">
     <g id="line2d_43"/>
    </g>
   </g>
   <g id="line2d_44">
    <path clip-path="url(#p820c12987c)" d="M 95.513834 301.554939 
L 123.083004 275.391803 
L 150.652174 228.281756 
L 178.221344 163.372021 
L 205.790514 92.695567 
" style="fill:none;stroke:#1f77b4;stroke-linecap:round;stroke-width:1.5;"/>
    <defs>
     <path d="M 0 3 
C 0.795609 3 1.55874 2.683901 2.12132 2.12132 
C 2.683901 1.55874 3 0.795609 3 0 
C 3 -0.795609 2.683901 -1.55874 2.12132 -2.12132 
C 1.55874 -2.683901 0.795609 -3 0 -3 
C -0.795609 -3 -1.55874 -2.683901 -2.12132 -2.12132 
C -2.683901 -1.55874 -3 -0.795609 -3 0 
C -3 0.795609 -2.683901 1.55874 -2.12132 2.12132 
C -1.55874 2.683901 -0.795609 3 0 3 
z
" id="me2465921d8" style="stroke:#1f77b4;"/>
    </defs>
    <g clip-path="url(#p820c12987c)">
     <use style="fill:#1f77b4;stroke:#1f77b4;" x="95.513834" xlink:href="#me2465921d8" y="301.554939"/>
     <use style="fill:#1f77b4;stroke:#1f77b4;" x="123.083004" xlink:href="#me2465921d8" y="275.391803"/>
     <use style="fill:#1f77b4;stroke:#1f77b4;" x="150.652174" xlink:href="#me2465921d8" y="228.281756"/>
     <use style="fill:#1f77b4;stroke:#1f77b4;" x="178.221344" xlink:href="#me2465921d8" y="163.372021"/>
     <use style="fill:#1f77b4;stroke:#1f77b4;" x="205.790514" xlink:href="#me2465921d8" y="92.695567"/>
    </g>
   </g>
   <g id="line2d_45">
    <path clip-path="url(#p820c12987c)" d="M 95.513834 296.815943 
L 123.083004 269.567165 
L 150.652174 224.445724 
L 178.221344 160.396393 
L 205.790514 86.754802 
" style="fill:none;stroke:#ff7f0e;stroke-linecap:round;stroke-width:1.5;"/>
    <defs>
     <path d="M 0 3 
C 0.795609 3 1.55874 2.683901 2.12132 2.12132 
C 2.683901 1.55874 3 0.795609 3 0 
C 3 -0.795609 2.683901 -1.55874 2.12132 -2.12132 
C 1.55874 -2.683901 0.795609 -3 0 -3 
C -0.795609 -3 -1.55874 -2.683901 -2.12132 -2.12132 
C -2.683901 -1.55874 -3 -0.795609 -3 0 
C -3 0.795609 -2.683901 1.55874 -2.12132 2.12132 
C -1.55874 2.683901 -0.795609 3 0 3 
z
" id="mdf98d0a9d0" style="stroke:#ff7f0e;"/>
    </defs>
    <g clip-path="url(#p820c12987c)">
     <use style="fill:#ff7f0e;stroke:#ff7f0e;" x="95.513834" xlink:href="#mdf98d0a9d0" y="296.815943"/>
     <use style="fill:#ff7f0e;stroke:#ff7f0e;" x="123.083004" xlink:href="#mdf98d0a9d0" y="269.567165"/>
     <use style="fill:#ff7f0e;stroke:#ff7f0e;" x="150.652174" xlink:href="#mdf98d0a9d0" y="224.445724"/>
     <use style="fill:#ff7f0e;stroke:#ff7f0e;" x="178.221344" xlink:href="#mdf98d0a9d0" y="160.396393"/>
     <use style="fill:#ff7f0e;stroke:#ff7f0e;" x="205.790514" xlink:href="#mdf98d0a9d0" y="86.754802"/>
    </g>
   </g>
   <g id="line2d_46">
    <path clip-path="url(#p820c12987c)" d="M 95.513834 294.831549 
L 123.083004 269.402471 
L 150.652174 223.477304 
L 178.221344 159.808129 
L 205.790514 85.588789 
" style="fill:none;stroke:#2ca02c;stroke-linecap:round;stroke-width:1.5;"/>
    <defs>
     <path d="M 0 3 
C 0.795609 3 1.55874 2.683901 2.12132 2.12132 
C 2.683901 1.55874 3 0.795609 3 0 
C 3 -0.795609 2.683901 -1.55874 2.12132 -2.12132 
C 1.55874 -2.683901 0.795609 -3 0 -3 
C -0.795609 -3 -1.55874 -2.683901 -2.12132 -2.12132 
C -2.683901 -1.55874 -3 -0.795609 -3 0 
C -3 0.795609 -2.683901 1.55874 -2.12132 2.12132 
C -1.55874 2.683901 -0.795609 3 0 3 
z
" id="m3e5db1f63d" style="stroke:#2ca02c;"/>
    </defs>
    <g clip-path="url(#p820c12987c)">
     <use style="fill:#2ca02c;stroke:#2ca02c;" x="95.513834" xlink:href="#m3e5db1f63d" y="294.831549"/>
     <use style="fill:#2ca02c;stroke:#2ca02c;" x="123.083004" xlink:href="#m3e5db1f63d" y="269.402471"/>
     <use style="fill:#2ca02c;stroke:#2ca02c;" x="150.652174" xlink:href="#m3e5db1f63d" y="223.477304"/>
     <use style="fill:#2ca02c;stroke:#2ca02c;" x="178.221344" xlink:href="#m3e5db1f63d" y="159.808129"/>
     <use style="fill:#2ca02c;stroke:#2ca02c;" x="205.790514" xlink:href="#m3e5db1f63d" y="85.588789"/>
    </g>
   </g>
   <g id="line2d_47">
    <path clip-path="url(#p820c12987c)" d="M 95.513834 293.14192 
L 123.083004 268.405689 
L 150.652174 223.101314 
L 178.221344 160.342564 
L 205.790514 77.71454 
" style="fill:none;stroke:#d62728;stroke-linecap:round;stroke-width:1.5;"/>
    <defs>
     <path d="M 0 3 
C 0.795609 3 1.55874 2.683901 2.12132 2.12132 
C 2.683901 1.55874 3 0.795609 3 0 
C 3 -0.795609 2.683901 -1.55874 2.12132 -2.12132 
C 1.55874 -2.683901 0.795609 -3 0 -3 
C -0.795609 -3 -1.55874 -2.683901 -2.12132 -2.12132 
C -2.683901 -1.55874 -3 -0.795609 -3 0 
C -3 0.795609 -2.683901 1.55874 -2.12132 2.12132 
C -1.55874 2.683901 -0.795609 3 0 3 
z
" id="m53a85ab5d6" style="stroke:#d62728;"/>
    </defs>
    <g clip-path="url(#p820c12987c)">
     <use style="fill:#d62728;stroke:#d62728;" x="95.513834" xlink:href="#m53a85ab5d6" y="293.14192"/>
     <use style="fill:#d62728;stroke:#d62728;" x="123.083004" xlink:href="#m53a85ab5d6" y="268.405689"/>
     <use style="fill:#d62728;stroke:#d62728;" x="150.652174" xlink:href="#m53a85ab5d6" y="223.101314"/>
     <use style="fill:#d62728;stroke:#d62728;" x="178.221344" xlink:href="#m53a85ab5d6" y="160.342564"/>
     <use style="fill:#d62728;stroke:#d62728;" x="205.790514" xlink:href="#m53a85ab5d6" y="77.71454"/>
    </g>
   </g>
   <g id="line2d_48">
    <path clip-path="url(#p820c12987c)" d="M 95.513834 291.875895 
L 123.083004 268.418948 
L 150.652174 223.249924 
L 178.221344 160.288009 
L 205.790514 73.77205 
" style="fill:none;stroke:#9467bd;stroke-linecap:round;stroke-width:1.5;"/>
    <defs>
     <path d="M 0 3 
C 0.795609 3 1.55874 2.683901 2.12132 2.12132 
C 2.683901 1.55874 3 0.795609 3 0 
C 3 -0.795609 2.683901 -1.55874 2.12132 -2.12132 
C 1.55874 -2.683901 0.795609 -3 0 -3 
C -0.795609 -3 -1.55874 -2.683901 -2.12132 -2.12132 
C -2.683901 -1.55874 -3 -0.795609 -3 0 
C -3 0.795609 -2.683901 1.55874 -2.12132 2.12132 
C -1.55874 2.683901 -0.795609 3 0 3 
z
" id="m38f8d245c5" style="stroke:#9467bd;"/>
    </defs>
    <g clip-path="url(#p820c12987c)">
     <use style="fill:#9467bd;stroke:#9467bd;" x="95.513834" xlink:href="#m38f8d245c5" y="291.875895"/>
     <use style="fill:#9467bd;stroke:#9467bd;" x="123.083004" xlink:href="#m38f8d245c5" y="268.418948"/>
     <use style="fill:#9467bd;stroke:#9467bd;" x="150.652174" xlink:href="#m38f8d245c5" y="223.249924"/>
     <use style="fill:#9467bd;stroke:#9467bd;" x="178.221344" xlink:href="#m38f8d245c5" y="160.288009"/>
     <use style="fill:#9467bd;stroke:#9467bd;" x="205.790514" xlink:href="#m38f8d245c5" y="73.77205"/>
    </g>
   </g>
   <g id="patch_3">
    <path d="M 90 320.4 
L 90 43.2 
" style="fill:none;stroke:#cccccc;stroke-linecap:square;stroke-linejoin:miter;"/>
   </g>
   <g id="patch_4">
    <path d="M 211.304348 320.4 
L 211.304348 43.2 
" style="fill:none;stroke:#cccccc;stroke-linecap:square;stroke-linejoin:miter;"/>
   </g>
   <g id="patch_5">
    <path d="M 90 320.4 
L 211.304348 320.4 
" style="fill:none;stroke:#cccccc;stroke-linecap:square;stroke-linejoin:miter;"/>
   </g>
   <g id="patch_6">
    <path d="M 90 43.2 
L 211.304348 43.2 
" style="fill:none;stroke:#cccccc;stroke-linecap:square;stroke-linejoin:miter;"/>
   </g>
   <g id="text_7">
    <!-- container mode any -->
    <g style="fill:#262626;" transform="translate(97.957174 37.2)scale(0.12 -0.12)">
     <defs>
      <path d="M 40.4375 19 
L 49.078125 17.875 
Q 47.65625 8.9375 41.8125 3.875 
Q 35.984375 -1.171875 27.484375 -1.171875 
Q 16.84375 -1.171875 10.375 5.78125 
Q 3.90625 12.75 3.90625 25.734375 
Q 3.90625 34.125 6.6875 40.421875 
Q 9.46875 46.734375 15.15625 49.875 
Q 20.84375 53.03125 27.546875 53.03125 
Q 35.984375 53.03125 41.359375 48.75 
Q 46.734375 44.484375 48.25 36.625 
L 39.703125 35.296875 
Q 38.484375 40.53125 35.375 43.15625 
Q 32.28125 45.796875 27.875 45.796875 
Q 21.234375 45.796875 17.078125 41.03125 
Q 12.9375 36.28125 12.9375 25.984375 
Q 12.9375 15.53125 16.9375 10.796875 
Q 20.953125 6.0625 27.390625 6.0625 
Q 32.5625 6.0625 36.03125 9.234375 
Q 39.5 12.40625 40.4375 19 
z
" id="ArialMT-99"/>
      <path d="M 3.328125 25.921875 
Q 3.328125 40.328125 11.328125 47.265625 
Q 18.015625 53.03125 27.640625 53.03125 
Q 38.328125 53.03125 45.109375 46.015625 
Q 51.90625 39.015625 51.90625 26.65625 
Q 51.90625 16.65625 48.90625 10.90625 
Q 45.90625 5.171875 40.15625 2 
Q 34.421875 -1.171875 27.640625 -1.171875 
Q 16.75 -1.171875 10.03125 5.8125 
Q 3.328125 12.796875 3.328125 25.921875 
z
M 12.359375 25.921875 
Q 12.359375 15.96875 16.703125 11.015625 
Q 21.046875 6.0625 27.640625 6.0625 
Q 34.1875 6.0625 38.53125 11.03125 
Q 42.875 16.015625 42.875 26.21875 
Q 42.875 35.84375 38.5 40.796875 
Q 34.125 45.75 27.640625 45.75 
Q 21.046875 45.75 16.703125 40.8125 
Q 12.359375 35.890625 12.359375 25.921875 
z
" id="ArialMT-111"/>
      <path d="M 6.59375 0 
L 6.59375 51.859375 
L 14.5 51.859375 
L 14.5 44.484375 
Q 20.21875 53.03125 31 53.03125 
Q 35.6875 53.03125 39.625 51.34375 
Q 43.5625 49.65625 45.515625 46.921875 
Q 47.46875 44.1875 48.25 40.4375 
Q 48.734375 37.984375 48.734375 31.890625 
L 48.734375 0 
L 39.9375 0 
L 39.9375 31.546875 
Q 39.9375 36.921875 38.90625 39.578125 
Q 37.890625 42.234375 35.28125 43.8125 
Q 32.671875 45.40625 29.15625 45.40625 
Q 23.53125 45.40625 19.453125 41.84375 
Q 15.375 38.28125 15.375 28.328125 
L 15.375 0 
z
" id="ArialMT-110"/>
      <path d="M 25.78125 7.859375 
L 27.046875 0.09375 
Q 23.34375 -0.6875 20.40625 -0.6875 
Q 15.625 -0.6875 12.984375 0.828125 
Q 10.359375 2.34375 9.28125 4.8125 
Q 8.203125 7.28125 8.203125 15.1875 
L 8.203125 45.015625 
L 1.765625 45.015625 
L 1.765625 51.859375 
L 8.203125 51.859375 
L 8.203125 64.703125 
L 16.9375 69.96875 
L 16.9375 51.859375 
L 25.78125 51.859375 
L 25.78125 45.015625 
L 16.9375 45.015625 
L 16.9375 14.703125 
Q 16.9375 10.9375 17.40625 9.859375 
Q 17.875 8.796875 18.921875 8.15625 
Q 19.96875 7.515625 21.921875 7.515625 
Q 23.390625 7.515625 25.78125 7.859375 
z
" id="ArialMT-116"/>
      <path d="M 40.4375 6.390625 
Q 35.546875 2.25 31.03125 0.53125 
Q 26.515625 -1.171875 21.34375 -1.171875 
Q 12.796875 -1.171875 8.203125 3 
Q 3.609375 7.171875 3.609375 13.671875 
Q 3.609375 17.484375 5.34375 20.625 
Q 7.078125 23.78125 9.890625 25.6875 
Q 12.703125 27.59375 16.21875 28.5625 
Q 18.796875 29.25 24.03125 29.890625 
Q 34.671875 31.15625 39.703125 32.90625 
Q 39.75 34.71875 39.75 35.203125 
Q 39.75 40.578125 37.25 42.78125 
Q 33.890625 45.75 27.25 45.75 
Q 21.046875 45.75 18.09375 43.578125 
Q 15.140625 41.40625 13.71875 35.890625 
L 5.125 37.0625 
Q 6.296875 42.578125 8.984375 45.96875 
Q 11.671875 49.359375 16.75 51.1875 
Q 21.828125 53.03125 28.515625 53.03125 
Q 35.15625 53.03125 39.296875 51.46875 
Q 43.453125 49.90625 45.40625 47.53125 
Q 47.359375 45.171875 48.140625 41.546875 
Q 48.578125 39.3125 48.578125 33.453125 
L 48.578125 21.734375 
Q 48.578125 9.46875 49.140625 6.21875 
Q 49.703125 2.984375 51.375 0 
L 42.1875 0 
Q 40.828125 2.734375 40.4375 6.390625 
z
M 39.703125 26.03125 
Q 34.90625 24.078125 25.34375 22.703125 
Q 19.921875 21.921875 17.671875 20.9375 
Q 15.4375 19.96875 14.203125 18.09375 
Q 12.984375 16.21875 12.984375 13.921875 
Q 12.984375 10.40625 15.640625 8.0625 
Q 18.3125 5.71875 23.4375 5.71875 
Q 28.515625 5.71875 32.46875 7.9375 
Q 36.421875 10.15625 38.28125 14.015625 
Q 39.703125 17 39.703125 22.796875 
z
" id="ArialMT-97"/>
      <path d="M 6.640625 61.46875 
L 6.640625 71.578125 
L 15.4375 71.578125 
L 15.4375 61.46875 
z
M 6.640625 0 
L 6.640625 51.859375 
L 15.4375 51.859375 
L 15.4375 0 
z
" id="ArialMT-105"/>
      <path d="M 42.09375 16.703125 
L 51.171875 15.578125 
Q 49.03125 7.625 43.21875 3.21875 
Q 37.40625 -1.171875 28.375 -1.171875 
Q 17 -1.171875 10.328125 5.828125 
Q 3.65625 12.84375 3.65625 25.484375 
Q 3.65625 38.578125 10.390625 45.796875 
Q 17.140625 53.03125 27.875 53.03125 
Q 38.28125 53.03125 44.875 45.953125 
Q 51.46875 38.875 51.46875 26.03125 
Q 51.46875 25.25 51.421875 23.6875 
L 12.75 23.6875 
Q 13.234375 15.140625 17.578125 10.59375 
Q 21.921875 6.0625 28.421875 6.0625 
Q 33.25 6.0625 36.671875 8.59375 
Q 40.09375 11.140625 42.09375 16.703125 
z
M 13.234375 30.90625 
L 42.1875 30.90625 
Q 41.609375 37.453125 38.875 40.71875 
Q 34.671875 45.796875 27.984375 45.796875 
Q 21.921875 45.796875 17.796875 41.75 
Q 13.671875 37.703125 13.234375 30.90625 
z
" id="ArialMT-101"/>
      <path d="M 6.5 0 
L 6.5 51.859375 
L 14.40625 51.859375 
L 14.40625 44 
Q 17.4375 49.515625 20 51.265625 
Q 22.5625 53.03125 25.640625 53.03125 
Q 30.078125 53.03125 34.671875 50.203125 
L 31.640625 42.046875 
Q 28.421875 43.953125 25.203125 43.953125 
Q 22.3125 43.953125 20.015625 42.21875 
Q 17.71875 40.484375 16.75 37.40625 
Q 15.28125 32.71875 15.28125 27.15625 
L 15.28125 0 
z
" id="ArialMT-114"/>
      <path id="ArialMT-32"/>
      <path d="M 6.59375 0 
L 6.59375 51.859375 
L 14.453125 51.859375 
L 14.453125 44.578125 
Q 16.890625 48.390625 20.9375 50.703125 
Q 25 53.03125 30.171875 53.03125 
Q 35.9375 53.03125 39.625 50.640625 
Q 43.3125 48.25 44.828125 43.953125 
Q 50.984375 53.03125 60.84375 53.03125 
Q 68.5625 53.03125 72.703125 48.75 
Q 76.859375 44.484375 76.859375 35.59375 
L 76.859375 0 
L 68.109375 0 
L 68.109375 32.671875 
Q 68.109375 37.9375 67.25 40.25 
Q 66.40625 42.578125 64.15625 43.984375 
Q 61.921875 45.40625 58.890625 45.40625 
Q 53.421875 45.40625 49.796875 41.765625 
Q 46.1875 38.140625 46.1875 30.125 
L 46.1875 0 
L 37.40625 0 
L 37.40625 33.6875 
Q 37.40625 39.546875 35.25 42.46875 
Q 33.109375 45.40625 28.21875 45.40625 
Q 24.515625 45.40625 21.359375 43.453125 
Q 18.21875 41.5 16.796875 37.734375 
Q 15.375 33.984375 15.375 26.90625 
L 15.375 0 
z
" id="ArialMT-109"/>
      <path d="M 40.234375 0 
L 40.234375 6.546875 
Q 35.296875 -1.171875 25.734375 -1.171875 
Q 19.53125 -1.171875 14.328125 2.25 
Q 9.125 5.671875 6.265625 11.796875 
Q 3.421875 17.921875 3.421875 25.875 
Q 3.421875 33.640625 6 39.96875 
Q 8.59375 46.296875 13.765625 49.65625 
Q 18.953125 53.03125 25.34375 53.03125 
Q 30.03125 53.03125 33.6875 51.046875 
Q 37.359375 49.078125 39.65625 45.90625 
L 39.65625 71.578125 
L 48.390625 71.578125 
L 48.390625 0 
z
M 12.453125 25.875 
Q 12.453125 15.921875 16.640625 10.984375 
Q 20.84375 6.0625 26.5625 6.0625 
Q 32.328125 6.0625 36.34375 10.765625 
Q 40.375 15.484375 40.375 25.140625 
Q 40.375 35.796875 36.265625 40.765625 
Q 32.171875 45.75 26.171875 45.75 
Q 20.3125 45.75 16.375 40.96875 
Q 12.453125 36.1875 12.453125 25.875 
z
" id="ArialMT-100"/>
      <path d="M 6.203125 -19.96875 
L 5.21875 -11.71875 
Q 8.109375 -12.5 10.25 -12.5 
Q 13.1875 -12.5 14.9375 -11.515625 
Q 16.703125 -10.546875 17.828125 -8.796875 
Q 18.65625 -7.46875 20.515625 -2.25 
Q 20.75 -1.515625 21.296875 -0.09375 
L 1.609375 51.859375 
L 11.078125 51.859375 
L 21.875 21.828125 
Q 23.96875 16.109375 25.640625 9.8125 
Q 27.15625 15.875 29.25 21.625 
L 40.328125 51.859375 
L 49.125 51.859375 
L 29.390625 -0.875 
Q 26.21875 -9.421875 24.46875 -12.640625 
Q 22.125 -17 19.09375 -19.015625 
Q 16.0625 -21.046875 11.859375 -21.046875 
Q 9.328125 -21.046875 6.203125 -19.96875 
z
" id="ArialMT-121"/>
     </defs>
     <use xlink:href="#ArialMT-99"/>
     <use x="50" xlink:href="#ArialMT-111"/>
     <use x="105.615234" xlink:href="#ArialMT-110"/>
     <use x="161.230469" xlink:href="#ArialMT-116"/>
     <use x="189.013672" xlink:href="#ArialMT-97"/>
     <use x="244.628906" xlink:href="#ArialMT-105"/>
     <use x="266.845703" xlink:href="#ArialMT-110"/>
     <use x="322.460938" xlink:href="#ArialMT-101"/>
     <use x="378.076172" xlink:href="#ArialMT-114"/>
     <use x="411.376953" xlink:href="#ArialMT-32"/>
     <use x="439.160156" xlink:href="#ArialMT-109"/>
     <use x="522.460938" xlink:href="#ArialMT-111"/>
     <use x="578.076172" xlink:href="#ArialMT-100"/>
     <use x="633.691406" xlink:href="#ArialMT-101"/>
     <use x="689.306641" xlink:href="#ArialMT-32"/>
     <use x="717.089844" xlink:href="#ArialMT-97"/>
     <use x="772.705078" xlink:href="#ArialMT-110"/>
     <use x="828.320312" xlink:href="#ArialMT-121"/>
    </g>
   </g>
  </g>
  <g id="axes_2">
   <g id="patch_7">
    <path d="M 235.565217 320.4 
L 356.869565 320.4 
L 356.869565 43.2 
L 235.565217 43.2 
z
" style="fill:#ffffff;"/>
   </g>
   <g id="matplotlib.axis_3">
    <g id="xtick_3">
     <g id="line2d_49">
      <path clip-path="url(#p14857ee5a7)" d="M 268.648221 320.4 
L 268.648221 43.2 
" style="fill:none;stroke:#cccccc;stroke-linecap:round;stroke-width:0.8;"/>
     </g>
     <g id="line2d_50"/>
     <g id="text_8">
      <!-- $\mathdefault{10^{3}}$ -->
      <g style="fill:#262626;" transform="translate(260.798221 334.2125)scale(0.1 -0.1)">
       <use transform="translate(0 0.99375)" xlink:href="#ArialMT-49"/>
       <use transform="translate(55.615234 0.99375)" xlink:href="#ArialMT-48"/>
       <use transform="translate(112.972813 70.6875)scale(0.7)" xlink:href="#ArialMT-51"/>
      </g>
     </g>
    </g>
    <g id="xtick_4">
     <g id="line2d_51">
      <path clip-path="url(#p14857ee5a7)" d="M 323.786561 320.4 
L 323.786561 43.2 
" style="fill:none;stroke:#cccccc;stroke-linecap:round;stroke-width:0.8;"/>
     </g>
     <g id="line2d_52"/>
     <g id="text_9">
      <!-- $\mathdefault{10^{5}}$ -->
      <g style="fill:#262626;" transform="translate(315.936561 334.1125)scale(0.1 -0.1)">
       <use transform="translate(0 0.879688)" xlink:href="#ArialMT-49"/>
       <use transform="translate(55.615234 0.879688)" xlink:href="#ArialMT-48"/>
       <use transform="translate(112.972813 70.573438)scale(0.7)" xlink:href="#ArialMT-53"/>
      </g>
     </g>
    </g>
   </g>
   <g id="matplotlib.axis_4">
    <g id="ytick_36">
     <g id="line2d_53">
      <path clip-path="url(#p14857ee5a7)" d="M 235.565217 294.924708 
L 356.869565 294.924708 
" style="fill:none;stroke:#cccccc;stroke-linecap:round;stroke-width:0.8;"/>
     </g>
     <g id="line2d_54"/>
    </g>
    <g id="ytick_37">
     <g id="line2d_55">
      <path clip-path="url(#p14857ee5a7)" d="M 235.565217 223.315164 
L 356.869565 223.315164 
" style="fill:none;stroke:#cccccc;stroke-linecap:round;stroke-width:0.8;"/>
     </g>
     <g id="line2d_56"/>
    </g>
    <g id="ytick_38">
     <g id="line2d_57">
      <path clip-path="url(#p14857ee5a7)" d="M 235.565217 151.70562 
L 356.869565 151.70562 
" style="fill:none;stroke:#cccccc;stroke-linecap:round;stroke-width:0.8;"/>
     </g>
     <g id="line2d_58"/>
    </g>
    <g id="ytick_39">
     <g id="line2d_59">
      <path clip-path="url(#p14857ee5a7)" d="M 235.565217 80.096076 
L 356.869565 80.096076 
" style="fill:none;stroke:#cccccc;stroke-linecap:round;stroke-width:0.8;"/>
     </g>
     <g id="line2d_60"/>
    </g>
    <g id="ytick_40">
     <g id="line2d_61"/>
    </g>
    <g id="ytick_41">
     <g id="line2d_62"/>
    </g>
    <g id="ytick_42">
     <g id="line2d_63"/>
    </g>
    <g id="ytick_43">
     <g id="line2d_64"/>
    </g>
    <g id="ytick_44">
     <g id="line2d_65"/>
    </g>
    <g id="ytick_45">
     <g id="line2d_66"/>
    </g>
    <g id="ytick_46">
     <g id="line2d_67"/>
    </g>
    <g id="ytick_47">
     <g id="line2d_68"/>
    </g>
    <g id="ytick_48">
     <g id="line2d_69"/>
    </g>
    <g id="ytick_49">
     <g id="line2d_70"/>
    </g>
    <g id="ytick_50">
     <g id="line2d_71"/>
    </g>
    <g id="ytick_51">
     <g id="line2d_72"/>
    </g>
    <g id="ytick_52">
     <g id="line2d_73"/>
    </g>
    <g id="ytick_53">
     <g id="line2d_74"/>
    </g>
    <g id="ytick_54">
     <g id="line2d_75"/>
    </g>
    <g id="ytick_55">
     <g id="line2d_76"/>
    </g>
    <g id="ytick_56">
     <g id="line2d_77"/>
    </g>
    <g id="ytick_57">
     <g id="line2d_78"/>
    </g>
    <g id="ytick_58">
     <g id="line2d_79"/>
    </g>
    <g id="ytick_59">
     <g id="line2d_80"/>
    </g>
    <g id="ytick_60">
     <g id="line2d_81"/>
    </g>
    <g id="ytick_61">
     <g id="line2d_82"/>
    </g>
    <g id="ytick_62">
     <g id="line2d_83"/>
    </g>
    <g id="ytick_63">
     <g id="line2d_84"/>
    </g>
    <g id="ytick_64">
     <g id="line2d_85"/>
    </g>
    <g id="ytick_65">
     <g id="line2d_86"/>
    </g>
    <g id="ytick_66">
     <g id="line2d_87"/>
    </g>
    <g id="ytick_67">
     <g id="line2d_88"/>
    </g>
    <g id="ytick_68">
     <g id="line2d_89"/>
    </g>
    <g id="ytick_69">
     <g id="line2d_90"/>
    </g>
    <g id="ytick_70">
     <g id="line2d_91"/>
    </g>
   </g>
   <g id="line2d_92">
    <path clip-path="url(#p14857ee5a7)" d="M 241.079051 306.645464 
L 268.648221 279.407379 
L 296.217391 229.53246 
L 323.786561 163.456311 
L 351.355731 94.030593 
" style="fill:none;stroke:#1f77b4;stroke-linecap:round;stroke-width:1.5;"/>
    <g clip-path="url(#p14857ee5a7)">
     <use style="fill:#1f77b4;stroke:#1f77b4;" x="241.079051" xlink:href="#me2465921d8" y="306.645464"/>
     <use style="fill:#1f77b4;stroke:#1f77b4;" x="268.648221" xlink:href="#me2465921d8" y="279.407379"/>
     <use style="fill:#1f77b4;stroke:#1f77b4;" x="296.217391" xlink:href="#me2465921d8" y="229.53246"/>
     <use style="fill:#1f77b4;stroke:#1f77b4;" x="323.786561" xlink:href="#me2465921d8" y="163.456311"/>
     <use style="fill:#1f77b4;stroke:#1f77b4;" x="351.355731" xlink:href="#me2465921d8" y="94.030593"/>
    </g>
   </g>
   <g id="line2d_93">
    <path clip-path="url(#p14857ee5a7)" d="M 241.079051 301.020699 
L 268.648221 275.927439 
L 296.217391 226.433289 
L 323.786561 159.68569 
L 351.355731 78.203678 
" style="fill:none;stroke:#ff7f0e;stroke-linecap:round;stroke-width:1.5;"/>
    <g clip-path="url(#p14857ee5a7)">
     <use style="fill:#ff7f0e;stroke:#ff7f0e;" x="241.079051" xlink:href="#mdf98d0a9d0" y="301.020699"/>
     <use style="fill:#ff7f0e;stroke:#ff7f0e;" x="268.648221" xlink:href="#mdf98d0a9d0" y="275.927439"/>
     <use style="fill:#ff7f0e;stroke:#ff7f0e;" x="296.217391" xlink:href="#mdf98d0a9d0" y="226.433289"/>
     <use style="fill:#ff7f0e;stroke:#ff7f0e;" x="323.786561" xlink:href="#mdf98d0a9d0" y="159.68569"/>
     <use style="fill:#ff7f0e;stroke:#ff7f0e;" x="351.355731" xlink:href="#mdf98d0a9d0" y="78.203678"/>
    </g>
   </g>
   <g id="line2d_94">
    <path clip-path="url(#p14857ee5a7)" d="M 241.079051 295.712083 
L 268.648221 274.139518 
L 296.217391 226.145834 
L 323.786561 160.539429 
L 351.355731 61.662496 
" style="fill:none;stroke:#2ca02c;stroke-linecap:round;stroke-width:1.5;"/>
    <g clip-path="url(#p14857ee5a7)">
     <use style="fill:#2ca02c;stroke:#2ca02c;" x="241.079051" xlink:href="#m3e5db1f63d" y="295.712083"/>
     <use style="fill:#2ca02c;stroke:#2ca02c;" x="268.648221" xlink:href="#m3e5db1f63d" y="274.139518"/>
     <use style="fill:#2ca02c;stroke:#2ca02c;" x="296.217391" xlink:href="#m3e5db1f63d" y="226.145834"/>
     <use style="fill:#2ca02c;stroke:#2ca02c;" x="323.786561" xlink:href="#m3e5db1f63d" y="160.539429"/>
     <use style="fill:#2ca02c;stroke:#2ca02c;" x="351.355731" xlink:href="#m3e5db1f63d" y="61.662496"/>
    </g>
   </g>
   <g id="line2d_95">
    <path clip-path="url(#p14857ee5a7)" d="M 241.079051 288.285025 
L 268.648221 271.162367 
L 296.217391 225.3588 
L 323.786561 157.11314 
L 351.355731 79.412364 
" style="fill:none;stroke:#d62728;stroke-linecap:round;stroke-width:1.5;"/>
    <g clip-path="url(#p14857ee5a7)">
     <use style="fill:#d62728;stroke:#d62728;" x="241.079051" xlink:href="#m53a85ab5d6" y="288.285025"/>
     <use style="fill:#d62728;stroke:#d62728;" x="268.648221" xlink:href="#m53a85ab5d6" y="271.162367"/>
     <use style="fill:#d62728;stroke:#d62728;" x="296.217391" xlink:href="#m53a85ab5d6" y="225.3588"/>
     <use style="fill:#d62728;stroke:#d62728;" x="323.786561" xlink:href="#m53a85ab5d6" y="157.11314"/>
     <use style="fill:#d62728;stroke:#d62728;" x="351.355731" xlink:href="#m53a85ab5d6" y="79.412364"/>
    </g>
   </g>
   <g id="line2d_96">
    <path clip-path="url(#p14857ee5a7)" d="M 241.079051 283.779425 
L 268.648221 269.388785 
L 296.217391 226.498678 
L 323.786561 157.265607 
L 351.355731 85.009045 
" style="fill:none;stroke:#9467bd;stroke-linecap:round;stroke-width:1.5;"/>
    <g clip-path="url(#p14857ee5a7)">
     <use style="fill:#9467bd;stroke:#9467bd;" x="241.079051" xlink:href="#m38f8d245c5" y="283.779425"/>
     <use style="fill:#9467bd;stroke:#9467bd;" x="268.648221" xlink:href="#m38f8d245c5" y="269.388785"/>
     <use style="fill:#9467bd;stroke:#9467bd;" x="296.217391" xlink:href="#m38f8d245c5" y="226.498678"/>
     <use style="fill:#9467bd;stroke:#9467bd;" x="323.786561" xlink:href="#m38f8d245c5" y="157.265607"/>
     <use style="fill:#9467bd;stroke:#9467bd;" x="351.355731" xlink:href="#m38f8d245c5" y="85.009045"/>
    </g>
   </g>
   <g id="patch_8">
    <path d="M 235.565217 320.4 
L 235.565217 43.2 
" style="fill:none;stroke:#cccccc;stroke-linecap:square;stroke-linejoin:miter;"/>
   </g>
   <g id="patch_9">
    <path d="M 356.869565 320.4 
L 356.869565 43.2 
" style="fill:none;stroke:#cccccc;stroke-linecap:square;stroke-linejoin:miter;"/>
   </g>
   <g id="patch_10">
    <path d="M 235.565217 320.4 
L 356.869565 320.4 
" style="fill:none;stroke:#cccccc;stroke-linecap:square;stroke-linejoin:miter;"/>
   </g>
   <g id="patch_11">
    <path d="M 235.565217 43.2 
L 356.869565 43.2 
" style="fill:none;stroke:#cccccc;stroke-linecap:square;stroke-linejoin:miter;"/>
   </g>
   <g id="text_10">
    <!-- container mode exact -->
    <g style="fill:#262626;" transform="translate(238.855516 37.2)scale(0.12 -0.12)">
     <defs>
      <path d="M 0.734375 0 
L 19.671875 26.953125 
L 2.15625 51.859375 
L 13.140625 51.859375 
L 21.09375 39.703125 
Q 23.34375 36.234375 24.703125 33.890625 
Q 26.859375 37.109375 28.65625 39.59375 
L 37.40625 51.859375 
L 47.90625 51.859375 
L 29.984375 27.4375 
L 49.265625 0 
L 38.484375 0 
L 27.828125 16.109375 
L 25 20.453125 
L 11.375 0 
z
" id="ArialMT-120"/>
     </defs>
     <use xlink:href="#ArialMT-99"/>
     <use x="50" xlink:href="#ArialMT-111"/>
     <use x="105.615234" xlink:href="#ArialMT-110"/>
     <use x="161.230469" xlink:href="#ArialMT-116"/>
     <use x="189.013672" xlink:href="#ArialMT-97"/>
     <use x="244.628906" xlink:href="#ArialMT-105"/>
     <use x="266.845703" xlink:href="#ArialMT-110"/>
     <use x="322.460938" xlink:href="#ArialMT-101"/>
     <use x="378.076172" xlink:href="#ArialMT-114"/>
     <use x="411.376953" xlink:href="#ArialMT-32"/>
     <use x="439.160156" xlink:href="#ArialMT-109"/>
     <use x="522.460938" xlink:href="#ArialMT-111"/>
     <use x="578.076172" xlink:href="#ArialMT-100"/>
     <use x="633.691406" xlink:href="#ArialMT-101"/>
     <use x="689.306641" xlink:href="#ArialMT-32"/>
     <use x="717.089844" xlink:href="#ArialMT-101"/>
     <use x="772.705078" xlink:href="#ArialMT-120"/>
     <use x="822.705078" xlink:href="#ArialMT-97"/>
     <use x="878.320312" xlink:href="#ArialMT-99"/>
     <use x="928.320312" xlink:href="#ArialMT-116"/>
    </g>
   </g>
  </g>
  <g id="axes_3">
   <g id="patch_12">
    <path d="M 381.130435 320.4 
L 502.434783 320.4 
L 502.434783 43.2 
L 381.130435 43.2 
z
" style="fill:#ffffff;"/>
   </g>
   <g id="matplotlib.axis_5">
    <g id="xtick_5">
     <g id="line2d_97">
      <path clip-path="url(#p7dfc1a5d50)" d="M 414.213439 320.4 
L 414.213439 43.2 
" style="fill:none;stroke:#cccccc;stroke-linecap:round;stroke-width:0.8;"/>
     </g>
     <g id="line2d_98"/>
     <g id="text_11">
      <!-- $\mathdefault{10^{3}}$ -->
      <g style="fill:#262626;" transform="translate(406.363439 334.2125)scale(0.1 -0.1)">
       <use transform="translate(0 0.99375)" xlink:href="#ArialMT-49"/>
       <use transform="translate(55.615234 0.99375)" xlink:href="#ArialMT-48"/>
       <use transform="translate(112.972813 70.6875)scale(0.7)" xlink:href="#ArialMT-51"/>
      </g>
     </g>
    </g>
    <g id="xtick_6">
     <g id="line2d_99">
      <path clip-path="url(#p7dfc1a5d50)" d="M 469.351779 320.4 
L 469.351779 43.2 
" style="fill:none;stroke:#cccccc;stroke-linecap:round;stroke-width:0.8;"/>
     </g>
     <g id="line2d_100"/>
     <g id="text_12">
      <!-- $\mathdefault{10^{5}}$ -->
      <g style="fill:#262626;" transform="translate(461.501779 334.1125)scale(0.1 -0.1)">
       <use transform="translate(0 0.879688)" xlink:href="#ArialMT-49"/>
       <use transform="translate(55.615234 0.879688)" xlink:href="#ArialMT-48"/>
       <use transform="translate(112.972813 70.573438)scale(0.7)" xlink:href="#ArialMT-53"/>
      </g>
     </g>
    </g>
   </g>
   <g id="matplotlib.axis_6">
    <g id="ytick_71">
     <g id="line2d_101">
      <path clip-path="url(#p7dfc1a5d50)" d="M 381.130435 294.924708 
L 502.434783 294.924708 
" style="fill:none;stroke:#cccccc;stroke-linecap:round;stroke-width:0.8;"/>
     </g>
     <g id="line2d_102"/>
    </g>
    <g id="ytick_72">
     <g id="line2d_103">
      <path clip-path="url(#p7dfc1a5d50)" d="M 381.130435 223.315164 
L 502.434783 223.315164 
" style="fill:none;stroke:#cccccc;stroke-linecap:round;stroke-width:0.8;"/>
     </g>
     <g id="line2d_104"/>
    </g>
    <g id="ytick_73">
     <g id="line2d_105">
      <path clip-path="url(#p7dfc1a5d50)" d="M 381.130435 151.70562 
L 502.434783 151.70562 
" style="fill:none;stroke:#cccccc;stroke-linecap:round;stroke-width:0.8;"/>
     </g>
     <g id="line2d_106"/>
    </g>
    <g id="ytick_74">
     <g id="line2d_107">
      <path clip-path="url(#p7dfc1a5d50)" d="M 381.130435 80.096076 
L 502.434783 80.096076 
" style="fill:none;stroke:#cccccc;stroke-linecap:round;stroke-width:0.8;"/>
     </g>
     <g id="line2d_108"/>
    </g>
    <g id="ytick_75">
     <g id="line2d_109"/>
    </g>
    <g id="ytick_76">
     <g id="line2d_110"/>
    </g>
    <g id="ytick_77">
     <g id="line2d_111"/>
    </g>
    <g id="ytick_78">
     <g id="line2d_112"/>
    </g>
    <g id="ytick_79">
     <g id="line2d_113"/>
    </g>
    <g id="ytick_80">
     <g id="line2d_114"/>
    </g>
    <g id="ytick_81">
     <g id="line2d_115"/>
    </g>
    <g id="ytick_82">
     <g id="line2d_116"/>
    </g>
    <g id="ytick_83">
     <g id="line2d_117"/>
    </g>
    <g id="ytick_84">
     <g id="line2d_118"/>
    </g>
    <g id="ytick_85">
     <g id="line2d_119"/>
    </g>
    <g id="ytick_86">
     <g id="line2d_120"/>
    </g>
    <g id="ytick_87">
     <g id="line2d_121"/>
    </g>
    <g id="ytick_88">
     <g id="line2d_122"/>
    </g>
    <g id="ytick_89">
     <g id="line2d_123"/>
    </g>
    <g id="ytick_90">
     <g id="line2d_124"/>
    </g>
    <g id="ytick_91">
     <g id="line2d_125"/>
    </g>
    <g id="ytick_92">
     <g id="line2d_126"/>
    </g>
    <g id="ytick_93">
     <g id="line2d_127"/>
    </g>
    <g id="ytick_94">
     <g id="line2d_128"/>
    </g>
    <g id="ytick_95">
     <g id="line2d_129"/>
    </g>
    <g id="ytick_96">
     <g id="line2d_130"/>
    </g>
    <g id="ytick_97">
     <g id="line2d_131"/>
    </g>
    <g id="ytick_98">
     <g id="line2d_132"/>
    </g>
    <g id="ytick_99">
     <g id="line2d_133"/>
    </g>
    <g id="ytick_100">
     <g id="line2d_134"/>
    </g>
    <g id="ytick_101">
     <g id="line2d_135"/>
    </g>
    <g id="ytick_102">
     <g id="line2d_136"/>
    </g>
    <g id="ytick_103">
     <g id="line2d_137"/>
    </g>
    <g id="ytick_104">
     <g id="line2d_138"/>
    </g>
    <g id="ytick_105">
     <g id="line2d_139"/>
    </g>
   </g>
   <g id="line2d_140">
    <path clip-path="url(#p7dfc1a5d50)" d="M 386.644269 305.357786 
L 414.213439 279.032001 
L 441.782609 228.604491 
L 469.351779 165.790726 
L 496.920949 96.513536 
" style="fill:none;stroke:#1f77b4;stroke-linecap:round;stroke-width:1.5;"/>
    <g clip-path="url(#p7dfc1a5d50)">
     <use style="fill:#1f77b4;stroke:#1f77b4;" x="386.644269" xlink:href="#me2465921d8" y="305.357786"/>
     <use style="fill:#1f77b4;stroke:#1f77b4;" x="414.213439" xlink:href="#me2465921d8" y="279.032001"/>
     <use style="fill:#1f77b4;stroke:#1f77b4;" x="441.782609" xlink:href="#me2465921d8" y="228.604491"/>
     <use style="fill:#1f77b4;stroke:#1f77b4;" x="469.351779" xlink:href="#me2465921d8" y="165.790726"/>
     <use style="fill:#1f77b4;stroke:#1f77b4;" x="496.920949" xlink:href="#me2465921d8" y="96.513536"/>
    </g>
   </g>
   <g id="line2d_141">
    <path clip-path="url(#p7dfc1a5d50)" d="M 386.644269 297.687326 
L 414.213439 273.259429 
L 441.782609 225.041589 
L 469.351779 161.821926 
L 496.920949 86.489078 
" style="fill:none;stroke:#ff7f0e;stroke-linecap:round;stroke-width:1.5;"/>
    <g clip-path="url(#p7dfc1a5d50)">
     <use style="fill:#ff7f0e;stroke:#ff7f0e;" x="386.644269" xlink:href="#mdf98d0a9d0" y="297.687326"/>
     <use style="fill:#ff7f0e;stroke:#ff7f0e;" x="414.213439" xlink:href="#mdf98d0a9d0" y="273.259429"/>
     <use style="fill:#ff7f0e;stroke:#ff7f0e;" x="441.782609" xlink:href="#mdf98d0a9d0" y="225.041589"/>
     <use style="fill:#ff7f0e;stroke:#ff7f0e;" x="469.351779" xlink:href="#mdf98d0a9d0" y="161.821926"/>
     <use style="fill:#ff7f0e;stroke:#ff7f0e;" x="496.920949" xlink:href="#mdf98d0a9d0" y="86.489078"/>
    </g>
   </g>
   <g id="line2d_142">
    <path clip-path="url(#p7dfc1a5d50)" d="M 386.644269 290.959091 
L 414.213439 270.418116 
L 441.782609 224.756885 
L 469.351779 161.036694 
L 496.920949 86.225265 
" style="fill:none;stroke:#2ca02c;stroke-linecap:round;stroke-width:1.5;"/>
    <g clip-path="url(#p7dfc1a5d50)">
     <use style="fill:#2ca02c;stroke:#2ca02c;" x="386.644269" xlink:href="#m3e5db1f63d" y="290.959091"/>
     <use style="fill:#2ca02c;stroke:#2ca02c;" x="414.213439" xlink:href="#m3e5db1f63d" y="270.418116"/>
     <use style="fill:#2ca02c;stroke:#2ca02c;" x="441.782609" xlink:href="#m3e5db1f63d" y="224.756885"/>
     <use style="fill:#2ca02c;stroke:#2ca02c;" x="469.351779" xlink:href="#m3e5db1f63d" y="161.036694"/>
     <use style="fill:#2ca02c;stroke:#2ca02c;" x="496.920949" xlink:href="#m3e5db1f63d" y="86.225265"/>
    </g>
   </g>
   <g id="line2d_143">
    <path clip-path="url(#p7dfc1a5d50)" d="M 386.644269 283.198107 
L 414.213439 267.375676 
L 441.782609 223.150772 
L 469.351779 159.806112 
L 496.920949 80.65625 
" style="fill:none;stroke:#d62728;stroke-linecap:round;stroke-width:1.5;"/>
    <g clip-path="url(#p7dfc1a5d50)">
     <use style="fill:#d62728;stroke:#d62728;" x="386.644269" xlink:href="#m53a85ab5d6" y="283.198107"/>
     <use style="fill:#d62728;stroke:#d62728;" x="414.213439" xlink:href="#m53a85ab5d6" y="267.375676"/>
     <use style="fill:#d62728;stroke:#d62728;" x="441.782609" xlink:href="#m53a85ab5d6" y="223.150772"/>
     <use style="fill:#d62728;stroke:#d62728;" x="469.351779" xlink:href="#m53a85ab5d6" y="159.806112"/>
     <use style="fill:#d62728;stroke:#d62728;" x="496.920949" xlink:href="#m53a85ab5d6" y="80.65625"/>
    </g>
   </g>
   <g id="line2d_144">
    <path clip-path="url(#p7dfc1a5d50)" d="M 386.644269 277.968349 
L 414.213439 264.52252 
L 441.782609 222.965709 
L 469.351779 159.823872 
L 496.920949 55.8 
" style="fill:none;stroke:#9467bd;stroke-linecap:round;stroke-width:1.5;"/>
    <g clip-path="url(#p7dfc1a5d50)">
     <use style="fill:#9467bd;stroke:#9467bd;" x="386.644269" xlink:href="#m38f8d245c5" y="277.968349"/>
     <use style="fill:#9467bd;stroke:#9467bd;" x="414.213439" xlink:href="#m38f8d245c5" y="264.52252"/>
     <use style="fill:#9467bd;stroke:#9467bd;" x="441.782609" xlink:href="#m38f8d245c5" y="222.965709"/>
     <use style="fill:#9467bd;stroke:#9467bd;" x="469.351779" xlink:href="#m38f8d245c5" y="159.823872"/>
     <use style="fill:#9467bd;stroke:#9467bd;" x="496.920949" xlink:href="#m38f8d245c5" y="55.8"/>
    </g>
   </g>
   <g id="patch_13">
    <path d="M 381.130435 320.4 
L 381.130435 43.2 
" style="fill:none;stroke:#cccccc;stroke-linecap:square;stroke-linejoin:miter;"/>
   </g>
   <g id="patch_14">
    <path d="M 502.434783 320.4 
L 502.434783 43.2 
" style="fill:none;stroke:#cccccc;stroke-linecap:square;stroke-linejoin:miter;"/>
   </g>
   <g id="patch_15">
    <path d="M 381.130435 320.4 
L 502.434783 320.4 
" style="fill:none;stroke:#cccccc;stroke-linecap:square;stroke-linejoin:miter;"/>
   </g>
   <g id="patch_16">
    <path d="M 381.130435 43.2 
L 502.434783 43.2 
" style="fill:none;stroke:#cccccc;stroke-linecap:square;stroke-linejoin:miter;"/>
   </g>
   <g id="text_13">
    <!-- container mode ordered -->
    <g style="fill:#262626;" transform="translate(378.082296 37.2)scale(0.12 -0.12)">
     <use xlink:href="#ArialMT-99"/>
     <use x="50" xlink:href="#ArialMT-111"/>
     <use x="105.615234" xlink:href="#ArialMT-110"/>
     <use x="161.230469" xlink:href="#ArialMT-116"/>
     <use x="189.013672" xlink:href="#ArialMT-97"/>
     <use x="244.628906" xlink:href="#ArialMT-105"/>
     <use x="266.845703" xlink:href="#ArialMT-110"/>
     <use x="322.460938" xlink:href="#ArialMT-101"/>
     <use x="378.076172" xlink:href="#ArialMT-114"/>
     <use x="411.376953" xlink:href="#ArialMT-32"/>
     <use x="439.160156" xlink:href="#ArialMT-109"/>
     <use x="522.460938" xlink:href="#ArialMT-111"/>
     <use x="578.076172" xlink:href="#ArialMT-100"/>
     <use x="633.691406" xlink:href="#ArialMT-101"/>
     <use x="689.306641" xlink:href="#ArialMT-32"/>
     <use x="717.089844" xlink:href="#ArialMT-111"/>
     <use x="772.705078" xlink:href="#ArialMT-114"/>
     <use x="806.005859" xlink:href="#ArialMT-100"/>
     <use x="861.621094" xlink:href="#ArialMT-101"/>
     <use x="917.236328" xlink:href="#ArialMT-114"/>
     <use x="950.537109" xlink:href="#ArialMT-101"/>
     <use x="1006.152344" xlink:href="#ArialMT-100"/>
    </g>
   </g>
  </g>
  <g id="axes_4">
   <g id="patch_17">
    <path d="M 526.695652 320.4 
L 648 320.4 
L 648 43.2 
L 526.695652 43.2 
z
" style="fill:#ffffff;"/>
   </g>
   <g id="matplotlib.axis_7">
    <g id="xtick_7">
     <g id="line2d_145">
      <path clip-path="url(#paf53c6b754)" d="M 559.778656 320.4 
L 559.778656 43.2 
" style="fill:none;stroke:#cccccc;stroke-linecap:round;stroke-width:0.8;"/>
     </g>
     <g id="line2d_146"/>
     <g id="text_14">
      <!-- $\mathdefault{10^{3}}$ -->
      <g style="fill:#262626;" transform="translate(551.928656 334.2125)scale(0.1 -0.1)">
       <use transform="translate(0 0.99375)" xlink:href="#ArialMT-49"/>
       <use transform="translate(55.615234 0.99375)" xlink:href="#ArialMT-48"/>
       <use transform="translate(112.972813 70.6875)scale(0.7)" xlink:href="#ArialMT-51"/>
      </g>
     </g>
    </g>
    <g id="xtick_8">
     <g id="line2d_147">
      <path clip-path="url(#paf53c6b754)" d="M 614.916996 320.4 
L 614.916996 43.2 
" style="fill:none;stroke:#cccccc;stroke-linecap:round;stroke-width:0.8;"/>
     </g>
     <g id="line2d_148"/>
     <g id="text_15">
      <!-- $\mathdefault{10^{5}}$ -->
      <g style="fill:#262626;" transform="translate(607.066996 334.1125)scale(0.1 -0.1)">
       <use transform="translate(0 0.879688)" xlink:href="#ArialMT-49"/>
       <use transform="translate(55.615234 0.879688)" xlink:href="#ArialMT-48"/>
       <use transform="translate(112.972813 70.573438)scale(0.7)" xlink:href="#ArialMT-53"/>
      </g>
     </g>
    </g>
   </g>
   <g id="matplotlib.axis_8">
    <g id="ytick_106">
     <g id="line2d_149">
      <path clip-path="url(#paf53c6b754)" d="M 526.695652 294.924708 
L 648 294.924708 
" style="fill:none;stroke:#cccccc;stroke-linecap:round;stroke-width:0.8;"/>
     </g>
     <g id="line2d_150"/>
    </g>
    <g id="ytick_107">
     <g id="line2d_151">
      <path clip-path="url(#paf53c6b754)" d="M 526.695652 223.315164 
L 648 223.315164 
" style="fill:none;stroke:#cccccc;stroke-linecap:round;stroke-width:0.8;"/>
     </g>
     <g id="line2d_152"/>
    </g>
    <g id="ytick_108">
     <g id="line2d_153">
      <path clip-path="url(#paf53c6b754)" d="M 526.695652 151.70562 
L 648 151.70562 
" style="fill:none;stroke:#cccccc;stroke-linecap:round;stroke-width:0.8;"/>
     </g>
     <g id="line2d_154"/>
    </g>
    <g id="ytick_109">
     <g id="line2d_155">
      <path clip-path="url(#paf53c6b754)" d="M 526.695652 80.096076 
L 648 80.096076 
" style="fill:none;stroke:#cccccc;stroke-linecap:round;stroke-width:0.8;"/>
     </g>
     <g id="line2d_156"/>
    </g>
    <g id="ytick_110">
     <g id="line2d_157"/>
    </g>
    <g id="ytick_111">
     <g id="line2d_158"/>
    </g>
    <g id="ytick_112">
     <g id="line2d_159"/>
    </g>
    <g id="ytick_113">
     <g id="line2d_160"/>
    </g>
    <g id="ytick_114">
     <g id="line2d_161"/>
    </g>
    <g id="ytick_115">
     <g id="line2d_162"/>
    </g>
    <g id="ytick_116">
     <g id="line2d_163"/>
    </g>
    <g id="ytick_117">
     <g id="line2d_164"/>
    </g>
    <g id="ytick_118">
     <g id="line2d_165"/>
    </g>
    <g id="ytick_119">
     <g id="line2d_166"/>
    </g>
    <g id="ytick_120">
     <g id="line2d_167"/>
    </g>
    <g id="ytick_121">
     <g id="line2d_168"/>
    </g>
    <g id="ytick_122">
     <g id="line2d_169"/>
    </g>
    <g id="ytick_123">
     <g id="line2d_170"/>
    </g>
    <g id="ytick_124">
     <g id="line2d_171"/>
    </g>
    <g id="ytick_125">
     <g id="line2d_172"/>
    </g>
    <g id="ytick_126">
     <g id="line2d_173"/>
    </g>
    <g id="ytick_127">
     <g id="line2d_174"/>
    </g>
    <g id="ytick_128">
     <g id="line2d_175"/>
    </g>
    <g id="ytick_129">
     <g id="line2d_176"/>
    </g>
    <g id="ytick_130">
     <g id="line2d_177"/>
    </g>
    <g id="ytick_131">
     <g id="line2d_178"/>
    </g>
    <g id="ytick_132">
     <g id="line2d_179"/>
    </g>
    <g id="ytick_133">
     <g id="line2d_180"/>
    </g>
    <g id="ytick_134">
     <g id="line2d_181"/>
    </g>
    <g id="ytick_135">
     <g id="line2d_182"/>
    </g>
    <g id="ytick_136">
     <g id="line2d_183"/>
    </g>
    <g id="ytick_137">
     <g id="line2d_184"/>
    </g>
    <g id="ytick_138">
     <g id="line2d_185"/>
    </g>
    <g id="ytick_139">
     <g id="line2d_186"/>
    </g>
    <g id="ytick_140">
     <g id="line2d_187"/>
    </g>
   </g>
   <g id="line2d_188">
    <path clip-path="url(#paf53c6b754)" d="M 532.209486 307.8 
L 559.778656 281.456072 
L 587.347826 229.906929 
L 614.916996 167.434419 
L 642.486166 93.400058 
" style="fill:none;stroke:#1f77b4;stroke-linecap:round;stroke-width:1.5;"/>
    <g clip-path="url(#paf53c6b754)">
     <use style="fill:#1f77b4;stroke:#1f77b4;" x="532.209486" xlink:href="#me2465921d8" y="307.8"/>
     <use style="fill:#1f77b4;stroke:#1f77b4;" x="559.778656" xlink:href="#me2465921d8" y="281.456072"/>
     <use style="fill:#1f77b4;stroke:#1f77b4;" x="587.347826" xlink:href="#me2465921d8" y="229.906929"/>
     <use style="fill:#1f77b4;stroke:#1f77b4;" x="614.916996" xlink:href="#me2465921d8" y="167.434419"/>
     <use style="fill:#1f77b4;stroke:#1f77b4;" x="642.486166" xlink:href="#me2465921d8" y="93.400058"/>
    </g>
   </g>
   <g id="line2d_189">
    <path clip-path="url(#paf53c6b754)" d="M 532.209486 299.687653 
L 559.778656 276.011972 
L 587.347826 226.227693 
L 614.916996 163.925413 
L 642.486166 79.438022 
" style="fill:none;stroke:#ff7f0e;stroke-linecap:round;stroke-width:1.5;"/>
    <g clip-path="url(#paf53c6b754)">
     <use style="fill:#ff7f0e;stroke:#ff7f0e;" x="532.209486" xlink:href="#mdf98d0a9d0" y="299.687653"/>
     <use style="fill:#ff7f0e;stroke:#ff7f0e;" x="559.778656" xlink:href="#mdf98d0a9d0" y="276.011972"/>
     <use style="fill:#ff7f0e;stroke:#ff7f0e;" x="587.347826" xlink:href="#mdf98d0a9d0" y="226.227693"/>
     <use style="fill:#ff7f0e;stroke:#ff7f0e;" x="614.916996" xlink:href="#mdf98d0a9d0" y="163.925413"/>
     <use style="fill:#ff7f0e;stroke:#ff7f0e;" x="642.486166" xlink:href="#mdf98d0a9d0" y="79.438022"/>
    </g>
   </g>
   <g id="line2d_190">
    <path clip-path="url(#paf53c6b754)" d="M 532.209486 292.995431 
L 559.778656 273.058636 
L 587.347826 225.262634 
L 614.916996 163.139375 
L 642.486166 71.559596 
" style="fill:none;stroke:#2ca02c;stroke-linecap:round;stroke-width:1.5;"/>
    <g clip-path="url(#paf53c6b754)">
     <use style="fill:#2ca02c;stroke:#2ca02c;" x="532.209486" xlink:href="#m3e5db1f63d" y="292.995431"/>
     <use style="fill:#2ca02c;stroke:#2ca02c;" x="559.778656" xlink:href="#m3e5db1f63d" y="273.058636"/>
     <use style="fill:#2ca02c;stroke:#2ca02c;" x="587.347826" xlink:href="#m3e5db1f63d" y="225.262634"/>
     <use style="fill:#2ca02c;stroke:#2ca02c;" x="614.916996" xlink:href="#m3e5db1f63d" y="163.139375"/>
     <use style="fill:#2ca02c;stroke:#2ca02c;" x="642.486166" xlink:href="#m3e5db1f63d" y="71.559596"/>
    </g>
   </g>
   <g id="line2d_191">
    <path clip-path="url(#paf53c6b754)" d="M 532.209486 284.505006 
L 559.778656 269.334105 
L 587.347826 223.832589 
L 614.916996 162.003719 
L 642.486166 73.472927 
" style="fill:none;stroke:#d62728;stroke-linecap:round;stroke-width:1.5;"/>
    <g clip-path="url(#paf53c6b754)">
     <use style="fill:#d62728;stroke:#d62728;" x="532.209486" xlink:href="#m53a85ab5d6" y="284.505006"/>
     <use style="fill:#d62728;stroke:#d62728;" x="559.778656" xlink:href="#m53a85ab5d6" y="269.334105"/>
     <use style="fill:#d62728;stroke:#d62728;" x="587.347826" xlink:href="#m53a85ab5d6" y="223.832589"/>
     <use style="fill:#d62728;stroke:#d62728;" x="614.916996" xlink:href="#m53a85ab5d6" y="162.003719"/>
     <use style="fill:#d62728;stroke:#d62728;" x="642.486166" xlink:href="#m53a85ab5d6" y="73.472927"/>
    </g>
   </g>
   <g id="line2d_192">
    <path clip-path="url(#paf53c6b754)" d="M 532.209486 279.539838 
L 559.778656 266.89212 
L 587.347826 223.215804 
L 614.916996 160.116354 
L 642.486166 76.06477 
" style="fill:none;stroke:#9467bd;stroke-linecap:round;stroke-width:1.5;"/>
    <g clip-path="url(#paf53c6b754)">
     <use style="fill:#9467bd;stroke:#9467bd;" x="532.209486" xlink:href="#m38f8d245c5" y="279.539838"/>
     <use style="fill:#9467bd;stroke:#9467bd;" x="559.778656" xlink:href="#m38f8d245c5" y="266.89212"/>
     <use style="fill:#9467bd;stroke:#9467bd;" x="587.347826" xlink:href="#m38f8d245c5" y="223.215804"/>
     <use style="fill:#9467bd;stroke:#9467bd;" x="614.916996" xlink:href="#m38f8d245c5" y="160.116354"/>
     <use style="fill:#9467bd;stroke:#9467bd;" x="642.486166" xlink:href="#m38f8d245c5" y="76.06477"/>
    </g>
   </g>
   <g id="patch_18">
    <path d="M 526.695652 320.4 
L 526.695652 43.2 
" style="fill:none;stroke:#cccccc;stroke-linecap:square;stroke-linejoin:miter;"/>
   </g>
   <g id="patch_19">
    <path d="M 648 320.4 
L 648 43.2 
" style="fill:none;stroke:#cccccc;stroke-linecap:square;stroke-linejoin:miter;"/>
   </g>
   <g id="patch_20">
    <path d="M 526.695652 320.4 
L 648 320.4 
" style="fill:none;stroke:#cccccc;stroke-linecap:square;stroke-linejoin:miter;"/>
   </g>
   <g id="patch_21">
    <path d="M 526.695652 43.2 
L 648 43.2 
" style="fill:none;stroke:#cccccc;stroke-linecap:square;stroke-linejoin:miter;"/>
   </g>
   <g id="text_16">
    <!-- container mode unordered -->
    <g style="fill:#262626;" transform="translate(516.974389 37.2)scale(0.12 -0.12)">
     <defs>
      <path d="M 40.578125 0 
L 40.578125 7.625 
Q 34.515625 -1.171875 24.125 -1.171875 
Q 19.53125 -1.171875 15.546875 0.578125 
Q 11.578125 2.34375 9.640625 5 
Q 7.71875 7.671875 6.9375 11.53125 
Q 6.390625 14.109375 6.390625 19.734375 
L 6.390625 51.859375 
L 15.1875 51.859375 
L 15.1875 23.09375 
Q 15.1875 16.21875 15.71875 13.8125 
Q 16.546875 10.359375 19.234375 8.375 
Q 21.921875 6.390625 25.875 6.390625 
Q 29.828125 6.390625 33.296875 8.421875 
Q 36.765625 10.453125 38.203125 13.9375 
Q 39.65625 17.4375 39.65625 24.078125 
L 39.65625 51.859375 
L 48.4375 51.859375 
L 48.4375 0 
z
" id="ArialMT-117"/>
     </defs>
     <use xlink:href="#ArialMT-99"/>
     <use x="50" xlink:href="#ArialMT-111"/>
     <use x="105.615234" xlink:href="#ArialMT-110"/>
     <use x="161.230469" xlink:href="#ArialMT-116"/>
     <use x="189.013672" xlink:href="#ArialMT-97"/>
     <use x="244.628906" xlink:href="#ArialMT-105"/>
     <use x="266.845703" xlink:href="#ArialMT-110"/>
     <use x="322.460938" xlink:href="#ArialMT-101"/>
     <use x="378.076172" xlink:href="#ArialMT-114"/>
     <use x="411.376953" xlink:href="#ArialMT-32"/>
     <use x="439.160156" xlink:href="#ArialMT-109"/>
     <use x="522.460938" xlink:href="#ArialMT-111"/>
     <use x="578.076172" xlink:href="#ArialMT-100"/>
     <use x="633.691406" xlink:href="#ArialMT-101"/>
     <use x="689.306641" xlink:href="#ArialMT-32"/>
     <use x="717.089844" xlink:href="#ArialMT-117"/>
     <use x="772.705078" xlink:href="#ArialMT-110"/>
     <use x="828.320312" xlink:href="#ArialMT-111"/>
     <use x="883.935547" xlink:href="#ArialMT-114"/>
     <use x="917.236328" xlink:href="#ArialMT-100"/>
     <use x="972.851562" xlink:href="#ArialMT-101"/>
     <use x="1028.466797" xlink:href="#ArialMT-114"/>
     <use x="1061.767578" xlink:href="#ArialMT-101"/>
     <use x="1117.382812" xlink:href="#ArialMT-100"/>
    </g>
   </g>
  </g>
  <g id="axes_5">
   <g id="matplotlib.axis_9">
    <g id="xtick_9">
     <g id="text_17">
      <!-- 0.0 -->
      <g style="opacity:0;" transform="translate(83.05 331.057813)scale(0.1 -0.1)">
       <defs>
        <path d="M 9.078125 0 
L 9.078125 10.015625 
L 19.09375 10.015625 
L 19.09375 0 
z
" id="ArialMT-46"/>
       </defs>
       <use xlink:href="#ArialMT-48"/>
       <use x="55.615234" xlink:href="#ArialMT-46"/>
       <use x="83.398438" xlink:href="#ArialMT-48"/>
      </g>
     </g>
    </g>
    <g id="xtick_10">
     <g id="text_18">
      <!-- 0.2 -->
      <g style="opacity:0;" transform="translate(194.65 331.057813)scale(0.1 -0.1)">
       <use xlink:href="#ArialMT-48"/>
       <use x="55.615234" xlink:href="#ArialMT-46"/>
       <use x="83.398438" xlink:href="#ArialMT-50"/>
      </g>
     </g>
    </g>
    <g id="xtick_11">
     <g id="text_19">
      <!-- 0.4 -->
      <g style="opacity:0;" transform="translate(306.25 331.057813)scale(0.1 -0.1)">
       <defs>
        <path d="M 32.328125 0 
L 32.328125 17.140625 
L 1.265625 17.140625 
L 1.265625 25.203125 
L 33.9375 71.578125 
L 41.109375 71.578125 
L 41.109375 25.203125 
L 50.78125 25.203125 
L 50.78125 17.140625 
L 41.109375 17.140625 
L 41.109375 0 
z
M 32.328125 25.203125 
L 32.328125 57.46875 
L 9.90625 25.203125 
z
" id="ArialMT-52"/>
       </defs>
       <use xlink:href="#ArialMT-48"/>
       <use x="55.615234" xlink:href="#ArialMT-46"/>
       <use x="83.398438" xlink:href="#ArialMT-52"/>
      </g>
     </g>
    </g>
    <g id="xtick_12">
     <g id="text_20">
      <!-- 0.6 -->
      <g style="opacity:0;" transform="translate(417.85 331.057813)scale(0.1 -0.1)">
       <defs>
        <path d="M 49.75 54.046875 
L 41.015625 53.375 
Q 39.84375 58.546875 37.703125 60.890625 
Q 34.125 64.65625 28.90625 64.65625 
Q 24.703125 64.65625 21.53125 62.3125 
Q 17.390625 59.28125 14.984375 53.46875 
Q 12.59375 47.65625 12.5 36.921875 
Q 15.671875 41.75 20.265625 44.09375 
Q 24.859375 46.4375 29.890625 46.4375 
Q 38.671875 46.4375 44.84375 39.96875 
Q 51.03125 33.5 51.03125 23.25 
Q 51.03125 16.5 48.125 10.71875 
Q 45.21875 4.9375 40.140625 1.859375 
Q 35.0625 -1.21875 28.609375 -1.21875 
Q 17.625 -1.21875 10.6875 6.859375 
Q 3.765625 14.9375 3.765625 33.5 
Q 3.765625 54.25 11.421875 63.671875 
Q 18.109375 71.875 29.4375 71.875 
Q 37.890625 71.875 43.28125 67.140625 
Q 48.6875 62.40625 49.75 54.046875 
z
M 13.875 23.1875 
Q 13.875 18.65625 15.796875 14.5 
Q 17.71875 10.359375 21.1875 8.171875 
Q 24.65625 6 28.46875 6 
Q 34.03125 6 38.03125 10.484375 
Q 42.046875 14.984375 42.046875 22.703125 
Q 42.046875 30.125 38.078125 34.390625 
Q 34.125 38.671875 28.125 38.671875 
Q 22.171875 38.671875 18.015625 34.390625 
Q 13.875 30.125 13.875 23.1875 
z
" id="ArialMT-54"/>
       </defs>
       <use xlink:href="#ArialMT-48"/>
       <use x="55.615234" xlink:href="#ArialMT-46"/>
       <use x="83.398438" xlink:href="#ArialMT-54"/>
      </g>
     </g>
    </g>
    <g id="xtick_13">
     <g id="text_21">
      <!-- 0.8 -->
      <g style="opacity:0;" transform="translate(529.45 331.057813)scale(0.1 -0.1)">
       <defs>
        <path d="M 17.671875 38.8125 
Q 12.203125 40.828125 9.5625 44.53125 
Q 6.9375 48.25 6.9375 53.421875 
Q 6.9375 61.234375 12.546875 66.546875 
Q 18.171875 71.875 27.484375 71.875 
Q 36.859375 71.875 42.578125 66.421875 
Q 48.296875 60.984375 48.296875 53.171875 
Q 48.296875 48.1875 45.671875 44.5 
Q 43.0625 40.828125 37.75 38.8125 
Q 44.34375 36.671875 47.78125 31.875 
Q 51.21875 27.09375 51.21875 20.453125 
Q 51.21875 11.28125 44.71875 5.03125 
Q 38.234375 -1.21875 27.640625 -1.21875 
Q 17.046875 -1.21875 10.546875 5.046875 
Q 4.046875 11.328125 4.046875 20.703125 
Q 4.046875 27.6875 7.59375 32.390625 
Q 11.140625 37.109375 17.671875 38.8125 
z
M 15.921875 53.71875 
Q 15.921875 48.640625 19.1875 45.40625 
Q 22.46875 42.1875 27.6875 42.1875 
Q 32.765625 42.1875 36.015625 45.375 
Q 39.265625 48.578125 39.265625 53.21875 
Q 39.265625 58.0625 35.90625 61.359375 
Q 32.5625 64.65625 27.59375 64.65625 
Q 22.5625 64.65625 19.234375 61.421875 
Q 15.921875 58.203125 15.921875 53.71875 
z
M 13.09375 20.65625 
Q 13.09375 16.890625 14.875 13.375 
Q 16.65625 9.859375 20.171875 7.921875 
Q 23.6875 6 27.734375 6 
Q 34.03125 6 38.125 10.046875 
Q 42.234375 14.109375 42.234375 20.359375 
Q 42.234375 26.703125 38.015625 30.859375 
Q 33.796875 35.015625 27.4375 35.015625 
Q 21.234375 35.015625 17.15625 30.90625 
Q 13.09375 26.8125 13.09375 20.65625 
z
" id="ArialMT-56"/>
       </defs>
       <use xlink:href="#ArialMT-48"/>
       <use x="55.615234" xlink:href="#ArialMT-46"/>
       <use x="83.398438" xlink:href="#ArialMT-56"/>
      </g>
     </g>
    </g>
    <g id="xtick_14">
     <g id="text_22">
      <!-- 1.0 -->
      <g style="opacity:0;" transform="translate(641.05 331.057813)scale(0.1 -0.1)">
       <use xlink:href="#ArialMT-49"/>
       <use x="55.615234" xlink:href="#ArialMT-46"/>
       <use x="83.398438" xlink:href="#ArialMT-48"/>
      </g>
     </g>
    </g>
    <g id="text_23">
     <!-- subj size -->
     <g style="fill:#262626;" transform="translate(349.547656 344.203125)scale(0.1 -0.1)">
      <defs>
       <path d="M 3.078125 15.484375 
L 11.765625 16.84375 
Q 12.5 11.625 15.84375 8.84375 
Q 19.1875 6.0625 25.203125 6.0625 
Q 31.25 6.0625 34.171875 8.515625 
Q 37.109375 10.984375 37.109375 14.3125 
Q 37.109375 17.28125 34.515625 19 
Q 32.71875 20.171875 25.53125 21.96875 
Q 15.875 24.421875 12.140625 26.203125 
Q 8.40625 27.984375 6.46875 31.125 
Q 4.546875 34.28125 4.546875 38.09375 
Q 4.546875 41.546875 6.125 44.5 
Q 7.71875 47.46875 10.453125 49.421875 
Q 12.5 50.921875 16.03125 51.96875 
Q 19.578125 53.03125 23.640625 53.03125 
Q 29.734375 53.03125 34.34375 51.265625 
Q 38.96875 49.515625 41.15625 46.5 
Q 43.359375 43.5 44.1875 38.484375 
L 35.59375 37.3125 
Q 35.015625 41.3125 32.203125 43.546875 
Q 29.390625 45.796875 24.265625 45.796875 
Q 18.21875 45.796875 15.625 43.796875 
Q 13.03125 41.796875 13.03125 39.109375 
Q 13.03125 37.40625 14.109375 36.03125 
Q 15.1875 34.625 17.484375 33.6875 
Q 18.796875 33.203125 25.25 31.453125 
Q 34.578125 28.953125 38.25 27.359375 
Q 41.9375 25.78125 44.03125 22.75 
Q 46.140625 19.734375 46.140625 15.234375 
Q 46.140625 10.84375 43.578125 6.953125 
Q 41.015625 3.078125 36.171875 0.953125 
Q 31.34375 -1.171875 25.25 -1.171875 
Q 15.140625 -1.171875 9.84375 3.03125 
Q 4.546875 7.234375 3.078125 15.484375 
z
" id="ArialMT-115"/>
       <path d="M 14.703125 0 
L 6.546875 0 
L 6.546875 71.578125 
L 15.328125 71.578125 
L 15.328125 46.046875 
Q 20.90625 53.03125 29.546875 53.03125 
Q 34.328125 53.03125 38.59375 51.09375 
Q 42.875 49.171875 45.625 45.671875 
Q 48.390625 42.1875 49.953125 37.25 
Q 51.515625 32.328125 51.515625 26.703125 
Q 51.515625 13.375 44.921875 6.09375 
Q 38.328125 -1.171875 29.109375 -1.171875 
Q 19.921875 -1.171875 14.703125 6.5 
z
M 14.59375 26.3125 
Q 14.59375 17 17.140625 12.84375 
Q 21.296875 6.0625 28.375 6.0625 
Q 34.125 6.0625 38.328125 11.0625 
Q 42.53125 16.0625 42.53125 25.984375 
Q 42.53125 36.140625 38.5 40.96875 
Q 34.46875 45.796875 28.765625 45.796875 
Q 23 45.796875 18.796875 40.796875 
Q 14.59375 35.796875 14.59375 26.3125 
z
" id="ArialMT-98"/>
       <path d="M 6.546875 61.375 
L 6.546875 71.578125 
L 15.328125 71.578125 
L 15.328125 61.375 
z
M -4.59375 -20.125 
L -2.9375 -12.640625 
Q -0.296875 -13.328125 1.21875 -13.328125 
Q 3.90625 -13.328125 5.21875 -11.546875 
Q 6.546875 -9.765625 6.546875 -2.640625 
L 6.546875 51.859375 
L 15.328125 51.859375 
L 15.328125 -2.828125 
Q 15.328125 -12.40625 12.84375 -16.15625 
Q 9.671875 -21.046875 2.296875 -21.046875 
Q -1.265625 -21.046875 -4.59375 -20.125 
z
" id="ArialMT-106"/>
       <path d="M 1.953125 0 
L 1.953125 7.125 
L 34.96875 45.015625 
Q 29.34375 44.734375 25.046875 44.734375 
L 3.90625 44.734375 
L 3.90625 51.859375 
L 46.296875 51.859375 
L 46.296875 46.046875 
L 18.21875 13.140625 
L 12.796875 7.125 
Q 18.703125 7.5625 23.875 7.5625 
L 47.859375 7.5625 
L 47.859375 0 
z
" id="ArialMT-122"/>
      </defs>
      <use xlink:href="#ArialMT-115"/>
      <use x="50" xlink:href="#ArialMT-117"/>
      <use x="105.615234" xlink:href="#ArialMT-98"/>
      <use x="161.230469" xlink:href="#ArialMT-106"/>
      <use x="183.447266" xlink:href="#ArialMT-32"/>
      <use x="211.230469" xlink:href="#ArialMT-115"/>
      <use x="261.230469" xlink:href="#ArialMT-105"/>
      <use x="283.447266" xlink:href="#ArialMT-122"/>
      <use x="333.447266" xlink:href="#ArialMT-101"/>
     </g>
    </g>
   </g>
   <g id="matplotlib.axis_10">
    <g id="ytick_141">
     <g id="text_24">
      <!-- 0.0 -->
      <g style="opacity:0;" transform="translate(72.6 323.978906)scale(0.1 -0.1)">
       <use xlink:href="#ArialMT-48"/>
       <use x="55.615234" xlink:href="#ArialMT-46"/>
       <use x="83.398438" xlink:href="#ArialMT-48"/>
      </g>
     </g>
    </g>
    <g id="ytick_142">
     <g id="text_25">
      <!-- 0.2 -->
      <g style="opacity:0;" transform="translate(72.6 268.538906)scale(0.1 -0.1)">
       <use xlink:href="#ArialMT-48"/>
       <use x="55.615234" xlink:href="#ArialMT-46"/>
       <use x="83.398438" xlink:href="#ArialMT-50"/>
      </g>
     </g>
    </g>
    <g id="ytick_143">
     <g id="text_26">
      <!-- 0.4 -->
      <g style="opacity:0;" transform="translate(72.6 213.098906)scale(0.1 -0.1)">
       <use xlink:href="#ArialMT-48"/>
       <use x="55.615234" xlink:href="#ArialMT-46"/>
       <use x="83.398438" xlink:href="#ArialMT-52"/>
      </g>
     </g>
    </g>
    <g id="ytick_144">
     <g id="text_27">
      <!-- 0.6 -->
      <g style="opacity:0;" transform="translate(72.6 157.658906)scale(0.1 -0.1)">
       <use xlink:href="#ArialMT-48"/>
       <use x="55.615234" xlink:href="#ArialMT-46"/>
       <use x="83.398438" xlink:href="#ArialMT-54"/>
      </g>
     </g>
    </g>
    <g id="ytick_145">
     <g id="text_28">
      <!-- 0.8 -->
      <g style="opacity:0;" transform="translate(72.6 102.218906)scale(0.1 -0.1)">
       <use xlink:href="#ArialMT-48"/>
       <use x="55.615234" xlink:href="#ArialMT-46"/>
       <use x="83.398438" xlink:href="#ArialMT-56"/>
      </g>
     </g>
    </g>
    <g id="ytick_146">
     <g id="text_29">
      <!-- 1.0 -->
      <g style="opacity:0;" transform="translate(72.6 46.778906)scale(0.1 -0.1)">
       <use xlink:href="#ArialMT-49"/>
       <use x="55.615234" xlink:href="#ArialMT-46"/>
       <use x="83.398438" xlink:href="#ArialMT-48"/>
      </g>
     </g>
    </g>
    <g id="text_30">
     <!-- average time [ms] -->
     <g style="fill:#262626;" transform="translate(66.495312 221.533594)rotate(-90)scale(0.1 -0.1)">
      <defs>
       <path d="M 21 0 
L 1.265625 51.859375 
L 10.546875 51.859375 
L 21.6875 20.796875 
Q 23.484375 15.765625 25 10.359375 
Q 26.171875 14.453125 28.265625 20.21875 
L 39.796875 51.859375 
L 48.828125 51.859375 
L 29.203125 0 
z
" id="ArialMT-118"/>
       <path d="M 4.984375 -4.296875 
L 13.53125 -5.5625 
Q 14.0625 -9.515625 16.5 -11.328125 
Q 19.78125 -13.765625 25.4375 -13.765625 
Q 31.546875 -13.765625 34.859375 -11.328125 
Q 38.1875 -8.890625 39.359375 -4.5 
Q 40.046875 -1.8125 39.984375 6.78125 
Q 34.234375 0 25.640625 0 
Q 14.9375 0 9.078125 7.71875 
Q 3.21875 15.4375 3.21875 26.21875 
Q 3.21875 33.640625 5.90625 39.90625 
Q 8.59375 46.1875 13.6875 49.609375 
Q 18.796875 53.03125 25.6875 53.03125 
Q 34.859375 53.03125 40.828125 45.609375 
L 40.828125 51.859375 
L 48.921875 51.859375 
L 48.921875 7.03125 
Q 48.921875 -5.078125 46.453125 -10.125 
Q 44 -15.1875 38.640625 -18.109375 
Q 33.296875 -21.046875 25.484375 -21.046875 
Q 16.21875 -21.046875 10.5 -16.875 
Q 4.78125 -12.703125 4.984375 -4.296875 
z
M 12.25 26.859375 
Q 12.25 16.65625 16.296875 11.96875 
Q 20.359375 7.28125 26.46875 7.28125 
Q 32.515625 7.28125 36.609375 11.9375 
Q 40.71875 16.609375 40.71875 26.5625 
Q 40.71875 36.078125 36.5 40.90625 
Q 32.28125 45.75 26.3125 45.75 
Q 20.453125 45.75 16.34375 40.984375 
Q 12.25 36.234375 12.25 26.859375 
z
" id="ArialMT-103"/>
       <path d="M 6.78125 -19.875 
L 6.78125 71.578125 
L 26.171875 71.578125 
L 26.171875 64.3125 
L 15.578125 64.3125 
L 15.578125 -12.59375 
L 26.171875 -12.59375 
L 26.171875 -19.875 
z
" id="ArialMT-91"/>
       <path d="M 21.296875 -19.875 
L 1.90625 -19.875 
L 1.90625 -12.59375 
L 12.5 -12.59375 
L 12.5 64.3125 
L 1.90625 64.3125 
L 1.90625 71.578125 
L 21.296875 71.578125 
z
" id="ArialMT-93"/>
      </defs>
      <use xlink:href="#ArialMT-97"/>
      <use x="55.615234" xlink:href="#ArialMT-118"/>
      <use x="105.615234" xlink:href="#ArialMT-101"/>
      <use x="161.230469" xlink:href="#ArialMT-114"/>
      <use x="194.53125" xlink:href="#ArialMT-97"/>
      <use x="250.146484" xlink:href="#ArialMT-103"/>
      <use x="305.761719" xlink:href="#ArialMT-101"/>
      <use x="361.376953" xlink:href="#ArialMT-32"/>
      <use x="389.160156" xlink:href="#ArialMT-116"/>
      <use x="416.943359" xlink:href="#ArialMT-105"/>
      <use x="439.160156" xlink:href="#ArialMT-109"/>
      <use x="522.460938" xlink:href="#ArialMT-101"/>
      <use x="578.076172" xlink:href="#ArialMT-32"/>
      <use x="605.859375" xlink:href="#ArialMT-91"/>
      <use x="633.642578" xlink:href="#ArialMT-109"/>
      <use x="716.943359" xlink:href="#ArialMT-115"/>
      <use x="766.943359" xlink:href="#ArialMT-93"/>
     </g>
    </g>
   </g>
  </g>
  <g id="legend_1">
   <g id="line2d_193">
    <path d="M 106.877344 12.6875 
L 126.877344 12.6875 
" style="fill:none;stroke:#1f77b4;stroke-linecap:round;stroke-width:1.5;"/>
   </g>
   <g id="line2d_194">
    <g>
     <use style="fill:#1f77b4;stroke:#1f77b4;" x="116.877344" xlink:href="#me2465921d8" y="12.6875"/>
    </g>
   </g>
   <g id="text_31">
    <!-- query size 1 -->
    <g style="fill:#262626;" transform="translate(134.877344 16.1875)scale(0.1 -0.1)">
     <defs>
      <path d="M 39.65625 -19.875 
L 39.65625 5.515625 
Q 37.59375 2.640625 33.90625 0.734375 
Q 30.21875 -1.171875 26.078125 -1.171875 
Q 16.84375 -1.171875 10.171875 6.203125 
Q 3.515625 13.578125 3.515625 26.421875 
Q 3.515625 34.234375 6.21875 40.421875 
Q 8.9375 46.625 14.078125 49.828125 
Q 19.234375 53.03125 25.390625 53.03125 
Q 35.015625 53.03125 40.53125 44.921875 
L 40.53125 51.859375 
L 48.4375 51.859375 
L 48.4375 -19.875 
z
M 12.546875 26.078125 
Q 12.546875 16.0625 16.75 11.0625 
Q 20.953125 6.0625 26.8125 6.0625 
Q 32.421875 6.0625 36.46875 10.8125 
Q 40.53125 15.578125 40.53125 25.296875 
Q 40.53125 35.640625 36.25 40.859375 
Q 31.984375 46.09375 26.21875 46.09375 
Q 20.515625 46.09375 16.53125 41.234375 
Q 12.546875 36.375 12.546875 26.078125 
z
" id="ArialMT-113"/>
     </defs>
     <use xlink:href="#ArialMT-113"/>
     <use x="55.615234" xlink:href="#ArialMT-117"/>
     <use x="111.230469" xlink:href="#ArialMT-101"/>
     <use x="166.845703" xlink:href="#ArialMT-114"/>
     <use x="200.146484" xlink:href="#ArialMT-121"/>
     <use x="250.146484" xlink:href="#ArialMT-32"/>
     <use x="277.929688" xlink:href="#ArialMT-115"/>
     <use x="327.929688" xlink:href="#ArialMT-105"/>
     <use x="350.146484" xlink:href="#ArialMT-122"/>
     <use x="400.146484" xlink:href="#ArialMT-101"/>
     <use x="455.761719" xlink:href="#ArialMT-32"/>
     <use x="483.544922" xlink:href="#ArialMT-49"/>
    </g>
   </g>
   <g id="line2d_195">
    <path d="M 208.789844 12.6875 
L 228.789844 12.6875 
" style="fill:none;stroke:#ff7f0e;stroke-linecap:round;stroke-width:1.5;"/>
   </g>
   <g id="line2d_196">
    <g>
     <use style="fill:#ff7f0e;stroke:#ff7f0e;" x="218.789844" xlink:href="#mdf98d0a9d0" y="12.6875"/>
    </g>
   </g>
   <g id="text_32">
    <!-- query size 5 -->
    <g style="fill:#262626;" transform="translate(236.789844 16.1875)scale(0.1 -0.1)">
     <use xlink:href="#ArialMT-113"/>
     <use x="55.615234" xlink:href="#ArialMT-117"/>
     <use x="111.230469" xlink:href="#ArialMT-101"/>
     <use x="166.845703" xlink:href="#ArialMT-114"/>
     <use x="200.146484" xlink:href="#ArialMT-121"/>
     <use x="250.146484" xlink:href="#ArialMT-32"/>
     <use x="277.929688" xlink:href="#ArialMT-115"/>
     <use x="327.929688" xlink:href="#ArialMT-105"/>
     <use x="350.146484" xlink:href="#ArialMT-122"/>
     <use x="400.146484" xlink:href="#ArialMT-101"/>
     <use x="455.761719" xlink:href="#ArialMT-32"/>
     <use x="483.544922" xlink:href="#ArialMT-53"/>
    </g>
   </g>
   <g id="line2d_197">
    <path d="M 310.702344 12.6875 
L 330.702344 12.6875 
" style="fill:none;stroke:#2ca02c;stroke-linecap:round;stroke-width:1.5;"/>
   </g>
   <g id="line2d_198">
    <g>
     <use style="fill:#2ca02c;stroke:#2ca02c;" x="320.702344" xlink:href="#m3e5db1f63d" y="12.6875"/>
    </g>
   </g>
   <g id="text_33">
    <!-- query size 10 -->
    <g style="fill:#262626;" transform="translate(338.702344 16.1875)scale(0.1 -0.1)">
     <use xlink:href="#ArialMT-113"/>
     <use x="55.615234" xlink:href="#ArialMT-117"/>
     <use x="111.230469" xlink:href="#ArialMT-101"/>
     <use x="166.845703" xlink:href="#ArialMT-114"/>
     <use x="200.146484" xlink:href="#ArialMT-121"/>
     <use x="250.146484" xlink:href="#ArialMT-32"/>
     <use x="277.929688" xlink:href="#ArialMT-115"/>
     <use x="327.929688" xlink:href="#ArialMT-105"/>
     <use x="350.146484" xlink:href="#ArialMT-122"/>
     <use x="400.146484" xlink:href="#ArialMT-101"/>
     <use x="455.761719" xlink:href="#ArialMT-32"/>
     <use x="483.544922" xlink:href="#ArialMT-49"/>
     <use x="539.160156" xlink:href="#ArialMT-48"/>
    </g>
   </g>
   <g id="line2d_199">
    <path d="M 418.175781 12.6875 
L 438.175781 12.6875 
" style="fill:none;stroke:#d62728;stroke-linecap:round;stroke-width:1.5;"/>
   </g>
   <g id="line2d_200">
    <g>
     <use style="fill:#d62728;stroke:#d62728;" x="428.175781" xlink:href="#m53a85ab5d6" y="12.6875"/>
    </g>
   </g>
   <g id="text_34">
    <!-- query size 20 -->
    <g style="fill:#262626;" transform="translate(446.175781 16.1875)scale(0.1 -0.1)">
     <use xlink:href="#ArialMT-113"/>
     <use x="55.615234" xlink:href="#ArialMT-117"/>
     <use x="111.230469" xlink:href="#ArialMT-101"/>
     <use x="166.845703" xlink:href="#ArialMT-114"/>
     <use x="200.146484" xlink:href="#ArialMT-121"/>
     <use x="250.146484" xlink:href="#ArialMT-32"/>
     <use x="277.929688" xlink:href="#ArialMT-115"/>
     <use x="327.929688" xlink:href="#ArialMT-105"/>
     <use x="350.146484" xlink:href="#ArialMT-122"/>
     <use x="400.146484" xlink:href="#ArialMT-101"/>
     <use x="455.761719" xlink:href="#ArialMT-32"/>
     <use x="483.544922" xlink:href="#ArialMT-50"/>
     <use x="539.160156" xlink:href="#ArialMT-48"/>
    </g>
   </g>
   <g id="line2d_201">
    <path d="M 525.649219 12.6875 
L 545.649219 12.6875 
" style="fill:none;stroke:#9467bd;stroke-linecap:round;stroke-width:1.5;"/>
   </g>
   <g id="line2d_202">
    <g>
     <use style="fill:#9467bd;stroke:#9467bd;" x="535.649219" xlink:href="#m38f8d245c5" y="12.6875"/>
    </g>
   </g>
   <g id="text_35">
    <!-- query size 30 -->
    <g style="fill:#262626;" transform="translate(553.649219 16.1875)scale(0.1 -0.1)">
     <use xlink:href="#ArialMT-113"/>
     <use x="55.615234" xlink:href="#ArialMT-117"/>
     <use x="111.230469" xlink:href="#ArialMT-101"/>
     <use x="166.845703" xlink:href="#ArialMT-114"/>
     <use x="200.146484" xlink:href="#ArialMT-121"/>
     <use x="250.146484" xlink:href="#ArialMT-32"/>
     <use x="277.929688" xlink:href="#ArialMT-115"/>
     <use x="327.929688" xlink:href="#ArialMT-105"/>
     <use x="350.146484" xlink:href="#ArialMT-122"/>
     <use x="400.146484" xlink:href="#ArialMT-101"/>
     <use x="455.761719" xlink:href="#ArialMT-32"/>
     <use x="483.544922" xlink:href="#ArialMT-51"/>
     <use x="539.160156" xlink:href="#ArialMT-48"/>
    </g>
   </g>
  </g>
 </g>
 <defs>
  <clipPath id="p820c12987c">
   <rect height="277.2" width="121.304348" x="90" y="43.2"/>
  </clipPath>
  <clipPath id="p14857ee5a7">
   <rect height="277.2" width="121.304348" x="235.565217" y="43.2"/>
  </clipPath>
  <clipPath id="p7dfc1a5d50">
   <rect height="277.2" width="121.304348" x="381.130435" y="43.2"/>
  </clipPath>
  <clipPath id="paf53c6b754">
   <rect height="277.2" width="121.304348" x="526.695652" y="43.2"/>
  </clipPath>
 </defs>
</svg>
