<?xml version="1.0" encoding="utf-8" standalone="no"?>
<!DOCTYPE svg PUBLIC "-//W3C//DTD SVG 1.1//EN"
  "http://www.w3.org/Graphics/SVG/1.1/DTD/svg11.dtd">
<!-- Created with matplotlib (https://matplotlib.org/) -->
<svg height="360pt" version="1.1" viewBox="0 0 720 360" width="720pt" xmlns="http://www.w3.org/2000/svg" xmlns:xlink="http://www.w3.org/1999/xlink">
 <metadata>
  <rdf:RDF xmlns:cc="http://creativecommons.org/ns#" xmlns:dc="http://purl.org/dc/elements/1.1/" xmlns:rdf="http://www.w3.org/1999/02/22-rdf-syntax-ns#">
   <cc:Work>
    <dc:type rdf:resource="http://purl.org/dc/dcmitype/StillImage"/>
    <dc:date>2022-03-16T16:09:59.702009</dc:date>
    <dc:format>image/svg+xml</dc:format>
    <dc:creator>
     <cc:Agent>
      <dc:title>Matplotlib v3.3.4, https://matplotlib.org/</dc:title>
     </cc:Agent>
    </dc:creator>
   </cc:Work>
  </rdf:RDF>
 </metadata>
 <defs>
  <style type="text/css">*{stroke-linecap:butt;stroke-linejoin:round;}</style>
 </defs>
 <g id="figure_1">
  <g id="patch_1">
   <path d="M 0 360 
L 720 360 
L 720 0 
L 0 0 
z
" style="fill:#ffffff;"/>
  </g>
  <g id="axes_1">
   <g id="patch_2">
    <path d="M 90 320.4 
L 254.117647 320.4 
L 254.117647 43.2 
L 90 43.2 
z
" style="fill:#ffffff;"/>
   </g>
   <g id="matplotlib.axis_1">
    <g id="xtick_1">
     <g id="line2d_1">
      <path clip-path="url(#p05e0927735)" d="M 92.315139 320.4 
L 92.315139 43.2 
" style="fill:none;stroke:#cccccc;stroke-linecap:round;stroke-width:0.8;"/>
     </g>
     <g id="line2d_2"/>
     <g id="text_1">
      <!-- 0 -->
      <g style="fill:#262626;" transform="translate(89.53467 331.057813)scale(0.1 -0.1)">
       <defs>
        <path d="M 4.15625 35.296875 
Q 4.15625 48 6.765625 55.734375 
Q 9.375 63.484375 14.515625 67.671875 
Q 19.671875 71.875 27.484375 71.875 
Q 33.25 71.875 37.59375 69.546875 
Q 41.9375 67.234375 44.765625 62.859375 
Q 47.609375 58.5 49.21875 52.21875 
Q 50.828125 45.953125 50.828125 35.296875 
Q 50.828125 22.703125 48.234375 14.96875 
Q 45.65625 7.234375 40.5 3 
Q 35.359375 -1.21875 27.484375 -1.21875 
Q 17.140625 -1.21875 11.234375 6.203125 
Q 4.15625 15.140625 4.15625 35.296875 
z
M 13.1875 35.296875 
Q 13.1875 17.671875 17.3125 11.828125 
Q 21.4375 6 27.484375 6 
Q 33.546875 6 37.671875 11.859375 
Q 41.796875 17.71875 41.796875 35.296875 
Q 41.796875 52.984375 37.671875 58.78125 
Q 33.546875 64.59375 27.390625 64.59375 
Q 21.34375 64.59375 17.71875 59.46875 
Q 13.1875 52.9375 13.1875 35.296875 
z
" id="ArialMT-48"/>
       </defs>
       <use xlink:href="#ArialMT-48"/>
      </g>
     </g>
    </g>
    <g id="xtick_2">
     <g id="line2d_3">
      <path clip-path="url(#p05e0927735)" d="M 143.762677 320.4 
L 143.762677 43.2 
" style="fill:none;stroke:#cccccc;stroke-linecap:round;stroke-width:0.8;"/>
     </g>
     <g id="line2d_4"/>
     <g id="text_2">
      <!-- 10 -->
      <g style="fill:#262626;" transform="translate(138.20174 331.057813)scale(0.1 -0.1)">
       <defs>
        <path d="M 37.25 0 
L 28.46875 0 
L 28.46875 56 
Q 25.296875 52.984375 20.140625 49.953125 
Q 14.984375 46.921875 10.890625 45.40625 
L 10.890625 53.90625 
Q 18.265625 57.375 23.78125 62.296875 
Q 29.296875 67.234375 31.59375 71.875 
L 37.25 71.875 
z
" id="ArialMT-49"/>
       </defs>
       <use xlink:href="#ArialMT-49"/>
       <use x="55.615234" xlink:href="#ArialMT-48"/>
      </g>
     </g>
    </g>
    <g id="xtick_3">
     <g id="line2d_5">
      <path clip-path="url(#p05e0927735)" d="M 195.210216 320.4 
L 195.210216 43.2 
" style="fill:none;stroke:#cccccc;stroke-linecap:round;stroke-width:0.8;"/>
     </g>
     <g id="line2d_6"/>
     <g id="text_3">
      <!-- 20 -->
      <g style="fill:#262626;" transform="translate(189.649278 331.057813)scale(0.1 -0.1)">
       <defs>
        <path d="M 50.34375 8.453125 
L 50.34375 0 
L 3.03125 0 
Q 2.9375 3.171875 4.046875 6.109375 
Q 5.859375 10.9375 9.828125 15.625 
Q 13.8125 20.3125 21.34375 26.46875 
Q 33.015625 36.03125 37.109375 41.625 
Q 41.21875 47.21875 41.21875 52.203125 
Q 41.21875 57.421875 37.46875 61 
Q 33.734375 64.59375 27.734375 64.59375 
Q 21.390625 64.59375 17.578125 60.78125 
Q 13.765625 56.984375 13.71875 50.25 
L 4.6875 51.171875 
Q 5.609375 61.28125 11.65625 66.578125 
Q 17.71875 71.875 27.9375 71.875 
Q 38.234375 71.875 44.234375 66.15625 
Q 50.25 60.453125 50.25 52 
Q 50.25 47.703125 48.484375 43.546875 
Q 46.734375 39.40625 42.65625 34.8125 
Q 38.578125 30.21875 29.109375 22.21875 
Q 21.1875 15.578125 18.9375 13.203125 
Q 16.703125 10.84375 15.234375 8.453125 
z
" id="ArialMT-50"/>
       </defs>
       <use xlink:href="#ArialMT-50"/>
       <use x="55.615234" xlink:href="#ArialMT-48"/>
      </g>
     </g>
    </g>
    <g id="xtick_4">
     <g id="line2d_7">
      <path clip-path="url(#p05e0927735)" d="M 246.657754 320.4 
L 246.657754 43.2 
" style="fill:none;stroke:#cccccc;stroke-linecap:round;stroke-width:0.8;"/>
     </g>
     <g id="line2d_8"/>
     <g id="text_4">
      <!-- 30 -->
      <g style="fill:#262626;" transform="translate(241.096817 331.057813)scale(0.1 -0.1)">
       <defs>
        <path d="M 4.203125 18.890625 
L 12.984375 20.0625 
Q 14.5 12.59375 18.140625 9.296875 
Q 21.78125 6 27 6 
Q 33.203125 6 37.46875 10.296875 
Q 41.75 14.59375 41.75 20.953125 
Q 41.75 27 37.796875 30.921875 
Q 33.84375 34.859375 27.734375 34.859375 
Q 25.25 34.859375 21.53125 33.890625 
L 22.515625 41.609375 
Q 23.390625 41.5 23.921875 41.5 
Q 29.546875 41.5 34.03125 44.421875 
Q 38.53125 47.359375 38.53125 53.46875 
Q 38.53125 58.296875 35.25 61.46875 
Q 31.984375 64.65625 26.8125 64.65625 
Q 21.6875 64.65625 18.265625 61.421875 
Q 14.84375 58.203125 13.875 51.765625 
L 5.078125 53.328125 
Q 6.6875 62.15625 12.390625 67.015625 
Q 18.109375 71.875 26.609375 71.875 
Q 32.46875 71.875 37.390625 69.359375 
Q 42.328125 66.84375 44.9375 62.5 
Q 47.5625 58.15625 47.5625 53.265625 
Q 47.5625 48.640625 45.0625 44.828125 
Q 42.578125 41.015625 37.703125 38.765625 
Q 44.046875 37.3125 47.5625 32.6875 
Q 51.078125 28.078125 51.078125 21.140625 
Q 51.078125 11.765625 44.234375 5.25 
Q 37.40625 -1.265625 26.953125 -1.265625 
Q 17.53125 -1.265625 11.296875 4.34375 
Q 5.078125 9.96875 4.203125 18.890625 
z
" id="ArialMT-51"/>
       </defs>
       <use xlink:href="#ArialMT-51"/>
       <use x="55.615234" xlink:href="#ArialMT-48"/>
      </g>
     </g>
    </g>
   </g>
   <g id="matplotlib.axis_2">
    <g id="ytick_1">
     <g id="line2d_9">
      <path clip-path="url(#p05e0927735)" d="M 90 296.448736 
L 254.117647 296.448736 
" style="fill:none;stroke:#cccccc;stroke-linecap:round;stroke-width:0.8;"/>
     </g>
     <g id="line2d_10"/>
     <g id="text_5">
      <!-- $\mathdefault{10^{0}}$ -->
      <g style="fill:#262626;" transform="translate(70.8 301.604986)scale(0.1 -0.1)">
       <use transform="translate(0 0.99375)" xlink:href="#ArialMT-49"/>
       <use transform="translate(55.615234 0.99375)" xlink:href="#ArialMT-48"/>
       <use transform="translate(112.972813 70.6875)scale(0.7)" xlink:href="#ArialMT-48"/>
      </g>
     </g>
    </g>
    <g id="ytick_2">
     <g id="line2d_11">
      <path clip-path="url(#p05e0927735)" d="M 90 224.327197 
L 254.117647 224.327197 
" style="fill:none;stroke:#cccccc;stroke-linecap:round;stroke-width:0.8;"/>
     </g>
     <g id="line2d_12"/>
     <g id="text_6">
      <!-- $\mathdefault{10^{1}}$ -->
      <g style="fill:#262626;" transform="translate(70.8 229.483447)scale(0.1 -0.1)">
       <use transform="translate(0 0.99375)" xlink:href="#ArialMT-49"/>
       <use transform="translate(55.615234 0.99375)" xlink:href="#ArialMT-48"/>
       <use transform="translate(112.972813 70.6875)scale(0.7)" xlink:href="#ArialMT-49"/>
      </g>
     </g>
    </g>
    <g id="ytick_3">
     <g id="line2d_13">
      <path clip-path="url(#p05e0927735)" d="M 90 152.205657 
L 254.117647 152.205657 
" style="fill:none;stroke:#cccccc;stroke-linecap:round;stroke-width:0.8;"/>
     </g>
     <g id="line2d_14"/>
     <g id="text_7">
      <!-- $\mathdefault{10^{2}}$ -->
      <g style="fill:#262626;" transform="translate(70.8 157.361907)scale(0.1 -0.1)">
       <use transform="translate(0 0.99375)" xlink:href="#ArialMT-49"/>
       <use transform="translate(55.615234 0.99375)" xlink:href="#ArialMT-48"/>
       <use transform="translate(112.972813 70.6875)scale(0.7)" xlink:href="#ArialMT-50"/>
      </g>
     </g>
    </g>
    <g id="ytick_4">
     <g id="line2d_15">
      <path clip-path="url(#p05e0927735)" d="M 90 80.084118 
L 254.117647 80.084118 
" style="fill:none;stroke:#cccccc;stroke-linecap:round;stroke-width:0.8;"/>
     </g>
     <g id="line2d_16"/>
     <g id="text_8">
      <!-- $\mathdefault{10^{3}}$ -->
      <g style="fill:#262626;" transform="translate(70.8 85.240368)scale(0.1 -0.1)">
       <use transform="translate(0 0.99375)" xlink:href="#ArialMT-49"/>
       <use transform="translate(55.615234 0.99375)" xlink:href="#ArialMT-48"/>
       <use transform="translate(112.972813 70.6875)scale(0.7)" xlink:href="#ArialMT-51"/>
      </g>
     </g>
    </g>
    <g id="ytick_5">
     <g id="line2d_17"/>
    </g>
    <g id="ytick_6">
     <g id="line2d_18"/>
    </g>
    <g id="ytick_7">
     <g id="line2d_19"/>
    </g>
    <g id="ytick_8">
     <g id="line2d_20"/>
    </g>
    <g id="ytick_9">
     <g id="line2d_21"/>
    </g>
    <g id="ytick_10">
     <g id="line2d_22"/>
    </g>
    <g id="ytick_11">
     <g id="line2d_23"/>
    </g>
    <g id="ytick_12">
     <g id="line2d_24"/>
    </g>
    <g id="ytick_13">
     <g id="line2d_25"/>
    </g>
    <g id="ytick_14">
     <g id="line2d_26"/>
    </g>
    <g id="ytick_15">
     <g id="line2d_27"/>
    </g>
    <g id="ytick_16">
     <g id="line2d_28"/>
    </g>
    <g id="ytick_17">
     <g id="line2d_29"/>
    </g>
    <g id="ytick_18">
     <g id="line2d_30"/>
    </g>
    <g id="ytick_19">
     <g id="line2d_31"/>
    </g>
    <g id="ytick_20">
     <g id="line2d_32"/>
    </g>
    <g id="ytick_21">
     <g id="line2d_33"/>
    </g>
    <g id="ytick_22">
     <g id="line2d_34"/>
    </g>
    <g id="ytick_23">
     <g id="line2d_35"/>
    </g>
    <g id="ytick_24">
     <g id="line2d_36"/>
    </g>
    <g id="ytick_25">
     <g id="line2d_37"/>
    </g>
    <g id="ytick_26">
     <g id="line2d_38"/>
    </g>
    <g id="ytick_27">
     <g id="line2d_39"/>
    </g>
    <g id="ytick_28">
     <g id="line2d_40"/>
    </g>
    <g id="ytick_29">
     <g id="line2d_41"/>
    </g>
    <g id="ytick_30">
     <g id="line2d_42"/>
    </g>
    <g id="ytick_31">
     <g id="line2d_43"/>
    </g>
    <g id="ytick_32">
     <g id="line2d_44"/>
    </g>
    <g id="ytick_33">
     <g id="line2d_45"/>
    </g>
    <g id="ytick_34">
     <g id="line2d_46"/>
    </g>
    <g id="ytick_35">
     <g id="line2d_47"/>
    </g>
   </g>
   <g id="line2d_48">
    <path clip-path="url(#p05e0927735)" d="M 97.459893 307.8 
L 118.038908 301.245735 
L 143.762677 295.55332 
L 195.210216 289.185009 
L 246.657754 286.179389 
" style="fill:none;stroke:#1f77b4;stroke-linecap:round;stroke-width:1.5;"/>
    <defs>
     <path d="M 0 3 
C 0.795609 3 1.55874 2.683901 2.12132 2.12132 
C 2.683901 1.55874 3 0.795609 3 0 
C 3 -0.795609 2.683901 -1.55874 2.12132 -2.12132 
C 1.55874 -2.683901 0.795609 -3 0 -3 
C -0.795609 -3 -1.55874 -2.683901 -2.12132 -2.12132 
C -2.683901 -1.55874 -3 -0.795609 -3 0 
C -3 0.795609 -2.683901 1.55874 -2.12132 2.12132 
C -1.55874 2.683901 -0.795609 3 0 3 
z
" id="m59b9a2eda6" style="stroke:#1f77b4;"/>
    </defs>
    <g clip-path="url(#p05e0927735)">
     <use style="fill:#1f77b4;stroke:#1f77b4;" x="97.459893" xlink:href="#m59b9a2eda6" y="307.8"/>
     <use style="fill:#1f77b4;stroke:#1f77b4;" x="118.038908" xlink:href="#m59b9a2eda6" y="301.245735"/>
     <use style="fill:#1f77b4;stroke:#1f77b4;" x="143.762677" xlink:href="#m59b9a2eda6" y="295.55332"/>
     <use style="fill:#1f77b4;stroke:#1f77b4;" x="195.210216" xlink:href="#m59b9a2eda6" y="289.185009"/>
     <use style="fill:#1f77b4;stroke:#1f77b4;" x="246.657754" xlink:href="#m59b9a2eda6" y="286.179389"/>
    </g>
   </g>
   <g id="line2d_49">
    <path clip-path="url(#p05e0927735)" d="M 97.459893 280.050286 
L 118.038908 275.116127 
L 143.762677 272.662726 
L 195.210216 270.210924 
L 246.657754 268.114149 
" style="fill:none;stroke:#ff7f0e;stroke-linecap:round;stroke-width:1.5;"/>
    <defs>
     <path d="M 0 3 
C 0.795609 3 1.55874 2.683901 2.12132 2.12132 
C 2.683901 1.55874 3 0.795609 3 0 
C 3 -0.795609 2.683901 -1.55874 2.12132 -2.12132 
C 1.55874 -2.683901 0.795609 -3 0 -3 
C -0.795609 -3 -1.55874 -2.683901 -2.12132 -2.12132 
C -2.683901 -1.55874 -3 -0.795609 -3 0 
C -3 0.795609 -2.683901 1.55874 -2.12132 2.12132 
C -1.55874 2.683901 -0.795609 3 0 3 
z
" id="m1709be6134" style="stroke:#ff7f0e;"/>
    </defs>
    <g clip-path="url(#p05e0927735)">
     <use style="fill:#ff7f0e;stroke:#ff7f0e;" x="97.459893" xlink:href="#m1709be6134" y="280.050286"/>
     <use style="fill:#ff7f0e;stroke:#ff7f0e;" x="118.038908" xlink:href="#m1709be6134" y="275.116127"/>
     <use style="fill:#ff7f0e;stroke:#ff7f0e;" x="143.762677" xlink:href="#m1709be6134" y="272.662726"/>
     <use style="fill:#ff7f0e;stroke:#ff7f0e;" x="195.210216" xlink:href="#m1709be6134" y="270.210924"/>
     <use style="fill:#ff7f0e;stroke:#ff7f0e;" x="246.657754" xlink:href="#m1709be6134" y="268.114149"/>
    </g>
   </g>
   <g id="line2d_50">
    <path clip-path="url(#p05e0927735)" d="M 97.459893 232.485199 
L 118.038908 229.233905 
L 143.762677 228.452443 
L 195.210216 227.488397 
L 246.657754 227.398441 
" style="fill:none;stroke:#2ca02c;stroke-linecap:round;stroke-width:1.5;"/>
    <defs>
     <path d="M 0 3 
C 0.795609 3 1.55874 2.683901 2.12132 2.12132 
C 2.683901 1.55874 3 0.795609 3 0 
C 3 -0.795609 2.683901 -1.55874 2.12132 -2.12132 
C 1.55874 -2.683901 0.795609 -3 0 -3 
C -0.795609 -3 -1.55874 -2.683901 -2.12132 -2.12132 
C -2.683901 -1.55874 -3 -0.795609 -3 0 
C -3 0.795609 -2.683901 1.55874 -2.12132 2.12132 
C -1.55874 2.683901 -0.795609 3 0 3 
z
" id="m4c3fde4715" style="stroke:#2ca02c;"/>
    </defs>
    <g clip-path="url(#p05e0927735)">
     <use style="fill:#2ca02c;stroke:#2ca02c;" x="97.459893" xlink:href="#m4c3fde4715" y="232.485199"/>
     <use style="fill:#2ca02c;stroke:#2ca02c;" x="118.038908" xlink:href="#m4c3fde4715" y="229.233905"/>
     <use style="fill:#2ca02c;stroke:#2ca02c;" x="143.762677" xlink:href="#m4c3fde4715" y="228.452443"/>
     <use style="fill:#2ca02c;stroke:#2ca02c;" x="195.210216" xlink:href="#m4c3fde4715" y="227.488397"/>
     <use style="fill:#2ca02c;stroke:#2ca02c;" x="246.657754" xlink:href="#m4c3fde4715" y="227.398441"/>
    </g>
   </g>
   <g id="line2d_51">
    <path clip-path="url(#p05e0927735)" d="M 97.459893 171.168335 
L 118.038908 168.546376 
L 143.762677 168.413666 
L 195.210216 168.668522 
L 246.657754 167.952527 
" style="fill:none;stroke:#d62728;stroke-linecap:round;stroke-width:1.5;"/>
    <defs>
     <path d="M 0 3 
C 0.795609 3 1.55874 2.683901 2.12132 2.12132 
C 2.683901 1.55874 3 0.795609 3 0 
C 3 -0.795609 2.683901 -1.55874 2.12132 -2.12132 
C 1.55874 -2.683901 0.795609 -3 0 -3 
C -0.795609 -3 -1.55874 -2.683901 -2.12132 -2.12132 
C -2.683901 -1.55874 -3 -0.795609 -3 0 
C -3 0.795609 -2.683901 1.55874 -2.12132 2.12132 
C -1.55874 2.683901 -0.795609 3 0 3 
z
" id="mf45fe1961f" style="stroke:#d62728;"/>
    </defs>
    <g clip-path="url(#p05e0927735)">
     <use style="fill:#d62728;stroke:#d62728;" x="97.459893" xlink:href="#mf45fe1961f" y="171.168335"/>
     <use style="fill:#d62728;stroke:#d62728;" x="118.038908" xlink:href="#mf45fe1961f" y="168.546376"/>
     <use style="fill:#d62728;stroke:#d62728;" x="143.762677" xlink:href="#mf45fe1961f" y="168.413666"/>
     <use style="fill:#d62728;stroke:#d62728;" x="195.210216" xlink:href="#mf45fe1961f" y="168.668522"/>
     <use style="fill:#d62728;stroke:#d62728;" x="246.657754" xlink:href="#mf45fe1961f" y="167.952527"/>
    </g>
   </g>
   <g id="line2d_52">
    <path clip-path="url(#p05e0927735)" d="M 97.459893 109.524447 
L 118.038908 106.303702 
L 143.762677 106.111212 
L 195.210216 105.533607 
L 246.657754 105.040512 
" style="fill:none;stroke:#9467bd;stroke-linecap:round;stroke-width:1.5;"/>
    <defs>
     <path d="M 0 3 
C 0.795609 3 1.55874 2.683901 2.12132 2.12132 
C 2.683901 1.55874 3 0.795609 3 0 
C 3 -0.795609 2.683901 -1.55874 2.12132 -2.12132 
C 1.55874 -2.683901 0.795609 -3 0 -3 
C -0.795609 -3 -1.55874 -2.683901 -2.12132 -2.12132 
C -2.683901 -1.55874 -3 -0.795609 -3 0 
C -3 0.795609 -2.683901 1.55874 -2.12132 2.12132 
C -1.55874 2.683901 -0.795609 3 0 3 
z
" id="m38532edd48" style="stroke:#9467bd;"/>
    </defs>
    <g clip-path="url(#p05e0927735)">
     <use style="fill:#9467bd;stroke:#9467bd;" x="97.459893" xlink:href="#m38532edd48" y="109.524447"/>
     <use style="fill:#9467bd;stroke:#9467bd;" x="118.038908" xlink:href="#m38532edd48" y="106.303702"/>
     <use style="fill:#9467bd;stroke:#9467bd;" x="143.762677" xlink:href="#m38532edd48" y="106.111212"/>
     <use style="fill:#9467bd;stroke:#9467bd;" x="195.210216" xlink:href="#m38532edd48" y="105.533607"/>
     <use style="fill:#9467bd;stroke:#9467bd;" x="246.657754" xlink:href="#m38532edd48" y="105.040512"/>
    </g>
   </g>
   <g id="patch_3">
    <path d="M 90 320.4 
L 90 43.2 
" style="fill:none;stroke:#cccccc;stroke-linecap:square;stroke-linejoin:miter;"/>
   </g>
   <g id="patch_4">
    <path d="M 254.117647 320.4 
L 254.117647 43.2 
" style="fill:none;stroke:#cccccc;stroke-linecap:square;stroke-linejoin:miter;"/>
   </g>
   <g id="patch_5">
    <path d="M 90 320.4 
L 254.117647 320.4 
" style="fill:none;stroke:#cccccc;stroke-linecap:square;stroke-linejoin:miter;"/>
   </g>
   <g id="patch_6">
    <path d="M 90 43.2 
L 254.117647 43.2 
" style="fill:none;stroke:#cccccc;stroke-linecap:square;stroke-linejoin:miter;"/>
   </g>
   <g id="text_9">
    <!-- subj type exponential -->
    <g style="fill:#262626;" transform="translate(115.689761 37.2)scale(0.12 -0.12)">
     <defs>
      <path d="M 3.078125 15.484375 
L 11.765625 16.84375 
Q 12.5 11.625 15.84375 8.84375 
Q 19.1875 6.0625 25.203125 6.0625 
Q 31.25 6.0625 34.171875 8.515625 
Q 37.109375 10.984375 37.109375 14.3125 
Q 37.109375 17.28125 34.515625 19 
Q 32.71875 20.171875 25.53125 21.96875 
Q 15.875 24.421875 12.140625 26.203125 
Q 8.40625 27.984375 6.46875 31.125 
Q 4.546875 34.28125 4.546875 38.09375 
Q 4.546875 41.546875 6.125 44.5 
Q 7.71875 47.46875 10.453125 49.421875 
Q 12.5 50.921875 16.03125 51.96875 
Q 19.578125 53.03125 23.640625 53.03125 
Q 29.734375 53.03125 34.34375 51.265625 
Q 38.96875 49.515625 41.15625 46.5 
Q 43.359375 43.5 44.1875 38.484375 
L 35.59375 37.3125 
Q 35.015625 41.3125 32.203125 43.546875 
Q 29.390625 45.796875 24.265625 45.796875 
Q 18.21875 45.796875 15.625 43.796875 
Q 13.03125 41.796875 13.03125 39.109375 
Q 13.03125 37.40625 14.109375 36.03125 
Q 15.1875 34.625 17.484375 33.6875 
Q 18.796875 33.203125 25.25 31.453125 
Q 34.578125 28.953125 38.25 27.359375 
Q 41.9375 25.78125 44.03125 22.75 
Q 46.140625 19.734375 46.140625 15.234375 
Q 46.140625 10.84375 43.578125 6.953125 
Q 41.015625 3.078125 36.171875 0.953125 
Q 31.34375 -1.171875 25.25 -1.171875 
Q 15.140625 -1.171875 9.84375 3.03125 
Q 4.546875 7.234375 3.078125 15.484375 
z
" id="ArialMT-115"/>
      <path d="M 40.578125 0 
L 40.578125 7.625 
Q 34.515625 -1.171875 24.125 -1.171875 
Q 19.53125 -1.171875 15.546875 0.578125 
Q 11.578125 2.34375 9.640625 5 
Q 7.71875 7.671875 6.9375 11.53125 
Q 6.390625 14.109375 6.390625 19.734375 
L 6.390625 51.859375 
L 15.1875 51.859375 
L 15.1875 23.09375 
Q 15.1875 16.21875 15.71875 13.8125 
Q 16.546875 10.359375 19.234375 8.375 
Q 21.921875 6.390625 25.875 6.390625 
Q 29.828125 6.390625 33.296875 8.421875 
Q 36.765625 10.453125 38.203125 13.9375 
Q 39.65625 17.4375 39.65625 24.078125 
L 39.65625 51.859375 
L 48.4375 51.859375 
L 48.4375 0 
z
" id="ArialMT-117"/>
      <path d="M 14.703125 0 
L 6.546875 0 
L 6.546875 71.578125 
L 15.328125 71.578125 
L 15.328125 46.046875 
Q 20.90625 53.03125 29.546875 53.03125 
Q 34.328125 53.03125 38.59375 51.09375 
Q 42.875 49.171875 45.625 45.671875 
Q 48.390625 42.1875 49.953125 37.25 
Q 51.515625 32.328125 51.515625 26.703125 
Q 51.515625 13.375 44.921875 6.09375 
Q 38.328125 -1.171875 29.109375 -1.171875 
Q 19.921875 -1.171875 14.703125 6.5 
z
M 14.59375 26.3125 
Q 14.59375 17 17.140625 12.84375 
Q 21.296875 6.0625 28.375 6.0625 
Q 34.125 6.0625 38.328125 11.0625 
Q 42.53125 16.0625 42.53125 25.984375 
Q 42.53125 36.140625 38.5 40.96875 
Q 34.46875 45.796875 28.765625 45.796875 
Q 23 45.796875 18.796875 40.796875 
Q 14.59375 35.796875 14.59375 26.3125 
z
" id="ArialMT-98"/>
      <path d="M 6.546875 61.375 
L 6.546875 71.578125 
L 15.328125 71.578125 
L 15.328125 61.375 
z
M -4.59375 -20.125 
L -2.9375 -12.640625 
Q -0.296875 -13.328125 1.21875 -13.328125 
Q 3.90625 -13.328125 5.21875 -11.546875 
Q 6.546875 -9.765625 6.546875 -2.640625 
L 6.546875 51.859375 
L 15.328125 51.859375 
L 15.328125 -2.828125 
Q 15.328125 -12.40625 12.84375 -16.15625 
Q 9.671875 -21.046875 2.296875 -21.046875 
Q -1.265625 -21.046875 -4.59375 -20.125 
z
" id="ArialMT-106"/>
      <path id="ArialMT-32"/>
      <path d="M 25.78125 7.859375 
L 27.046875 0.09375 
Q 23.34375 -0.6875 20.40625 -0.6875 
Q 15.625 -0.6875 12.984375 0.828125 
Q 10.359375 2.34375 9.28125 4.8125 
Q 8.203125 7.28125 8.203125 15.1875 
L 8.203125 45.015625 
L 1.765625 45.015625 
L 1.765625 51.859375 
L 8.203125 51.859375 
L 8.203125 64.703125 
L 16.9375 69.96875 
L 16.9375 51.859375 
L 25.78125 51.859375 
L 25.78125 45.015625 
L 16.9375 45.015625 
L 16.9375 14.703125 
Q 16.9375 10.9375 17.40625 9.859375 
Q 17.875 8.796875 18.921875 8.15625 
Q 19.96875 7.515625 21.921875 7.515625 
Q 23.390625 7.515625 25.78125 7.859375 
z
" id="ArialMT-116"/>
      <path d="M 6.203125 -19.96875 
L 5.21875 -11.71875 
Q 8.109375 -12.5 10.25 -12.5 
Q 13.1875 -12.5 14.9375 -11.515625 
Q 16.703125 -10.546875 17.828125 -8.796875 
Q 18.65625 -7.46875 20.515625 -2.25 
Q 20.75 -1.515625 21.296875 -0.09375 
L 1.609375 51.859375 
L 11.078125 51.859375 
L 21.875 21.828125 
Q 23.96875 16.109375 25.640625 9.8125 
Q 27.15625 15.875 29.25 21.625 
L 40.328125 51.859375 
L 49.125 51.859375 
L 29.390625 -0.875 
Q 26.21875 -9.421875 24.46875 -12.640625 
Q 22.125 -17 19.09375 -19.015625 
Q 16.0625 -21.046875 11.859375 -21.046875 
Q 9.328125 -21.046875 6.203125 -19.96875 
z
" id="ArialMT-121"/>
      <path d="M 6.59375 -19.875 
L 6.59375 51.859375 
L 14.59375 51.859375 
L 14.59375 45.125 
Q 17.4375 49.078125 21 51.046875 
Q 24.5625 53.03125 29.640625 53.03125 
Q 36.28125 53.03125 41.359375 49.609375 
Q 46.4375 46.1875 49.015625 39.953125 
Q 51.609375 33.734375 51.609375 26.3125 
Q 51.609375 18.359375 48.75 11.984375 
Q 45.90625 5.609375 40.453125 2.21875 
Q 35.015625 -1.171875 29 -1.171875 
Q 24.609375 -1.171875 21.109375 0.6875 
Q 17.625 2.546875 15.375 5.375 
L 15.375 -19.875 
z
M 14.546875 25.640625 
Q 14.546875 15.625 18.59375 10.84375 
Q 22.65625 6.0625 28.421875 6.0625 
Q 34.28125 6.0625 38.453125 11.015625 
Q 42.625 15.96875 42.625 26.375 
Q 42.625 36.28125 38.546875 41.203125 
Q 34.46875 46.140625 28.8125 46.140625 
Q 23.1875 46.140625 18.859375 40.890625 
Q 14.546875 35.640625 14.546875 25.640625 
z
" id="ArialMT-112"/>
      <path d="M 42.09375 16.703125 
L 51.171875 15.578125 
Q 49.03125 7.625 43.21875 3.21875 
Q 37.40625 -1.171875 28.375 -1.171875 
Q 17 -1.171875 10.328125 5.828125 
Q 3.65625 12.84375 3.65625 25.484375 
Q 3.65625 38.578125 10.390625 45.796875 
Q 17.140625 53.03125 27.875 53.03125 
Q 38.28125 53.03125 44.875 45.953125 
Q 51.46875 38.875 51.46875 26.03125 
Q 51.46875 25.25 51.421875 23.6875 
L 12.75 23.6875 
Q 13.234375 15.140625 17.578125 10.59375 
Q 21.921875 6.0625 28.421875 6.0625 
Q 33.25 6.0625 36.671875 8.59375 
Q 40.09375 11.140625 42.09375 16.703125 
z
M 13.234375 30.90625 
L 42.1875 30.90625 
Q 41.609375 37.453125 38.875 40.71875 
Q 34.671875 45.796875 27.984375 45.796875 
Q 21.921875 45.796875 17.796875 41.75 
Q 13.671875 37.703125 13.234375 30.90625 
z
" id="ArialMT-101"/>
      <path d="M 0.734375 0 
L 19.671875 26.953125 
L 2.15625 51.859375 
L 13.140625 51.859375 
L 21.09375 39.703125 
Q 23.34375 36.234375 24.703125 33.890625 
Q 26.859375 37.109375 28.65625 39.59375 
L 37.40625 51.859375 
L 47.90625 51.859375 
L 29.984375 27.4375 
L 49.265625 0 
L 38.484375 0 
L 27.828125 16.109375 
L 25 20.453125 
L 11.375 0 
z
" id="ArialMT-120"/>
      <path d="M 3.328125 25.921875 
Q 3.328125 40.328125 11.328125 47.265625 
Q 18.015625 53.03125 27.640625 53.03125 
Q 38.328125 53.03125 45.109375 46.015625 
Q 51.90625 39.015625 51.90625 26.65625 
Q 51.90625 16.65625 48.90625 10.90625 
Q 45.90625 5.171875 40.15625 2 
Q 34.421875 -1.171875 27.640625 -1.171875 
Q 16.75 -1.171875 10.03125 5.8125 
Q 3.328125 12.796875 3.328125 25.921875 
z
M 12.359375 25.921875 
Q 12.359375 15.96875 16.703125 11.015625 
Q 21.046875 6.0625 27.640625 6.0625 
Q 34.1875 6.0625 38.53125 11.03125 
Q 42.875 16.015625 42.875 26.21875 
Q 42.875 35.84375 38.5 40.796875 
Q 34.125 45.75 27.640625 45.75 
Q 21.046875 45.75 16.703125 40.8125 
Q 12.359375 35.890625 12.359375 25.921875 
z
" id="ArialMT-111"/>
      <path d="M 6.59375 0 
L 6.59375 51.859375 
L 14.5 51.859375 
L 14.5 44.484375 
Q 20.21875 53.03125 31 53.03125 
Q 35.6875 53.03125 39.625 51.34375 
Q 43.5625 49.65625 45.515625 46.921875 
Q 47.46875 44.1875 48.25 40.4375 
Q 48.734375 37.984375 48.734375 31.890625 
L 48.734375 0 
L 39.9375 0 
L 39.9375 31.546875 
Q 39.9375 36.921875 38.90625 39.578125 
Q 37.890625 42.234375 35.28125 43.8125 
Q 32.671875 45.40625 29.15625 45.40625 
Q 23.53125 45.40625 19.453125 41.84375 
Q 15.375 38.28125 15.375 28.328125 
L 15.375 0 
z
" id="ArialMT-110"/>
      <path d="M 6.640625 61.46875 
L 6.640625 71.578125 
L 15.4375 71.578125 
L 15.4375 61.46875 
z
M 6.640625 0 
L 6.640625 51.859375 
L 15.4375 51.859375 
L 15.4375 0 
z
" id="ArialMT-105"/>
      <path d="M 40.4375 6.390625 
Q 35.546875 2.25 31.03125 0.53125 
Q 26.515625 -1.171875 21.34375 -1.171875 
Q 12.796875 -1.171875 8.203125 3 
Q 3.609375 7.171875 3.609375 13.671875 
Q 3.609375 17.484375 5.34375 20.625 
Q 7.078125 23.78125 9.890625 25.6875 
Q 12.703125 27.59375 16.21875 28.5625 
Q 18.796875 29.25 24.03125 29.890625 
Q 34.671875 31.15625 39.703125 32.90625 
Q 39.75 34.71875 39.75 35.203125 
Q 39.75 40.578125 37.25 42.78125 
Q 33.890625 45.75 27.25 45.75 
Q 21.046875 45.75 18.09375 43.578125 
Q 15.140625 41.40625 13.71875 35.890625 
L 5.125 37.0625 
Q 6.296875 42.578125 8.984375 45.96875 
Q 11.671875 49.359375 16.75 51.1875 
Q 21.828125 53.03125 28.515625 53.03125 
Q 35.15625 53.03125 39.296875 51.46875 
Q 43.453125 49.90625 45.40625 47.53125 
Q 47.359375 45.171875 48.140625 41.546875 
Q 48.578125 39.3125 48.578125 33.453125 
L 48.578125 21.734375 
Q 48.578125 9.46875 49.140625 6.21875 
Q 49.703125 2.984375 51.375 0 
L 42.1875 0 
Q 40.828125 2.734375 40.4375 6.390625 
z
M 39.703125 26.03125 
Q 34.90625 24.078125 25.34375 22.703125 
Q 19.921875 21.921875 17.671875 20.9375 
Q 15.4375 19.96875 14.203125 18.09375 
Q 12.984375 16.21875 12.984375 13.921875 
Q 12.984375 10.40625 15.640625 8.0625 
Q 18.3125 5.71875 23.4375 5.71875 
Q 28.515625 5.71875 32.46875 7.9375 
Q 36.421875 10.15625 38.28125 14.015625 
Q 39.703125 17 39.703125 22.796875 
z
" id="ArialMT-97"/>
      <path d="M 6.390625 0 
L 6.390625 71.578125 
L 15.1875 71.578125 
L 15.1875 0 
z
" id="ArialMT-108"/>
     </defs>
     <use xlink:href="#ArialMT-115"/>
     <use x="50" xlink:href="#ArialMT-117"/>
     <use x="105.615234" xlink:href="#ArialMT-98"/>
     <use x="161.230469" xlink:href="#ArialMT-106"/>
     <use x="183.447266" xlink:href="#ArialMT-32"/>
     <use x="211.230469" xlink:href="#ArialMT-116"/>
     <use x="239.013672" xlink:href="#ArialMT-121"/>
     <use x="289.013672" xlink:href="#ArialMT-112"/>
     <use x="344.628906" xlink:href="#ArialMT-101"/>
     <use x="400.244141" xlink:href="#ArialMT-32"/>
     <use x="428.027344" xlink:href="#ArialMT-101"/>
     <use x="483.642578" xlink:href="#ArialMT-120"/>
     <use x="533.642578" xlink:href="#ArialMT-112"/>
     <use x="589.257812" xlink:href="#ArialMT-111"/>
     <use x="644.873047" xlink:href="#ArialMT-110"/>
     <use x="700.488281" xlink:href="#ArialMT-101"/>
     <use x="756.103516" xlink:href="#ArialMT-110"/>
     <use x="811.71875" xlink:href="#ArialMT-116"/>
     <use x="839.501953" xlink:href="#ArialMT-105"/>
     <use x="861.71875" xlink:href="#ArialMT-97"/>
     <use x="917.333984" xlink:href="#ArialMT-108"/>
    </g>
   </g>
  </g>
  <g id="axes_2">
   <g id="patch_7">
    <path d="M 286.941176 320.4 
L 451.058824 320.4 
L 451.058824 43.2 
L 286.941176 43.2 
z
" style="fill:#ffffff;"/>
   </g>
   <g id="matplotlib.axis_3">
    <g id="xtick_5">
     <g id="line2d_53">
      <path clip-path="url(#p5108d03c81)" d="M 289.256316 320.4 
L 289.256316 43.2 
" style="fill:none;stroke:#cccccc;stroke-linecap:round;stroke-width:0.8;"/>
     </g>
     <g id="line2d_54"/>
     <g id="text_10">
      <!-- 0 -->
      <g style="fill:#262626;" transform="translate(286.475847 331.057813)scale(0.1 -0.1)">
       <use xlink:href="#ArialMT-48"/>
      </g>
     </g>
    </g>
    <g id="xtick_6">
     <g id="line2d_55">
      <path clip-path="url(#p5108d03c81)" d="M 340.703854 320.4 
L 340.703854 43.2 
" style="fill:none;stroke:#cccccc;stroke-linecap:round;stroke-width:0.8;"/>
     </g>
     <g id="line2d_56"/>
     <g id="text_11">
      <!-- 10 -->
      <g style="fill:#262626;" transform="translate(335.142916 331.057813)scale(0.1 -0.1)">
       <use xlink:href="#ArialMT-49"/>
       <use x="55.615234" xlink:href="#ArialMT-48"/>
      </g>
     </g>
    </g>
    <g id="xtick_7">
     <g id="line2d_57">
      <path clip-path="url(#p5108d03c81)" d="M 392.151392 320.4 
L 392.151392 43.2 
" style="fill:none;stroke:#cccccc;stroke-linecap:round;stroke-width:0.8;"/>
     </g>
     <g id="line2d_58"/>
     <g id="text_12">
      <!-- 20 -->
      <g style="fill:#262626;" transform="translate(386.590455 331.057813)scale(0.1 -0.1)">
       <use xlink:href="#ArialMT-50"/>
       <use x="55.615234" xlink:href="#ArialMT-48"/>
      </g>
     </g>
    </g>
    <g id="xtick_8">
     <g id="line2d_59">
      <path clip-path="url(#p5108d03c81)" d="M 443.59893 320.4 
L 443.59893 43.2 
" style="fill:none;stroke:#cccccc;stroke-linecap:round;stroke-width:0.8;"/>
     </g>
     <g id="line2d_60"/>
     <g id="text_13">
      <!-- 30 -->
      <g style="fill:#262626;" transform="translate(438.037993 331.057813)scale(0.1 -0.1)">
       <use xlink:href="#ArialMT-51"/>
       <use x="55.615234" xlink:href="#ArialMT-48"/>
      </g>
     </g>
    </g>
   </g>
   <g id="matplotlib.axis_4">
    <g id="ytick_36">
     <g id="line2d_61">
      <path clip-path="url(#p5108d03c81)" d="M 286.941176 296.448736 
L 451.058824 296.448736 
" style="fill:none;stroke:#cccccc;stroke-linecap:round;stroke-width:0.8;"/>
     </g>
     <g id="line2d_62"/>
    </g>
    <g id="ytick_37">
     <g id="line2d_63">
      <path clip-path="url(#p5108d03c81)" d="M 286.941176 224.327197 
L 451.058824 224.327197 
" style="fill:none;stroke:#cccccc;stroke-linecap:round;stroke-width:0.8;"/>
     </g>
     <g id="line2d_64"/>
    </g>
    <g id="ytick_38">
     <g id="line2d_65">
      <path clip-path="url(#p5108d03c81)" d="M 286.941176 152.205657 
L 451.058824 152.205657 
" style="fill:none;stroke:#cccccc;stroke-linecap:round;stroke-width:0.8;"/>
     </g>
     <g id="line2d_66"/>
    </g>
    <g id="ytick_39">
     <g id="line2d_67">
      <path clip-path="url(#p5108d03c81)" d="M 286.941176 80.084118 
L 451.058824 80.084118 
" style="fill:none;stroke:#cccccc;stroke-linecap:round;stroke-width:0.8;"/>
     </g>
     <g id="line2d_68"/>
    </g>
    <g id="ytick_40">
     <g id="line2d_69"/>
    </g>
    <g id="ytick_41">
     <g id="line2d_70"/>
    </g>
    <g id="ytick_42">
     <g id="line2d_71"/>
    </g>
    <g id="ytick_43">
     <g id="line2d_72"/>
    </g>
    <g id="ytick_44">
     <g id="line2d_73"/>
    </g>
    <g id="ytick_45">
     <g id="line2d_74"/>
    </g>
    <g id="ytick_46">
     <g id="line2d_75"/>
    </g>
    <g id="ytick_47">
     <g id="line2d_76"/>
    </g>
    <g id="ytick_48">
     <g id="line2d_77"/>
    </g>
    <g id="ytick_49">
     <g id="line2d_78"/>
    </g>
    <g id="ytick_50">
     <g id="line2d_79"/>
    </g>
    <g id="ytick_51">
     <g id="line2d_80"/>
    </g>
    <g id="ytick_52">
     <g id="line2d_81"/>
    </g>
    <g id="ytick_53">
     <g id="line2d_82"/>
    </g>
    <g id="ytick_54">
     <g id="line2d_83"/>
    </g>
    <g id="ytick_55">
     <g id="line2d_84"/>
    </g>
    <g id="ytick_56">
     <g id="line2d_85"/>
    </g>
    <g id="ytick_57">
     <g id="line2d_86"/>
    </g>
    <g id="ytick_58">
     <g id="line2d_87"/>
    </g>
    <g id="ytick_59">
     <g id="line2d_88"/>
    </g>
    <g id="ytick_60">
     <g id="line2d_89"/>
    </g>
    <g id="ytick_61">
     <g id="line2d_90"/>
    </g>
    <g id="ytick_62">
     <g id="line2d_91"/>
    </g>
    <g id="ytick_63">
     <g id="line2d_92"/>
    </g>
    <g id="ytick_64">
     <g id="line2d_93"/>
    </g>
    <g id="ytick_65">
     <g id="line2d_94"/>
    </g>
    <g id="ytick_66">
     <g id="line2d_95"/>
    </g>
    <g id="ytick_67">
     <g id="line2d_96"/>
    </g>
    <g id="ytick_68">
     <g id="line2d_97"/>
    </g>
    <g id="ytick_69">
     <g id="line2d_98"/>
    </g>
    <g id="ytick_70">
     <g id="line2d_99"/>
    </g>
   </g>
   <g id="line2d_100">
    <path clip-path="url(#p5108d03c81)" d="M 294.40107 306.134943 
L 314.980085 299.368333 
L 340.703854 294.950376 
L 392.151392 289.359366 
L 443.59893 285.421382 
" style="fill:none;stroke:#1f77b4;stroke-linecap:round;stroke-width:1.5;"/>
    <g clip-path="url(#p5108d03c81)">
     <use style="fill:#1f77b4;stroke:#1f77b4;" x="294.40107" xlink:href="#m59b9a2eda6" y="306.134943"/>
     <use style="fill:#1f77b4;stroke:#1f77b4;" x="314.980085" xlink:href="#m59b9a2eda6" y="299.368333"/>
     <use style="fill:#1f77b4;stroke:#1f77b4;" x="340.703854" xlink:href="#m59b9a2eda6" y="294.950376"/>
     <use style="fill:#1f77b4;stroke:#1f77b4;" x="392.151392" xlink:href="#m59b9a2eda6" y="289.359366"/>
     <use style="fill:#1f77b4;stroke:#1f77b4;" x="443.59893" xlink:href="#m59b9a2eda6" y="285.421382"/>
    </g>
   </g>
   <g id="line2d_101">
    <path clip-path="url(#p5108d03c81)" d="M 294.40107 279.994668 
L 314.980085 273.239629 
L 340.703854 272.110655 
L 392.151392 269.487458 
L 443.59893 268.586702 
" style="fill:none;stroke:#ff7f0e;stroke-linecap:round;stroke-width:1.5;"/>
    <g clip-path="url(#p5108d03c81)">
     <use style="fill:#ff7f0e;stroke:#ff7f0e;" x="294.40107" xlink:href="#m1709be6134" y="279.994668"/>
     <use style="fill:#ff7f0e;stroke:#ff7f0e;" x="314.980085" xlink:href="#m1709be6134" y="273.239629"/>
     <use style="fill:#ff7f0e;stroke:#ff7f0e;" x="340.703854" xlink:href="#m1709be6134" y="272.110655"/>
     <use style="fill:#ff7f0e;stroke:#ff7f0e;" x="392.151392" xlink:href="#m1709be6134" y="269.487458"/>
     <use style="fill:#ff7f0e;stroke:#ff7f0e;" x="443.59893" xlink:href="#m1709be6134" y="268.586702"/>
    </g>
   </g>
   <g id="line2d_102">
    <path clip-path="url(#p5108d03c81)" d="M 294.40107 229.458173 
L 314.980085 226.261925 
L 340.703854 225.278011 
L 392.151392 224.724361 
L 443.59893 224.68315 
" style="fill:none;stroke:#2ca02c;stroke-linecap:round;stroke-width:1.5;"/>
    <g clip-path="url(#p5108d03c81)">
     <use style="fill:#2ca02c;stroke:#2ca02c;" x="294.40107" xlink:href="#m4c3fde4715" y="229.458173"/>
     <use style="fill:#2ca02c;stroke:#2ca02c;" x="314.980085" xlink:href="#m4c3fde4715" y="226.261925"/>
     <use style="fill:#2ca02c;stroke:#2ca02c;" x="340.703854" xlink:href="#m4c3fde4715" y="225.278011"/>
     <use style="fill:#2ca02c;stroke:#2ca02c;" x="392.151392" xlink:href="#m4c3fde4715" y="224.724361"/>
     <use style="fill:#2ca02c;stroke:#2ca02c;" x="443.59893" xlink:href="#m4c3fde4715" y="224.68315"/>
    </g>
   </g>
   <g id="line2d_103">
    <path clip-path="url(#p5108d03c81)" d="M 294.40107 163.431614 
L 314.980085 159.487614 
L 340.703854 159.261194 
L 392.151392 158.056213 
L 443.59893 157.974016 
" style="fill:none;stroke:#d62728;stroke-linecap:round;stroke-width:1.5;"/>
    <g clip-path="url(#p5108d03c81)">
     <use style="fill:#d62728;stroke:#d62728;" x="294.40107" xlink:href="#mf45fe1961f" y="163.431614"/>
     <use style="fill:#d62728;stroke:#d62728;" x="314.980085" xlink:href="#mf45fe1961f" y="159.487614"/>
     <use style="fill:#d62728;stroke:#d62728;" x="340.703854" xlink:href="#mf45fe1961f" y="159.261194"/>
     <use style="fill:#d62728;stroke:#d62728;" x="392.151392" xlink:href="#mf45fe1961f" y="158.056213"/>
     <use style="fill:#d62728;stroke:#d62728;" x="443.59893" xlink:href="#mf45fe1961f" y="157.974016"/>
    </g>
   </g>
   <g id="line2d_104">
    <path clip-path="url(#p5108d03c81)" d="M 294.40107 86.940308 
L 314.980085 74.207591 
L 340.703854 65.130051 
L 392.151392 67.513668 
L 443.59893 55.8 
" style="fill:none;stroke:#9467bd;stroke-linecap:round;stroke-width:1.5;"/>
    <g clip-path="url(#p5108d03c81)">
     <use style="fill:#9467bd;stroke:#9467bd;" x="294.40107" xlink:href="#m38532edd48" y="86.940308"/>
     <use style="fill:#9467bd;stroke:#9467bd;" x="314.980085" xlink:href="#m38532edd48" y="74.207591"/>
     <use style="fill:#9467bd;stroke:#9467bd;" x="340.703854" xlink:href="#m38532edd48" y="65.130051"/>
     <use style="fill:#9467bd;stroke:#9467bd;" x="392.151392" xlink:href="#m38532edd48" y="67.513668"/>
     <use style="fill:#9467bd;stroke:#9467bd;" x="443.59893" xlink:href="#m38532edd48" y="55.8"/>
    </g>
   </g>
   <g id="patch_8">
    <path d="M 286.941176 320.4 
L 286.941176 43.2 
" style="fill:none;stroke:#cccccc;stroke-linecap:square;stroke-linejoin:miter;"/>
   </g>
   <g id="patch_9">
    <path d="M 451.058824 320.4 
L 451.058824 43.2 
" style="fill:none;stroke:#cccccc;stroke-linecap:square;stroke-linejoin:miter;"/>
   </g>
   <g id="patch_10">
    <path d="M 286.941176 320.4 
L 451.058824 320.4 
" style="fill:none;stroke:#cccccc;stroke-linecap:square;stroke-linejoin:miter;"/>
   </g>
   <g id="patch_11">
    <path d="M 286.941176 43.2 
L 451.058824 43.2 
" style="fill:none;stroke:#cccccc;stroke-linecap:square;stroke-linejoin:miter;"/>
   </g>
   <g id="text_14">
    <!-- subj type rectangle -->
    <g style="fill:#262626;" transform="translate(318.639375 37.2)scale(0.12 -0.12)">
     <defs>
      <path d="M 6.5 0 
L 6.5 51.859375 
L 14.40625 51.859375 
L 14.40625 44 
Q 17.4375 49.515625 20 51.265625 
Q 22.5625 53.03125 25.640625 53.03125 
Q 30.078125 53.03125 34.671875 50.203125 
L 31.640625 42.046875 
Q 28.421875 43.953125 25.203125 43.953125 
Q 22.3125 43.953125 20.015625 42.21875 
Q 17.71875 40.484375 16.75 37.40625 
Q 15.28125 32.71875 15.28125 27.15625 
L 15.28125 0 
z
" id="ArialMT-114"/>
      <path d="M 40.4375 19 
L 49.078125 17.875 
Q 47.65625 8.9375 41.8125 3.875 
Q 35.984375 -1.171875 27.484375 -1.171875 
Q 16.84375 -1.171875 10.375 5.78125 
Q 3.90625 12.75 3.90625 25.734375 
Q 3.90625 34.125 6.6875 40.421875 
Q 9.46875 46.734375 15.15625 49.875 
Q 20.84375 53.03125 27.546875 53.03125 
Q 35.984375 53.03125 41.359375 48.75 
Q 46.734375 44.484375 48.25 36.625 
L 39.703125 35.296875 
Q 38.484375 40.53125 35.375 43.15625 
Q 32.28125 45.796875 27.875 45.796875 
Q 21.234375 45.796875 17.078125 41.03125 
Q 12.9375 36.28125 12.9375 25.984375 
Q 12.9375 15.53125 16.9375 10.796875 
Q 20.953125 6.0625 27.390625 6.0625 
Q 32.5625 6.0625 36.03125 9.234375 
Q 39.5 12.40625 40.4375 19 
z
" id="ArialMT-99"/>
      <path d="M 4.984375 -4.296875 
L 13.53125 -5.5625 
Q 14.0625 -9.515625 16.5 -11.328125 
Q 19.78125 -13.765625 25.4375 -13.765625 
Q 31.546875 -13.765625 34.859375 -11.328125 
Q 38.1875 -8.890625 39.359375 -4.5 
Q 40.046875 -1.8125 39.984375 6.78125 
Q 34.234375 0 25.640625 0 
Q 14.9375 0 9.078125 7.71875 
Q 3.21875 15.4375 3.21875 26.21875 
Q 3.21875 33.640625 5.90625 39.90625 
Q 8.59375 46.1875 13.6875 49.609375 
Q 18.796875 53.03125 25.6875 53.03125 
Q 34.859375 53.03125 40.828125 45.609375 
L 40.828125 51.859375 
L 48.921875 51.859375 
L 48.921875 7.03125 
Q 48.921875 -5.078125 46.453125 -10.125 
Q 44 -15.1875 38.640625 -18.109375 
Q 33.296875 -21.046875 25.484375 -21.046875 
Q 16.21875 -21.046875 10.5 -16.875 
Q 4.78125 -12.703125 4.984375 -4.296875 
z
M 12.25 26.859375 
Q 12.25 16.65625 16.296875 11.96875 
Q 20.359375 7.28125 26.46875 7.28125 
Q 32.515625 7.28125 36.609375 11.9375 
Q 40.71875 16.609375 40.71875 26.5625 
Q 40.71875 36.078125 36.5 40.90625 
Q 32.28125 45.75 26.3125 45.75 
Q 20.453125 45.75 16.34375 40.984375 
Q 12.25 36.234375 12.25 26.859375 
z
" id="ArialMT-103"/>
     </defs>
     <use xlink:href="#ArialMT-115"/>
     <use x="50" xlink:href="#ArialMT-117"/>
     <use x="105.615234" xlink:href="#ArialMT-98"/>
     <use x="161.230469" xlink:href="#ArialMT-106"/>
     <use x="183.447266" xlink:href="#ArialMT-32"/>
     <use x="211.230469" xlink:href="#ArialMT-116"/>
     <use x="239.013672" xlink:href="#ArialMT-121"/>
     <use x="289.013672" xlink:href="#ArialMT-112"/>
     <use x="344.628906" xlink:href="#ArialMT-101"/>
     <use x="400.244141" xlink:href="#ArialMT-32"/>
     <use x="428.027344" xlink:href="#ArialMT-114"/>
     <use x="461.328125" xlink:href="#ArialMT-101"/>
     <use x="516.943359" xlink:href="#ArialMT-99"/>
     <use x="566.943359" xlink:href="#ArialMT-116"/>
     <use x="594.726562" xlink:href="#ArialMT-97"/>
     <use x="650.341797" xlink:href="#ArialMT-110"/>
     <use x="705.957031" xlink:href="#ArialMT-103"/>
     <use x="761.572266" xlink:href="#ArialMT-108"/>
     <use x="783.789062" xlink:href="#ArialMT-101"/>
    </g>
   </g>
  </g>
  <g id="axes_3">
   <g id="patch_12">
    <path d="M 483.882353 320.4 
L 648 320.4 
L 648 43.2 
L 483.882353 43.2 
z
" style="fill:#ffffff;"/>
   </g>
   <g id="matplotlib.axis_5">
    <g id="xtick_9">
     <g id="line2d_105">
      <path clip-path="url(#pa355a9f3f2)" d="M 486.197492 320.4 
L 486.197492 43.2 
" style="fill:none;stroke:#cccccc;stroke-linecap:round;stroke-width:0.8;"/>
     </g>
     <g id="line2d_106"/>
     <g id="text_15">
      <!-- 0 -->
      <g style="fill:#262626;" transform="translate(483.417023 331.057813)scale(0.1 -0.1)">
       <use xlink:href="#ArialMT-48"/>
      </g>
     </g>
    </g>
    <g id="xtick_10">
     <g id="line2d_107">
      <path clip-path="url(#pa355a9f3f2)" d="M 537.64503 320.4 
L 537.64503 43.2 
" style="fill:none;stroke:#cccccc;stroke-linecap:round;stroke-width:0.8;"/>
     </g>
     <g id="line2d_108"/>
     <g id="text_16">
      <!-- 10 -->
      <g style="fill:#262626;" transform="translate(532.084093 331.057813)scale(0.1 -0.1)">
       <use xlink:href="#ArialMT-49"/>
       <use x="55.615234" xlink:href="#ArialMT-48"/>
      </g>
     </g>
    </g>
    <g id="xtick_11">
     <g id="line2d_109">
      <path clip-path="url(#pa355a9f3f2)" d="M 589.092569 320.4 
L 589.092569 43.2 
" style="fill:none;stroke:#cccccc;stroke-linecap:round;stroke-width:0.8;"/>
     </g>
     <g id="line2d_110"/>
     <g id="text_17">
      <!-- 20 -->
      <g style="fill:#262626;" transform="translate(583.531631 331.057813)scale(0.1 -0.1)">
       <use xlink:href="#ArialMT-50"/>
       <use x="55.615234" xlink:href="#ArialMT-48"/>
      </g>
     </g>
    </g>
    <g id="xtick_12">
     <g id="line2d_111">
      <path clip-path="url(#pa355a9f3f2)" d="M 640.540107 320.4 
L 640.540107 43.2 
" style="fill:none;stroke:#cccccc;stroke-linecap:round;stroke-width:0.8;"/>
     </g>
     <g id="line2d_112"/>
     <g id="text_18">
      <!-- 30 -->
      <g style="fill:#262626;" transform="translate(634.979169 331.057813)scale(0.1 -0.1)">
       <use xlink:href="#ArialMT-51"/>
       <use x="55.615234" xlink:href="#ArialMT-48"/>
      </g>
     </g>
    </g>
   </g>
   <g id="matplotlib.axis_6">
    <g id="ytick_71">
     <g id="line2d_113">
      <path clip-path="url(#pa355a9f3f2)" d="M 483.882353 296.448736 
L 648 296.448736 
" style="fill:none;stroke:#cccccc;stroke-linecap:round;stroke-width:0.8;"/>
     </g>
     <g id="line2d_114"/>
    </g>
    <g id="ytick_72">
     <g id="line2d_115">
      <path clip-path="url(#pa355a9f3f2)" d="M 483.882353 224.327197 
L 648 224.327197 
" style="fill:none;stroke:#cccccc;stroke-linecap:round;stroke-width:0.8;"/>
     </g>
     <g id="line2d_116"/>
    </g>
    <g id="ytick_73">
     <g id="line2d_117">
      <path clip-path="url(#pa355a9f3f2)" d="M 483.882353 152.205657 
L 648 152.205657 
" style="fill:none;stroke:#cccccc;stroke-linecap:round;stroke-width:0.8;"/>
     </g>
     <g id="line2d_118"/>
    </g>
    <g id="ytick_74">
     <g id="line2d_119">
      <path clip-path="url(#pa355a9f3f2)" d="M 483.882353 80.084118 
L 648 80.084118 
" style="fill:none;stroke:#cccccc;stroke-linecap:round;stroke-width:0.8;"/>
     </g>
     <g id="line2d_120"/>
    </g>
    <g id="ytick_75">
     <g id="line2d_121"/>
    </g>
    <g id="ytick_76">
     <g id="line2d_122"/>
    </g>
    <g id="ytick_77">
     <g id="line2d_123"/>
    </g>
    <g id="ytick_78">
     <g id="line2d_124"/>
    </g>
    <g id="ytick_79">
     <g id="line2d_125"/>
    </g>
    <g id="ytick_80">
     <g id="line2d_126"/>
    </g>
    <g id="ytick_81">
     <g id="line2d_127"/>
    </g>
    <g id="ytick_82">
     <g id="line2d_128"/>
    </g>
    <g id="ytick_83">
     <g id="line2d_129"/>
    </g>
    <g id="ytick_84">
     <g id="line2d_130"/>
    </g>
    <g id="ytick_85">
     <g id="line2d_131"/>
    </g>
    <g id="ytick_86">
     <g id="line2d_132"/>
    </g>
    <g id="ytick_87">
     <g id="line2d_133"/>
    </g>
    <g id="ytick_88">
     <g id="line2d_134"/>
    </g>
    <g id="ytick_89">
     <g id="line2d_135"/>
    </g>
    <g id="ytick_90">
     <g id="line2d_136"/>
    </g>
    <g id="ytick_91">
     <g id="line2d_137"/>
    </g>
    <g id="ytick_92">
     <g id="line2d_138"/>
    </g>
    <g id="ytick_93">
     <g id="line2d_139"/>
    </g>
    <g id="ytick_94">
     <g id="line2d_140"/>
    </g>
    <g id="ytick_95">
     <g id="line2d_141"/>
    </g>
    <g id="ytick_96">
     <g id="line2d_142"/>
    </g>
    <g id="ytick_97">
     <g id="line2d_143"/>
    </g>
    <g id="ytick_98">
     <g id="line2d_144"/>
    </g>
    <g id="ytick_99">
     <g id="line2d_145"/>
    </g>
    <g id="ytick_100">
     <g id="line2d_146"/>
    </g>
    <g id="ytick_101">
     <g id="line2d_147"/>
    </g>
    <g id="ytick_102">
     <g id="line2d_148"/>
    </g>
    <g id="ytick_103">
     <g id="line2d_149"/>
    </g>
    <g id="ytick_104">
     <g id="line2d_150"/>
    </g>
    <g id="ytick_105">
     <g id="line2d_151"/>
    </g>
   </g>
   <g id="line2d_152">
    <path clip-path="url(#pa355a9f3f2)" d="M 491.342246 305.711094 
L 511.921261 299.231106 
L 537.64503 294.564596 
L 589.092569 288.472836 
L 640.540107 284.296438 
" style="fill:none;stroke:#1f77b4;stroke-linecap:round;stroke-width:1.5;"/>
    <g clip-path="url(#pa355a9f3f2)">
     <use style="fill:#1f77b4;stroke:#1f77b4;" x="491.342246" xlink:href="#m59b9a2eda6" y="305.711094"/>
     <use style="fill:#1f77b4;stroke:#1f77b4;" x="511.921261" xlink:href="#m59b9a2eda6" y="299.231106"/>
     <use style="fill:#1f77b4;stroke:#1f77b4;" x="537.64503" xlink:href="#m59b9a2eda6" y="294.564596"/>
     <use style="fill:#1f77b4;stroke:#1f77b4;" x="589.092569" xlink:href="#m59b9a2eda6" y="288.472836"/>
     <use style="fill:#1f77b4;stroke:#1f77b4;" x="640.540107" xlink:href="#m59b9a2eda6" y="284.296438"/>
    </g>
   </g>
   <g id="line2d_153">
    <path clip-path="url(#pa355a9f3f2)" d="M 491.342246 279.865276 
L 511.921261 275.179596 
L 537.64503 273.314366 
L 589.092569 270.633924 
L 640.540107 269.210563 
" style="fill:none;stroke:#ff7f0e;stroke-linecap:round;stroke-width:1.5;"/>
    <g clip-path="url(#pa355a9f3f2)">
     <use style="fill:#ff7f0e;stroke:#ff7f0e;" x="491.342246" xlink:href="#m1709be6134" y="279.865276"/>
     <use style="fill:#ff7f0e;stroke:#ff7f0e;" x="511.921261" xlink:href="#m1709be6134" y="275.179596"/>
     <use style="fill:#ff7f0e;stroke:#ff7f0e;" x="537.64503" xlink:href="#m1709be6134" y="273.314366"/>
     <use style="fill:#ff7f0e;stroke:#ff7f0e;" x="589.092569" xlink:href="#m1709be6134" y="270.633924"/>
     <use style="fill:#ff7f0e;stroke:#ff7f0e;" x="640.540107" xlink:href="#m1709be6134" y="269.210563"/>
    </g>
   </g>
   <g id="line2d_154">
    <path clip-path="url(#pa355a9f3f2)" d="M 491.342246 228.434582 
L 511.921261 223.45005 
L 537.64503 222.831823 
L 589.092569 221.245228 
L 640.540107 221.148862 
" style="fill:none;stroke:#2ca02c;stroke-linecap:round;stroke-width:1.5;"/>
    <g clip-path="url(#pa355a9f3f2)">
     <use style="fill:#2ca02c;stroke:#2ca02c;" x="491.342246" xlink:href="#m4c3fde4715" y="228.434582"/>
     <use style="fill:#2ca02c;stroke:#2ca02c;" x="511.921261" xlink:href="#m4c3fde4715" y="223.45005"/>
     <use style="fill:#2ca02c;stroke:#2ca02c;" x="537.64503" xlink:href="#m4c3fde4715" y="222.831823"/>
     <use style="fill:#2ca02c;stroke:#2ca02c;" x="589.092569" xlink:href="#m4c3fde4715" y="221.245228"/>
     <use style="fill:#2ca02c;stroke:#2ca02c;" x="640.540107" xlink:href="#m4c3fde4715" y="221.148862"/>
    </g>
   </g>
   <g id="line2d_155">
    <path clip-path="url(#pa355a9f3f2)" d="M 491.342246 163.471084 
L 511.921261 159.097228 
L 537.64503 157.861628 
L 589.092569 156.580225 
L 640.540107 155.202365 
" style="fill:none;stroke:#d62728;stroke-linecap:round;stroke-width:1.5;"/>
    <g clip-path="url(#pa355a9f3f2)">
     <use style="fill:#d62728;stroke:#d62728;" x="491.342246" xlink:href="#mf45fe1961f" y="163.471084"/>
     <use style="fill:#d62728;stroke:#d62728;" x="511.921261" xlink:href="#mf45fe1961f" y="159.097228"/>
     <use style="fill:#d62728;stroke:#d62728;" x="537.64503" xlink:href="#mf45fe1961f" y="157.861628"/>
     <use style="fill:#d62728;stroke:#d62728;" x="589.092569" xlink:href="#mf45fe1961f" y="156.580225"/>
     <use style="fill:#d62728;stroke:#d62728;" x="640.540107" xlink:href="#mf45fe1961f" y="155.202365"/>
    </g>
   </g>
   <g id="line2d_156">
    <path clip-path="url(#pa355a9f3f2)" d="M 491.342246 89.900406 
L 511.921261 76.55125 
L 537.64503 71.660015 
L 589.092569 64.196096 
L 640.540107 64.032231 
" style="fill:none;stroke:#9467bd;stroke-linecap:round;stroke-width:1.5;"/>
    <g clip-path="url(#pa355a9f3f2)">
     <use style="fill:#9467bd;stroke:#9467bd;" x="491.342246" xlink:href="#m38532edd48" y="89.900406"/>
     <use style="fill:#9467bd;stroke:#9467bd;" x="511.921261" xlink:href="#m38532edd48" y="76.55125"/>
     <use style="fill:#9467bd;stroke:#9467bd;" x="537.64503" xlink:href="#m38532edd48" y="71.660015"/>
     <use style="fill:#9467bd;stroke:#9467bd;" x="589.092569" xlink:href="#m38532edd48" y="64.196096"/>
     <use style="fill:#9467bd;stroke:#9467bd;" x="640.540107" xlink:href="#m38532edd48" y="64.032231"/>
    </g>
   </g>
   <g id="patch_13">
    <path d="M 483.882353 320.4 
L 483.882353 43.2 
" style="fill:none;stroke:#cccccc;stroke-linecap:square;stroke-linejoin:miter;"/>
   </g>
   <g id="patch_14">
    <path d="M 648 320.4 
L 648 43.2 
" style="fill:none;stroke:#cccccc;stroke-linecap:square;stroke-linejoin:miter;"/>
   </g>
   <g id="patch_15">
    <path d="M 483.882353 320.4 
L 648 320.4 
" style="fill:none;stroke:#cccccc;stroke-linecap:square;stroke-linejoin:miter;"/>
   </g>
   <g id="patch_16">
    <path d="M 483.882353 43.2 
L 648 43.2 
" style="fill:none;stroke:#cccccc;stroke-linecap:square;stroke-linejoin:miter;"/>
   </g>
   <g id="text_19">
    <!-- subj type triangle -->
    <g style="fill:#262626;" transform="translate(520.583989 37.2)scale(0.12 -0.12)">
     <use xlink:href="#ArialMT-115"/>
     <use x="50" xlink:href="#ArialMT-117"/>
     <use x="105.615234" xlink:href="#ArialMT-98"/>
     <use x="161.230469" xlink:href="#ArialMT-106"/>
     <use x="183.447266" xlink:href="#ArialMT-32"/>
     <use x="211.230469" xlink:href="#ArialMT-116"/>
     <use x="239.013672" xlink:href="#ArialMT-121"/>
     <use x="289.013672" xlink:href="#ArialMT-112"/>
     <use x="344.628906" xlink:href="#ArialMT-101"/>
     <use x="400.244141" xlink:href="#ArialMT-32"/>
     <use x="428.027344" xlink:href="#ArialMT-116"/>
     <use x="455.810547" xlink:href="#ArialMT-114"/>
     <use x="489.111328" xlink:href="#ArialMT-105"/>
     <use x="511.328125" xlink:href="#ArialMT-97"/>
     <use x="566.943359" xlink:href="#ArialMT-110"/>
     <use x="622.558594" xlink:href="#ArialMT-103"/>
     <use x="678.173828" xlink:href="#ArialMT-108"/>
     <use x="700.390625" xlink:href="#ArialMT-101"/>
    </g>
   </g>
  </g>
  <g id="axes_4">
   <g id="matplotlib.axis_7">
    <g id="xtick_13">
     <g id="text_20">
      <!-- 0.0 -->
      <g style="opacity:0;" transform="translate(83.05 331.057813)scale(0.1 -0.1)">
       <defs>
        <path d="M 9.078125 0 
L 9.078125 10.015625 
L 19.09375 10.015625 
L 19.09375 0 
z
" id="ArialMT-46"/>
       </defs>
       <use xlink:href="#ArialMT-48"/>
       <use x="55.615234" xlink:href="#ArialMT-46"/>
       <use x="83.398438" xlink:href="#ArialMT-48"/>
      </g>
     </g>
    </g>
    <g id="xtick_14">
     <g id="text_21">
      <!-- 0.2 -->
      <g style="opacity:0;" transform="translate(194.65 331.057813)scale(0.1 -0.1)">
       <use xlink:href="#ArialMT-48"/>
       <use x="55.615234" xlink:href="#ArialMT-46"/>
       <use x="83.398438" xlink:href="#ArialMT-50"/>
      </g>
     </g>
    </g>
    <g id="xtick_15">
     <g id="text_22">
      <!-- 0.4 -->
      <g style="opacity:0;" transform="translate(306.25 331.057813)scale(0.1 -0.1)">
       <defs>
        <path d="M 32.328125 0 
L 32.328125 17.140625 
L 1.265625 17.140625 
L 1.265625 25.203125 
L 33.9375 71.578125 
L 41.109375 71.578125 
L 41.109375 25.203125 
L 50.78125 25.203125 
L 50.78125 17.140625 
L 41.109375 17.140625 
L 41.109375 0 
z
M 32.328125 25.203125 
L 32.328125 57.46875 
L 9.90625 25.203125 
z
" id="ArialMT-52"/>
       </defs>
       <use xlink:href="#ArialMT-48"/>
       <use x="55.615234" xlink:href="#ArialMT-46"/>
       <use x="83.398438" xlink:href="#ArialMT-52"/>
      </g>
     </g>
    </g>
    <g id="xtick_16">
     <g id="text_23">
      <!-- 0.6 -->
      <g style="opacity:0;" transform="translate(417.85 331.057813)scale(0.1 -0.1)">
       <defs>
        <path d="M 49.75 54.046875 
L 41.015625 53.375 
Q 39.84375 58.546875 37.703125 60.890625 
Q 34.125 64.65625 28.90625 64.65625 
Q 24.703125 64.65625 21.53125 62.3125 
Q 17.390625 59.28125 14.984375 53.46875 
Q 12.59375 47.65625 12.5 36.921875 
Q 15.671875 41.75 20.265625 44.09375 
Q 24.859375 46.4375 29.890625 46.4375 
Q 38.671875 46.4375 44.84375 39.96875 
Q 51.03125 33.5 51.03125 23.25 
Q 51.03125 16.5 48.125 10.71875 
Q 45.21875 4.9375 40.140625 1.859375 
Q 35.0625 -1.21875 28.609375 -1.21875 
Q 17.625 -1.21875 10.6875 6.859375 
Q 3.765625 14.9375 3.765625 33.5 
Q 3.765625 54.25 11.421875 63.671875 
Q 18.109375 71.875 29.4375 71.875 
Q 37.890625 71.875 43.28125 67.140625 
Q 48.6875 62.40625 49.75 54.046875 
z
M 13.875 23.1875 
Q 13.875 18.65625 15.796875 14.5 
Q 17.71875 10.359375 21.1875 8.171875 
Q 24.65625 6 28.46875 6 
Q 34.03125 6 38.03125 10.484375 
Q 42.046875 14.984375 42.046875 22.703125 
Q 42.046875 30.125 38.078125 34.390625 
Q 34.125 38.671875 28.125 38.671875 
Q 22.171875 38.671875 18.015625 34.390625 
Q 13.875 30.125 13.875 23.1875 
z
" id="ArialMT-54"/>
       </defs>
       <use xlink:href="#ArialMT-48"/>
       <use x="55.615234" xlink:href="#ArialMT-46"/>
       <use x="83.398438" xlink:href="#ArialMT-54"/>
      </g>
     </g>
    </g>
    <g id="xtick_17">
     <g id="text_24">
      <!-- 0.8 -->
      <g style="opacity:0;" transform="translate(529.45 331.057813)scale(0.1 -0.1)">
       <defs>
        <path d="M 17.671875 38.8125 
Q 12.203125 40.828125 9.5625 44.53125 
Q 6.9375 48.25 6.9375 53.421875 
Q 6.9375 61.234375 12.546875 66.546875 
Q 18.171875 71.875 27.484375 71.875 
Q 36.859375 71.875 42.578125 66.421875 
Q 48.296875 60.984375 48.296875 53.171875 
Q 48.296875 48.1875 45.671875 44.5 
Q 43.0625 40.828125 37.75 38.8125 
Q 44.34375 36.671875 47.78125 31.875 
Q 51.21875 27.09375 51.21875 20.453125 
Q 51.21875 11.28125 44.71875 5.03125 
Q 38.234375 -1.21875 27.640625 -1.21875 
Q 17.046875 -1.21875 10.546875 5.046875 
Q 4.046875 11.328125 4.046875 20.703125 
Q 4.046875 27.6875 7.59375 32.390625 
Q 11.140625 37.109375 17.671875 38.8125 
z
M 15.921875 53.71875 
Q 15.921875 48.640625 19.1875 45.40625 
Q 22.46875 42.1875 27.6875 42.1875 
Q 32.765625 42.1875 36.015625 45.375 
Q 39.265625 48.578125 39.265625 53.21875 
Q 39.265625 58.0625 35.90625 61.359375 
Q 32.5625 64.65625 27.59375 64.65625 
Q 22.5625 64.65625 19.234375 61.421875 
Q 15.921875 58.203125 15.921875 53.71875 
z
M 13.09375 20.65625 
Q 13.09375 16.890625 14.875 13.375 
Q 16.65625 9.859375 20.171875 7.921875 
Q 23.6875 6 27.734375 6 
Q 34.03125 6 38.125 10.046875 
Q 42.234375 14.109375 42.234375 20.359375 
Q 42.234375 26.703125 38.015625 30.859375 
Q 33.796875 35.015625 27.4375 35.015625 
Q 21.234375 35.015625 17.15625 30.90625 
Q 13.09375 26.8125 13.09375 20.65625 
z
" id="ArialMT-56"/>
       </defs>
       <use xlink:href="#ArialMT-48"/>
       <use x="55.615234" xlink:href="#ArialMT-46"/>
       <use x="83.398438" xlink:href="#ArialMT-56"/>
      </g>
     </g>
    </g>
    <g id="xtick_18">
     <g id="text_25">
      <!-- 1.0 -->
      <g style="opacity:0;" transform="translate(641.05 331.057813)scale(0.1 -0.1)">
       <use xlink:href="#ArialMT-49"/>
       <use x="55.615234" xlink:href="#ArialMT-46"/>
       <use x="83.398438" xlink:href="#ArialMT-48"/>
      </g>
     </g>
    </g>
    <g id="text_26">
     <!-- query size -->
     <g style="fill:#262626;" transform="translate(346.213281 344.203125)scale(0.1 -0.1)">
      <defs>
       <path d="M 39.65625 -19.875 
L 39.65625 5.515625 
Q 37.59375 2.640625 33.90625 0.734375 
Q 30.21875 -1.171875 26.078125 -1.171875 
Q 16.84375 -1.171875 10.171875 6.203125 
Q 3.515625 13.578125 3.515625 26.421875 
Q 3.515625 34.234375 6.21875 40.421875 
Q 8.9375 46.625 14.078125 49.828125 
Q 19.234375 53.03125 25.390625 53.03125 
Q 35.015625 53.03125 40.53125 44.921875 
L 40.53125 51.859375 
L 48.4375 51.859375 
L 48.4375 -19.875 
z
M 12.546875 26.078125 
Q 12.546875 16.0625 16.75 11.0625 
Q 20.953125 6.0625 26.8125 6.0625 
Q 32.421875 6.0625 36.46875 10.8125 
Q 40.53125 15.578125 40.53125 25.296875 
Q 40.53125 35.640625 36.25 40.859375 
Q 31.984375 46.09375 26.21875 46.09375 
Q 20.515625 46.09375 16.53125 41.234375 
Q 12.546875 36.375 12.546875 26.078125 
z
" id="ArialMT-113"/>
       <path d="M 1.953125 0 
L 1.953125 7.125 
L 34.96875 45.015625 
Q 29.34375 44.734375 25.046875 44.734375 
L 3.90625 44.734375 
L 3.90625 51.859375 
L 46.296875 51.859375 
L 46.296875 46.046875 
L 18.21875 13.140625 
L 12.796875 7.125 
Q 18.703125 7.5625 23.875 7.5625 
L 47.859375 7.5625 
L 47.859375 0 
z
" id="ArialMT-122"/>
      </defs>
      <use xlink:href="#ArialMT-113"/>
      <use x="55.615234" xlink:href="#ArialMT-117"/>
      <use x="111.230469" xlink:href="#ArialMT-101"/>
      <use x="166.845703" xlink:href="#ArialMT-114"/>
      <use x="200.146484" xlink:href="#ArialMT-121"/>
      <use x="250.146484" xlink:href="#ArialMT-32"/>
      <use x="277.929688" xlink:href="#ArialMT-115"/>
      <use x="327.929688" xlink:href="#ArialMT-105"/>
      <use x="350.146484" xlink:href="#ArialMT-122"/>
      <use x="400.146484" xlink:href="#ArialMT-101"/>
     </g>
    </g>
   </g>
   <g id="matplotlib.axis_8">
    <g id="ytick_106">
     <g id="text_27">
      <!-- 0.0 -->
      <g style="opacity:0;" transform="translate(72.6 323.978906)scale(0.1 -0.1)">
       <use xlink:href="#ArialMT-48"/>
       <use x="55.615234" xlink:href="#ArialMT-46"/>
       <use x="83.398438" xlink:href="#ArialMT-48"/>
      </g>
     </g>
    </g>
    <g id="ytick_107">
     <g id="text_28">
      <!-- 0.2 -->
      <g style="opacity:0;" transform="translate(72.6 268.538906)scale(0.1 -0.1)">
       <use xlink:href="#ArialMT-48"/>
       <use x="55.615234" xlink:href="#ArialMT-46"/>
       <use x="83.398438" xlink:href="#ArialMT-50"/>
      </g>
     </g>
    </g>
    <g id="ytick_108">
     <g id="text_29">
      <!-- 0.4 -->
      <g style="opacity:0;" transform="translate(72.6 213.098906)scale(0.1 -0.1)">
       <use xlink:href="#ArialMT-48"/>
       <use x="55.615234" xlink:href="#ArialMT-46"/>
       <use x="83.398438" xlink:href="#ArialMT-52"/>
      </g>
     </g>
    </g>
    <g id="ytick_109">
     <g id="text_30">
      <!-- 0.6 -->
      <g style="opacity:0;" transform="translate(72.6 157.658906)scale(0.1 -0.1)">
       <use xlink:href="#ArialMT-48"/>
       <use x="55.615234" xlink:href="#ArialMT-46"/>
       <use x="83.398438" xlink:href="#ArialMT-54"/>
      </g>
     </g>
    </g>
    <g id="ytick_110">
     <g id="text_31">
      <!-- 0.8 -->
      <g style="opacity:0;" transform="translate(72.6 102.218906)scale(0.1 -0.1)">
       <use xlink:href="#ArialMT-48"/>
       <use x="55.615234" xlink:href="#ArialMT-46"/>
       <use x="83.398438" xlink:href="#ArialMT-56"/>
      </g>
     </g>
    </g>
    <g id="ytick_111">
     <g id="text_32">
      <!-- 1.0 -->
      <g style="opacity:0;" transform="translate(72.6 46.778906)scale(0.1 -0.1)">
       <use xlink:href="#ArialMT-49"/>
       <use x="55.615234" xlink:href="#ArialMT-46"/>
       <use x="83.398438" xlink:href="#ArialMT-48"/>
      </g>
     </g>
    </g>
    <g id="text_33">
     <!-- average time [ms] -->
     <g style="fill:#262626;" transform="translate(66.495312 221.533594)rotate(-90)scale(0.1 -0.1)">
      <defs>
       <path d="M 21 0 
L 1.265625 51.859375 
L 10.546875 51.859375 
L 21.6875 20.796875 
Q 23.484375 15.765625 25 10.359375 
Q 26.171875 14.453125 28.265625 20.21875 
L 39.796875 51.859375 
L 48.828125 51.859375 
L 29.203125 0 
z
" id="ArialMT-118"/>
       <path d="M 6.59375 0 
L 6.59375 51.859375 
L 14.453125 51.859375 
L 14.453125 44.578125 
Q 16.890625 48.390625 20.9375 50.703125 
Q 25 53.03125 30.171875 53.03125 
Q 35.9375 53.03125 39.625 50.640625 
Q 43.3125 48.25 44.828125 43.953125 
Q 50.984375 53.03125 60.84375 53.03125 
Q 68.5625 53.03125 72.703125 48.75 
Q 76.859375 44.484375 76.859375 35.59375 
L 76.859375 0 
L 68.109375 0 
L 68.109375 32.671875 
Q 68.109375 37.9375 67.25 40.25 
Q 66.40625 42.578125 64.15625 43.984375 
Q 61.921875 45.40625 58.890625 45.40625 
Q 53.421875 45.40625 49.796875 41.765625 
Q 46.1875 38.140625 46.1875 30.125 
L 46.1875 0 
L 37.40625 0 
L 37.40625 33.6875 
Q 37.40625 39.546875 35.25 42.46875 
Q 33.109375 45.40625 28.21875 45.40625 
Q 24.515625 45.40625 21.359375 43.453125 
Q 18.21875 41.5 16.796875 37.734375 
Q 15.375 33.984375 15.375 26.90625 
L 15.375 0 
z
" id="ArialMT-109"/>
       <path d="M 6.78125 -19.875 
L 6.78125 71.578125 
L 26.171875 71.578125 
L 26.171875 64.3125 
L 15.578125 64.3125 
L 15.578125 -12.59375 
L 26.171875 -12.59375 
L 26.171875 -19.875 
z
" id="ArialMT-91"/>
       <path d="M 21.296875 -19.875 
L 1.90625 -19.875 
L 1.90625 -12.59375 
L 12.5 -12.59375 
L 12.5 64.3125 
L 1.90625 64.3125 
L 1.90625 71.578125 
L 21.296875 71.578125 
z
" id="ArialMT-93"/>
      </defs>
      <use xlink:href="#ArialMT-97"/>
      <use x="55.615234" xlink:href="#ArialMT-118"/>
      <use x="105.615234" xlink:href="#ArialMT-101"/>
      <use x="161.230469" xlink:href="#ArialMT-114"/>
      <use x="194.53125" xlink:href="#ArialMT-97"/>
      <use x="250.146484" xlink:href="#ArialMT-103"/>
      <use x="305.761719" xlink:href="#ArialMT-101"/>
      <use x="361.376953" xlink:href="#ArialMT-32"/>
      <use x="389.160156" xlink:href="#ArialMT-116"/>
      <use x="416.943359" xlink:href="#ArialMT-105"/>
      <use x="439.160156" xlink:href="#ArialMT-109"/>
      <use x="522.460938" xlink:href="#ArialMT-101"/>
      <use x="578.076172" xlink:href="#ArialMT-32"/>
      <use x="605.859375" xlink:href="#ArialMT-91"/>
      <use x="633.642578" xlink:href="#ArialMT-109"/>
      <use x="716.943359" xlink:href="#ArialMT-115"/>
      <use x="766.943359" xlink:href="#ArialMT-93"/>
     </g>
    </g>
   </g>
  </g>
  <g id="legend_1">
   <g id="line2d_157">
    <path d="M 76.28125 12.6875 
L 96.28125 12.6875 
" style="fill:none;stroke:#1f77b4;stroke-linecap:round;stroke-width:1.5;"/>
   </g>
   <g id="line2d_158">
    <g>
     <use style="fill:#1f77b4;stroke:#1f77b4;" x="86.28125" xlink:href="#m59b9a2eda6" y="12.6875"/>
    </g>
   </g>
   <g id="text_34">
    <!-- subj size 100 -->
    <g style="fill:#262626;" transform="translate(104.28125 16.1875)scale(0.1 -0.1)">
     <use xlink:href="#ArialMT-115"/>
     <use x="50" xlink:href="#ArialMT-117"/>
     <use x="105.615234" xlink:href="#ArialMT-98"/>
     <use x="161.230469" xlink:href="#ArialMT-106"/>
     <use x="183.447266" xlink:href="#ArialMT-32"/>
     <use x="211.230469" xlink:href="#ArialMT-115"/>
     <use x="261.230469" xlink:href="#ArialMT-105"/>
     <use x="283.447266" xlink:href="#ArialMT-122"/>
     <use x="333.447266" xlink:href="#ArialMT-101"/>
     <use x="389.0625" xlink:href="#ArialMT-32"/>
     <use x="416.845703" xlink:href="#ArialMT-49"/>
     <use x="472.460938" xlink:href="#ArialMT-48"/>
     <use x="528.076172" xlink:href="#ArialMT-48"/>
    </g>
   </g>
   <g id="line2d_159">
    <path d="M 182.646875 12.6875 
L 202.646875 12.6875 
" style="fill:none;stroke:#ff7f0e;stroke-linecap:round;stroke-width:1.5;"/>
   </g>
   <g id="line2d_160">
    <g>
     <use style="fill:#ff7f0e;stroke:#ff7f0e;" x="192.646875" xlink:href="#m1709be6134" y="12.6875"/>
    </g>
   </g>
   <g id="text_35">
    <!-- subj size 1000 -->
    <g style="fill:#262626;" transform="translate(210.646875 16.1875)scale(0.1 -0.1)">
     <use xlink:href="#ArialMT-115"/>
     <use x="50" xlink:href="#ArialMT-117"/>
     <use x="105.615234" xlink:href="#ArialMT-98"/>
     <use x="161.230469" xlink:href="#ArialMT-106"/>
     <use x="183.447266" xlink:href="#ArialMT-32"/>
     <use x="211.230469" xlink:href="#ArialMT-115"/>
     <use x="261.230469" xlink:href="#ArialMT-105"/>
     <use x="283.447266" xlink:href="#ArialMT-122"/>
     <use x="333.447266" xlink:href="#ArialMT-101"/>
     <use x="389.0625" xlink:href="#ArialMT-32"/>
     <use x="416.845703" xlink:href="#ArialMT-49"/>
     <use x="472.460938" xlink:href="#ArialMT-48"/>
     <use x="528.076172" xlink:href="#ArialMT-48"/>
     <use x="583.691406" xlink:href="#ArialMT-48"/>
    </g>
   </g>
   <g id="line2d_161">
    <path d="M 294.573438 12.6875 
L 314.573438 12.6875 
" style="fill:none;stroke:#2ca02c;stroke-linecap:round;stroke-width:1.5;"/>
   </g>
   <g id="line2d_162">
    <g>
     <use style="fill:#2ca02c;stroke:#2ca02c;" x="304.573438" xlink:href="#m4c3fde4715" y="12.6875"/>
    </g>
   </g>
   <g id="text_36">
    <!-- subj size 10000 -->
    <g style="fill:#262626;" transform="translate(322.573438 16.1875)scale(0.1 -0.1)">
     <use xlink:href="#ArialMT-115"/>
     <use x="50" xlink:href="#ArialMT-117"/>
     <use x="105.615234" xlink:href="#ArialMT-98"/>
     <use x="161.230469" xlink:href="#ArialMT-106"/>
     <use x="183.447266" xlink:href="#ArialMT-32"/>
     <use x="211.230469" xlink:href="#ArialMT-115"/>
     <use x="261.230469" xlink:href="#ArialMT-105"/>
     <use x="283.447266" xlink:href="#ArialMT-122"/>
     <use x="333.447266" xlink:href="#ArialMT-101"/>
     <use x="389.0625" xlink:href="#ArialMT-32"/>
     <use x="416.845703" xlink:href="#ArialMT-49"/>
     <use x="472.460938" xlink:href="#ArialMT-48"/>
     <use x="528.076172" xlink:href="#ArialMT-48"/>
     <use x="583.691406" xlink:href="#ArialMT-48"/>
     <use x="639.306641" xlink:href="#ArialMT-48"/>
    </g>
   </g>
   <g id="line2d_163">
    <path d="M 412.060938 12.6875 
L 432.060938 12.6875 
" style="fill:none;stroke:#d62728;stroke-linecap:round;stroke-width:1.5;"/>
   </g>
   <g id="line2d_164">
    <g>
     <use style="fill:#d62728;stroke:#d62728;" x="422.060938" xlink:href="#mf45fe1961f" y="12.6875"/>
    </g>
   </g>
   <g id="text_37">
    <!-- subj size 100000 -->
    <g style="fill:#262626;" transform="translate(440.060938 16.1875)scale(0.1 -0.1)">
     <use xlink:href="#ArialMT-115"/>
     <use x="50" xlink:href="#ArialMT-117"/>
     <use x="105.615234" xlink:href="#ArialMT-98"/>
     <use x="161.230469" xlink:href="#ArialMT-106"/>
     <use x="183.447266" xlink:href="#ArialMT-32"/>
     <use x="211.230469" xlink:href="#ArialMT-115"/>
     <use x="261.230469" xlink:href="#ArialMT-105"/>
     <use x="283.447266" xlink:href="#ArialMT-122"/>
     <use x="333.447266" xlink:href="#ArialMT-101"/>
     <use x="389.0625" xlink:href="#ArialMT-32"/>
     <use x="416.845703" xlink:href="#ArialMT-49"/>
     <use x="472.460938" xlink:href="#ArialMT-48"/>
     <use x="528.076172" xlink:href="#ArialMT-48"/>
     <use x="583.691406" xlink:href="#ArialMT-48"/>
     <use x="639.306641" xlink:href="#ArialMT-48"/>
     <use x="694.921875" xlink:href="#ArialMT-48"/>
    </g>
   </g>
   <g id="line2d_165">
    <path d="M 535.109375 12.6875 
L 555.109375 12.6875 
" style="fill:none;stroke:#9467bd;stroke-linecap:round;stroke-width:1.5;"/>
   </g>
   <g id="line2d_166">
    <g>
     <use style="fill:#9467bd;stroke:#9467bd;" x="545.109375" xlink:href="#m38532edd48" y="12.6875"/>
    </g>
   </g>
   <g id="text_38">
    <!-- subj size 1000000 -->
    <g style="fill:#262626;" transform="translate(563.109375 16.1875)scale(0.1 -0.1)">
     <use xlink:href="#ArialMT-115"/>
     <use x="50" xlink:href="#ArialMT-117"/>
     <use x="105.615234" xlink:href="#ArialMT-98"/>
     <use x="161.230469" xlink:href="#ArialMT-106"/>
     <use x="183.447266" xlink:href="#ArialMT-32"/>
     <use x="211.230469" xlink:href="#ArialMT-115"/>
     <use x="261.230469" xlink:href="#ArialMT-105"/>
     <use x="283.447266" xlink:href="#ArialMT-122"/>
     <use x="333.447266" xlink:href="#ArialMT-101"/>
     <use x="389.0625" xlink:href="#ArialMT-32"/>
     <use x="416.845703" xlink:href="#ArialMT-49"/>
     <use x="472.460938" xlink:href="#ArialMT-48"/>
     <use x="528.076172" xlink:href="#ArialMT-48"/>
     <use x="583.691406" xlink:href="#ArialMT-48"/>
     <use x="639.306641" xlink:href="#ArialMT-48"/>
     <use x="694.921875" xlink:href="#ArialMT-48"/>
     <use x="750.537109" xlink:href="#ArialMT-48"/>
    </g>
   </g>
  </g>
 </g>
 <defs>
  <clipPath id="p05e0927735">
   <rect height="277.2" width="164.117647" x="90" y="43.2"/>
  </clipPath>
  <clipPath id="p5108d03c81">
   <rect height="277.2" width="164.117647" x="286.941176" y="43.2"/>
  </clipPath>
  <clipPath id="pa355a9f3f2">
   <rect height="277.2" width="164.117647" x="483.882353" y="43.2"/>
  </clipPath>
 </defs>
</svg>
